<?xml version="1.0" encoding="UTF-8"?>
<svg id="Layer_1" xmlns="http://www.w3.org/2000/svg" version="1.1" viewBox="0 0 1236.7 310.1">
  <!-- Generator: Adobe Illustrator 30.1.0, SVG Export Plug-In . SVG Version: 2.1.1 Build 136)  -->
  <defs>
    <style>
      .st0 {
        fill: #14110f;
      }
    </style>
  </defs>
  <g>
    <path class="st0" d="M120.5,63.4v-.6c-.2-.4-.6-.8-.6-1.2,0-.1.1-.3.4-.4-.4-.2-.4-.4-.4-.6s0-.2-.2-.4v-1.2c0-.2-.2-.2-.2-.2,0-.4-.2-.8-.2-1.2-.2-.8-.4-1.8-.4-2.4v-.2c-.2-.4-.2-.6-.4-1-2.6-8.1-5.9-16-10.9-22.5-7.7-9.9-15-15.4-26.8-20.5-.8-.4-2-.6-3-1-1.2-.6-3-1.4-4.3-1.4s-1.6-.4-3-.6c-.8-.2-1.4-.4-1.8-.4s-.4-.2-.6-.2c-.4,0-.6-.2-1-.2-.6,0-1,0-1.4-.2h-.4l-.8-.2h-.8c-.2,0-.6-.4-.8-.4-.4,0-.6-.2-1-.2h-1.6l-5.9-.4h2.6c-1.4-.2-2.6-.4-3.8-.4H19.9c-1.4,0-2.6.2-4.1.2s-4.3-.2-7.3,0c-1.4.2-2.8.4-3.7.6-.4.2-.6.6-.6.6,0,.3.1.5.4.6.8.4,2,.8,3,1.2,2.8,1.8,5.3,4.9,5.3,12v67.6c0,4.5-.2,8.9-.2,13.4,0,11.6.8,23.1-.2,34.7-.4,5.1-3.2,6.9-5.5,8.1-.6.2-1,.4-1.8.6-.4.2-.6.4-.8.6-.2,0-.4.2-.4.2l.2.4s.2.4.8.6c1,.2,2,.2,2.6.2,15.6,0,31.2.2,46.9.2h.8c.4-.2.8-.2,1-.2h.8c2,0,4.5-.4,6.7-.4.4-.4.6-.4,1-.4h.2c.4-.2.8-.2,1-.2.8,0,1.2-.2,1.6-.2.8,0,1.4-.2,2.6-.4,1-.2,1.8-.6,2.8-.8,14-3.4,25.4-10.8,34.3-22.5.4-.6,1.4-2,2.6-3.9,1-1.6,2-3,2.2-3.4,1.8-4.7,3.9-8.5,5.3-13.2.2-.4.2-.6.4-1,0-.4.2-.8.4-1.4,0-.8.2-1.6.4-2.4,0-1,.4-2,.6-3,.4-2.2,1-4.3,1.2-6.3,0-2.2.4-4.5.4-6.7v-4.3c0-1,.2-2.6.2-3.9s-.2-2.6-.4-3.9c-.2-1.4-.4-3.6-.4-5.1h0ZM112,82.7s0,.8-.2,2.2c0,.8-.2,1.4-.2,2.2s0,1-.2,1.6v1.2c-.2.4-.2.6-.2.8-.4,1.4-.6,3.2-.8,4.7-.4,2.4-2.2,8.1-3,10.4-3.6,9.7-7.9,15.8-15.2,23.1-.4.4-1.4,1.2-2.2,2-.4.6-.8.8-1.2,1.2-.4.2-.8.4-1.2.6-5.1,4.9-20.1,10.8-26.8,10.9-.2,0-.4.2-.8.2s-.6.2-.8.2h-.8c-3,0-6.3.4-9.1.4-6.3,0-12.8-.2-19.1-.2s-9.5-5.5-9.5-11.8.2-4.7.2-6.7V12.9c0-3.2,2.2-4.7,4.3-5.1,1-.2,1.8-.2,3-.2h19.7c2.8,0,5.7.6,8.1.6h.6c.4-.2,1,0,1.4.2,1.2,0,2.6.2,3.8.4,1.2.4,2.8,1,3.8,1.2,10.5,1.8,22.9,9.9,30.2,17.8,1.2,1.2,2.2,2.8,3.2,4.3,1,1.6,1.8,2.8,2.6,4.5,2.2,2.8,3.6,6.1,4.9,9.3.4,1,.8,2.4,1.2,3.6s.8,2.4,1.2,3.2c0,.2.2.6.6,1,0,.6.2,1,.2,1.4s.2.6.2,1c0-.2-.4-.2.4,1.6v.2c.2.2.2.6.2.8.2.2.2.6.2,1.2l-.2-.4.2,1.4.4,1v2c.2,1,.2,2.4.4,3.6.2,3,.6,6.1.6,7.5,0,2.2-.2,4.9-.2,7.3h0Z"/>
    <path class="st0" d="M213.9,129s-.2.2-.4.2c0,.2-.2.2-.2.4-.4.4-.8,1-1,1.4-.4.6-.8,1.4-1.2,1.8-.4.6-.8,1-1.2,1.2-3.5,3.9-10.8,8.3-16.2,8.3h-.2c-.2.2-.4.4-.8.4s-.6-.2-1-.2c-2.4,0-5.5.6-8.3.6h-5.1c-1.8,0-3.4,0-5.1.2h-9.1l.4-.4-1.6.2h-19.3c-2.6,0-6.1-.2-8.3-2.8-1.6-1.6-2-5.3-2.4-8.7-.2-3.4-.2-6.9-.2-8.7s.2-4.3.2-6.3-.4-4.3-.4-6.1v-16.2c0-6.1.2-12.2.2-18.1v-5.9h13.4c7.1,0,14.2.2,21.3.2s3.4.2,5.1.2h.6s.2,0,.4.2h.4c4.9,0,9.5,1.4,13.6,3.2.6.4,1.2.6,2,1,.6.2,1.2.2,1.6.2,1,0,2.2-.8,2.8-2.8s.6-4.3.6-5.9-.6-3.6-1.8-4.3c-.3,0-.5,0-.6-.2-1.4,0-2.6.6-4.5,1.2-.8.2-1.8.6-2.8,1-.4,0-.6.2-.8.2s-.4.4-.6.4c-.4,0-1,.2-1.4.2l-.8.2h-.4l-.8.2c-.6,0-1.2.2-1.8.2-.6.2-1,.2-1.4.2-.4.2-.8.2-1.2.2h-.6c0,.2-.2.2-.2.2h-.8c-1.2,0-2.4.2-3.9.2-2.6,0-5.7.2-8.5.2h-26.8c-.2,0-.6,0-1-.2h-.2l-.6-.2-.2-.6c0-.4-.2-1.2-.2-1.6,0-7.9.2-16.2.2-24.3s.2-6.1.2-9.1.4-7.5.4-10.9-.2-.8-.2-1.2l-1.2,2.6,1.4-4.5v-.4c0-3.7,2.6-8.5,7.3-8.5h41.6c1.6,0,3.4.4,5.1.4,7.3,0,14,2.2,19.7,6.7.6.4,1.2,1,1.6,1.4.4.6.8,1.4,1.2,1.8.4.6,1,1,1.4,1.2.4.4.6.4.8.4,1,0,2.4-1.2,2.4-3s-.6-3-.6-4.5c-.6-1.4-.8-2.8-1.4-3.8-.4-1-1-1.8-2.6-2.6h-.2c-.2-.2-.4-.2-.6-.2-.2-.2-.4-.2-.6-.4h-1.6c-.4-.2-.8-.2-1.2-.2h-81.4s-.6.4-.6,1.2.2,1.2.4,2.2c.2.4.4.8.4,1.2.2.4.2,1.2.2,1.8.4.6.4,1.6.6,2.8.2,1.2.2,2.6.4,4.5v7.7c0,4.3.4,8.3.4,12.4,0,8.3-.2,16.8-.2,25.2s-.2,2.4-.2,3.4v44c0,6.7.6,15.6,0,22.1,0,.4-.2,1-.2,1.6-.2.4-.2.8-.2,1,0,.4,0,.6-.2,1,0,.6,0,1.2-.2,1.4v.4c0,1.2-.4,2.6-.8,3.6-.2.6-.4,1-.4,1.4-.4.6-.4.8-.4,1,0,.4,0,.6.4.6v.2l.2.2c.1,0,.3,0,.4.2.2,0,.2.2.4.2h18.9c3.2,0,6.7.2,9.9.2h54c3.5,0,4.9-1.2,5.9-3.2.4-1,.8-2,1.4-3.6.2-1.2.6-2.8,1-4.1s.4-2.4.4-3-.2-2-.6-2.6c-.2-.8-.8-1.2-1.4-1.2h0Z"/>
    <path class="st0" d="M222.3,128.8c0,2.8-.4,7.5-1.2,10.4-.2.4-.6,1.6-.8,2.6-.2.6-.4,1-.4,1.6-.2.4-.2.8-.4,1.4,0,.2.2.2.2.4s0,.4.2.6c.2.6.4.8.6.8,1,.4,7.1.4,13.4.4h28.6c6.7-.2,12.8-.4,13.8-.6l.2-.4h.4c.8.4,3-.2,5.7-.8,2.2-.6,4.5-1.2,5.5-1.4,13.6-4.1,21.9-12,27-25.4,1.4-3,2.4-7.7,2.4-10.9s-.2-5.1-.2-7.5,0-.3-.2-.4v-.8c0-.1,0-.3-.2-.4v-1.2c0-.2-.2-.2-.2-.2v-1.2c-.2-.4-.4-1-.6-1.6-.2-.6-.4-1.4-.8-2.4-.6-1.6-1-3.4-1.4-4.5-4.9-9.1-12-13.8-21.7-17.2-.8-.4-1.6-.4-2.4-.6-1.2-.2-2-.4-3-.6-1.6-.6-4.1-1.4-5.7-1.4h-2.6l1.8-1.8c.2,0,.4-.2.8-.4.2,0,.4-.4.8-.4.8-.4,1.6-.6,2.4-1,1.8-.6,3.6-1.2,4.3-1.6,10.5-4.9,16.6-15.4,16.6-26.6s-4.7-19.3-12.6-23.9c-.8-.4-1.4-1-2-1.4-.8-.2-1.4-.6-2.2-.8-2.4-1-5.3-2-8.1-2.6-.6-.2-1.4-.2-1.8-.4-.6,0-1.2-.2-1.6-.4h-.8c-.4,0-.8,0-1-.2-.4,0-.6,0-1-.2h-1.4c-.6,0-1,0-1.4-.2h-2.2c-.6-.2-1.4-.2-2-.2h-45.9c0,.2-.2.4-.4.4,0,.2-.2.2-.2.2l-.2.2c-.2.2-.4.4-.4,1.2,0,0,.2.4.2,1.2.2.6.4,1.2.6,1.8.4,1.6.8,3.2,1,4.5.4,4.3,1.4,8.5,1.4,12.8,0,28,.2,56,.2,84s-.4,9.1-.4,13.4-.4,2.6-.4,4.1h0ZM230.8,12.5c0-1,0-2,1.2-3.8l.8-.2h29.2c.4,0,.4.2.6.2h4.3c1.2,0,2.6.4,3.9.4l.6.2h1c.2,0,.2.2.4.2h.4s.2.2.4.2h.8l.4.2h.2c.2.2.4.2.8.2.6.2,1.2.8,2,1,1.6.4,3.5,1,4.1,1.4,9.5,4.7,15,13.4,15,23.9s-5.3,20.1-16,25.1c-1,.6-2.4,1-3.6,1.2-1,.4-2.2.6-3.2,1.2-2.8,1.2-11,2-14,2h-8.1c-1.8,0-3.6.2-5.3.2h-14c-.6,0-1-.2-1.4-.8,0-.1,0-.3-.2-.4l-.2-.8V12.5h0ZM230.6,141.1v-6.9c0-3.9.2-7.5.2-11.2v-33.7c0-5.9.2-11.8.2-17.6v-.4l.2-.6c.4-.2.8-.4,1.4-.6h33.9c5.3,0,16.6,1.4,21.7,3.4,13,5.9,21.1,16,21.1,30.8s-1.2,12.4-4.5,19.5c-.4.6-.6,1-1,1.8s-.4.8-.6,1.4l-.2.2-.2.2c-.4.4-1.2,1-1.6,1.8-.2.4-.6.8-.8,1-.2.4-.6,1-.8,1.4-1.8,1.4-3.6,3-5.7,4.3-2.6,1.8-9.1,4.9-12.2,5.3l-3.2.6-.2.2h-.6c-.4,0-1.8,0-3.9.2-1.8.2-3.6.4-4.5.4-3.9.6-7.7-.2-11.6,0-3.6.2-7.3.2-11,.2h-13c-.2,0-.2-.2-.4-.2h-.6l-.8.2-1.4-1.4v-.4h0Z"/>
    <path class="st0" d="M433.5,58.2v.2l.2.2-.2-.4h0Z"/>
    <path class="st0" d="M429.9,107.7c.6-2,1.6-5.1,2.6-7.7.8-3,1.4-5.9,1.6-8.9l.2-.2c0-.6,0-1,.2-1.6.2-1,.2-2.4.4-4.1.2-3,.2-5.9.2-7.1v-6.7c0-1.4-.2-2.6-.2-3.6s0-1-.2-1.2l-.2-.4v-1.6c-.2-.4-.2-.8-.2-1.2v-.4l-.2-.6v-.6c0-.4-.2-.6-.2-.8s0-.4-.2-.8v-.6s0-.2-.2-.4v.6l-1.2-6.7c-1-4.1-2-8.1-3.6-11.8-.4-.8-.8-1.6-1.2-2.4s-.8-1.8-1-2.8c-.4-.2-.8-.6-1-1-.2-.4-.4-1-.8-1.4-.2-.8-.4-1.2-.6-1.8-.2-.4-.4-.6-.6-1-1.2-1.8-2.2-3.7-3.6-5.3-2-2.8-4.5-5.3-7.1-7.5-1-1-2-2.2-3.5-3.2-6.3-5.7-14.4-8.9-22.9-10.8-1-.2-1.8-.4-2.8-.6-1.2-.2-2-.2-3-.2h-7.7c-.6.2-1,.2-1.4.2-1,0-1.6.2-2.2.2-2.2,0-4.9,1-7.3,1.8-2,.8-4.1,1.4-6.3,2.2-1.8,1-3.6,1.8-5.5,2.8-1,.8-1.8,1.4-3,2.2,0,0-.4.2-1,.8-.6.4-1.2.8-1.8,1.2-1.2,1.2-2.4,2.4-3,3-9.1,8.3-18,23.9-19.9,36.1-.2,1.4-.8,3-1.2,5.1-.4,1.8-.6,3.4-.6,4.5,0,2-.6,4.5-.6,6.5s-.4,5.1-.4,7.5.4,2.8.4,4.1v2.4s0,.2.2.4v1c.2.8.2,1.8.2,2,0,.8.2,1.4.2,2v.2c.2.8.4,2,.4,2.4v.4c-.4-.2-.6-.6.2,1.2v.4c0,.4.2,1.2.2,1.8.4,1.4.8,3,1.2,4.9,1,3.4,2.2,7.1,2.8,8.3,4.7,13.8,16,28,29,34.5,2.4,1.4,4.9,2.4,7.3,3.4.8.2,2,.4,3.2.6.6,0,1.2.2,1.8.4.2,0,.8.2,1.2.4.4,0,.6,0,.8.4.6,0,1.4.2,2,.2,1.6.2,3.2.4,3.6.4,6.5,0,12.4-.4,18.7-2.2,17-4.7,32.5-22.5,37.9-39.4h0ZM384,146.6c-.1,0-.3,0-.6.2-.4,0-.6,0-.8.2h-1l-.6.2h-1.2c-.6.2-1,.2-1.6.2-14.6,0-24.8-6.9-33.5-17.9-1.4-2.2-3.5-4.7-4.5-7.3-.8-1.6-1.6-3.2-2.4-4.7-.8-1.6-1.6-3.4-2.2-5.1-.4-1.8-1.4-3.4-2-4.9-.2-1.2-1-4.1-1.6-7.1-.6-2.6-1.2-5.9-1.2-6.9s0-.6-.2-1v-.6c0,.2.2.2.2.2l-.4-.8c-.2-1.6-.4-3.2-.4-4.7v-.8l-.2-.8c0-1.8-.2-3.6-.2-5.3,0-3.2.2-6.3.2-9.3s.4-3.9.4-5.9v-.6c0-.4,0-.8.2-1.2.2-1.2.2-3,.6-4.7,0-1.4.2-2.4.4-3.2,0-.4.2-.8.2-1.2.2,0,.2-.4.2-.6.2-1.8.8-4.3,1.4-6.1.6-2.4,1.4-4.5,2-6.3.4-1.8,1.2-3.4,2-5.3.6-1.4,1.6-3.2,2.2-4.7,5.7-12.4,19.3-25.2,34.1-25.8h.2c.4-.2.8-.2,1.2-.2,1.6,0,3.5.2,4.9.2,11.4,0,21.9,8.5,28.2,16.4,3.2,4.1,5.5,8.7,7.7,13,.4.6.6,1.4,1,2,.4,1,.6,1.8,1,2.4,0,.6.6,2.2,1.2,3.8.2.8.4,1.6.6,2.2s.2.8.2,1c.2.4.2.8.2,1,2.6,6.1,4.1,19.1,4.1,25.1s.2,6.9.2,10.1,0,.8-.2,1v.6c-.1.1-.2.3-.2.4,0,1.6-.4,3.2-.4,4.9s0,.2.2.2c0,.6-.2,1-.4,1.6,0,1,0,1.8-.2,2.4-.2.4-.2,1-.2,1.6-.2.4-.2.6-.6,2.2,0,.4-.2,1-.2,1.8s-.2.6-.2,1c-.2,0-.2.2-.2.2,0,.6-.2,1.4-.2,2-.2,1-.8,2-1,2.8-.6,2.2-1.4,4.1-1.6,5.1-4.3,13.2-12.6,25.4-25,32.5-1,.6-2.6,1.4-4.3,2.4-2,.6-4.1,1.4-5.5,1.4h0Z"/>
    <path class="st0" d="M573.8,145.6c-1-.2-2-.4-2.6-.4-5.7-1.2-9.5-7.7-9.5-13.2s.8-4.5,1.4-6.7c.8-2.2,1.8-4.3,2.6-6.1,7.5-18.7,25.4-25.4,42.6-29.4,2.8-.6,5.7-1.6,8.5-2.4,4.5-1,9.7-2.2,14.2-4.1.2-.2.8-.4,1.4-.8.4-.2.6-.2,1-.4.2,0,1-.2,1.4-.2,1.4,0,2.2.6,3.2,1.4.2.2.4.6.6,1s.2.8.4,1c2.4,4.7,3.8,9.9,5.9,14.8,2,4.1,3.4,8.5,4.9,12.8,1,2,1.6,4.1,2.2,6.1.4.8.8,2,1.4,3.1.4,1,1,2.2,1.4,3.4.2.6.4,1.4.6,2.4.2.8.4,1.6.4,2.8,0,3.9-.8,8.7-5.1,11.6-1.4.6-2.4,1.2-3.7,1.8-.8.4-2,1-3,1.4l-.2.2c.2.6.4.8,1,.8,12.6,0,25.6-.2,38.1-.2s.6,0,1.2-.2c.2,0,.4,0,.4-.2v-.2h-.8c-1-.2-2.2-.6-3-.8s-1.6-.4-2.4-.8c-2-1-3.5-2-5.3-3.9-2.4-2.2-4.7-5.5-6.3-8.5-2.2-4.1-3.4-8.9-5.5-13-1.2-2.6-2.2-5.5-3-8.3-.4-.2-.6-.6-.8-.8-.2-.4-.4-1-.6-1.4-.4-1.8-.8-3-1.4-4.7-1.6-3.2-2.6-6.5-3.8-9.9-2.6-6.3-5.1-12.8-7.7-19.3-.4-1-1.6-4.3-3-7.5-1.2-3.2-2.2-5.9-2.4-6.3l-.4-1v.2c0-.2-.4-.4-.4-.8-.4-.6-.6-1.6-1-2.8-1-2.2-2-5.3-3.5-8.5-2.4-6.3-5.1-12.8-5.5-14.2-2-4.5-3.4-9.5-5.5-14-.6-1-1-2-1.2-3-.2-1-.6-1.8-.8-2.4l-1.8-3.8c-1.6-3.1-3.9-5.1-6.9-5.1s-5.3,2-6.9,4.7c-.2.6-.4,1-.6,1.6s-.6,1.2-.8,1.8c-.4,1-1,2.6-1.8,3.9-.4,1.2-1,2.6-1.2,3.4-.8,2.6-1.8,5.7-3,7.9-1,2.4-2.6,5.9-3.2,8.3-.6.6-.8,1.4-1,2.4-.2.8-.6,1.6-1,2.4-.8,1.4-3,7.3-3.7,9.1-.2.4-1,2.4-1.8,4.1-.4,1-.6,1.8-1.2,2.6-.2.2-.4.6-.4,1,0,0-.2,0-.2.2-.4,1.6-2,6.1-2.4,6.9-2,3.6-3.7,7.9-5.3,11.8-1.4,3.9-3.2,7.9-4.9,11.8,0,.2-.8,2-1.4,3.9-.4.8-.6,1.8-1,2.4,0,.4-.4.8-.4,1-.2.6-.6,1.2-.8,1.8,0,.2-.2.4-.4.6,0,.1,0,.3-.2.4-.8,3.1-2,5.9-3.4,8.7-1.4,4.1-4.3,11.6-7.5,18.5-2.1,5.2-4.7,11.2-8.8,15.1-1.2,1.1-4.5-.8-5.7-1.4-2.1-1.1-4-2.5-5.5-4.4-2-2.2-3.5-4.7-5.3-7.1-1.4-2.2-3-4.7-4.7-6.9-5.7-8.1-11-16.4-16.6-24.5-2.4-3.1-4.3-6.3-6.5-9.5-2-3.2-4.3-6.5-6.9-9.3l-.8-1,1.2-.4c.8-.2,1.2-.2,1.8-.4.6,0,1-.2,1.6-.4h.4c.6,0,2.4-.4,2.4-.4l.2-.2h.4c16.4-2.2,29.8-17,29.8-33.9s-9.3-27-23.7-32.9c-.8-.4-5.7-2-6.5-2,0,0-.4,0-1-.4h-1.6c-.2-.2-.6-.2-1-.4-.8-.2-1.4-.2-2-.2-1.2,0-2-.2-2.8-.2s-2.2-.2-3.2-.2c-2,0-4.1-.2-5.9-.2s-1.6.2-2.4.2h-46.7c-.4.2-.6.4-.6,1.2s.2,1,.6,1.6c.2.4.4.6.6,1,.4.2.6.6,1,.8,1.4,1.8,2.8,3.7,2.8,7.5v114.4c0,3.6-1.8,6.5-3.6,8.5-.8,1-1.4,1.8-2,2.8-.6.8-1,1.2-1,1.4,0,.6,0,.8.4,1h.2c.1.1.3.2.4.2,0,.2.2.2.4.4h19.9s.2,0,.4-.6c.2-.4.2-1,.2-1.4v-.2c-.2-.2-.4-.6-.8-.8-.6-1-1.6-1.8-2.4-3.1-1.8-2.2-3.9-5.5-3.9-9.3v-50.1c0-.8,0-1.6-.2-2.6l-.2-1h27.6c3,0,6.1.2,8.9.2h1.8l.2.2c2.2,2.6,4.1,5.5,6.1,8.1,1.8,3.1,3.5,5.9,5.3,8.7,1.4,2,3.2,4.5,4.5,6.9,2,3.1,4,5.5,5.9,8.5,4.9,7.5,9.7,15,14.8,22.7,2,2.4,4,5.1,5.9,7.7,1.6,2.4,4.9,4.4,8.2,5.6,1.8.6,3.5.9,5,.9s1.7,0,2.7,0h26.8c.1,0,.3,0,.4-.2h.8l.2-.2c.4-.2.8-.2,1-.2-.2,0-.2-.2-.4-.2s-.6-.2-1-.2h0ZM572,98.3c1.6-3.2,2.6-6.9,4-10.1,3-7.3,6.1-14.4,9.1-21.5,1.2-2.6,2.2-5.9,3.4-8.3,1.2-2.4,2.4-5.1,3.5-7.7.2-.8.6-1.6,1-2.6.6-.6.8-1.2,1-2,.8-2.2,1.6-4.5,2.6-6.5.2-.4.4-.8.6-1.6.4-.6.6-1.2.8-1.6.8-2.4,2.4-6.5,4.3-10.6,1.4-4.1,3-7.9,4.3-9.5.2-.2.4-.4.6-1,.2-.2.4-.6.8-1l1-.8,1.2.6c.4.2.8.6,1,.8s.4.6.4,1c.4.6.8,1.2,1.2,2,.6,1.8,1.8,3.8,2.6,6.3,1.6,4.3,3.5,9.1,3.9,10.5,3,7.7,6.7,15.2,9.1,22.9,0,.1,0,.4.2.8.2.2.4.6.4.8,1,1.8,2,4.5,3,7.3,1.2,2.6,2.2,5.5,2.8,7.3.2.8.2,1.6.2,2.4,0,1.4-1,2.4-1.8,2.8-.8.6-1.8,1-2.8,1.6-2.2,1-5.3,1.8-8.3,2.6-6.1,1.8-12.2,3-13.8,3.4-4.3,1.2-8.7,2.2-13,3.6-4.5,1.4-8.5,3-12.4,5.3-2,1-4,2.4-5.9,3.9-.2,0-.6.4-1,.6-.2.2-.4.4-.6.4-.4.6-1,.8-1.2.8-.5,0-1.1-.2-1.8-.6l-1.4-.8.8-1.6h0ZM488.1,72.4c-8.5,0-17,.2-25.6.2h-13V9.5h32.3c3,0,6.1,0,9.1.2,1.4,0,3,.4,4.3.4h.8c.4,0,.6,0,1,.2,2.2-.2,6.7,1.2,8.1,1.8,10.5,4.3,15.4,9.3,19.1,20.7.4,1.4,1.4,5.3,1.4,7.1,0,7.7-2,17.2-8.3,22.7-1,.6-1.8,1.2-2.6,2-.8.6-2,1.2-2.8,1.6-2.8,2-6.9,3.6-10.2,4.3-2.2.4-4.7.8-6.7,1.4-2.4.2-4.5.4-6.9.4h0Z"/>
    <path class="st0" d="M780.9,143.8c13.6-4.1,21.9-12,27-25.4,1.4-3,2.4-7.7,2.4-10.9s-.2-5.1-.2-7.5c0-.1,0-.3-.2-.4v-.8c0-.1,0-.3-.2-.4v-1.2c0-.2-.2-.2-.2-.2v-1.2c-.2-.4-.4-1-.6-1.6s-.4-1.4-.8-2.4c-.6-1.6-1-3.4-1.4-4.5-4.9-9.1-12-13.8-21.7-17.2-.8-.4-1.6-.4-2.4-.6-1.2-.2-2-.4-3-.6-1.6-.6-4.1-1.4-5.7-1.4h-2.6l1.8-1.8c.2,0,.4-.2.8-.4.2,0,.4-.4.8-.4.8-.4,1.6-.6,2.4-1,1.8-.6,3.7-1.2,4.3-1.6,10.5-4.9,16.6-15.4,16.6-26.6s-4.7-19.3-12.6-23.9c-.8-.4-1.4-1-2-1.4-.8-.2-1.4-.6-2.2-.8-2.4-1-5.3-2-8.1-2.6-.6-.2-1.4-.2-1.8-.4-.6,0-1.2-.2-1.6-.4h-.8c-.4,0-.8,0-1-.2-.4,0-.6,0-1-.2h-1.4c-.6,0-1,0-1.4-.2h-2.2c-.6-.2-1.4-.2-2-.2h-45.8c0,.2-.2.4-.4.4,0,.2-.2.2-.2.2l-.2.2c-.2.2-.4.4-.4,1.2,0,0,.2.4.2,1.2.2.6.4,1.2.6,1.8.4,1.6.8,3.2,1,4.5.4,4.3,1.4,8.5,1.4,12.8,0,28,.2,56,.2,84s-.4,9.1-.4,13.4-.4,2.6-.4,4.1c0,2.8-.4,7.5-1.2,10.4-.2.4-.6,1.6-.8,2.6-.2.6-.4,1-.4,1.6-.2.4-.2.8-.4,1.4,0,.2.2.2.2.4s0,.4.2.6c.2.6.4.8.6.8,1,.4,7.1.4,13.4.4h28.6c6.7-.2,12.8-.4,13.8-.6l.2-.4h.4c.8.4,3-.2,5.7-.8,2.2-.6,4.5-1.2,5.5-1.4h0ZM723.7,12.5c0-1,0-2,1.2-3.8l.8-.2h29.2c.4,0,.4.2.6.2h4.3c1.2,0,2.6.4,3.8.4l.6.2h1c.2,0,.2.2.4.2h.4s.2.2.4.2h.8l.4.2h.2c.2.2.4.2.8.2.6.2,1.2.8,2,1,1.6.4,3.5,1,4.1,1.4,9.5,4.7,15,13.4,15,23.9s-5.3,20.1-16,25.1c-1,.6-2.4,1-3.7,1.2-1,.4-2.2.6-3.2,1.2-2.8,1.2-11,2-14,2h-8.1c-1.8,0-3.7.2-5.3.2h-14c-.6,0-1-.2-1.4-.8,0-.1,0-.3-.2-.4l-.2-.8V12.5h0ZM771.4,141.9l-.2.2h-.6c-.4,0-1.8,0-3.8.2-1.8.2-3.7.4-4.5.4-3.8.6-7.7-.2-11.6,0-3.7.2-7.3.2-11,.2h-13c-.2,0-.2-.2-.4-.2h-.6l-.8.2-1.4-1.4v-7.3c0-3.9.2-7.5.2-11.2v-33.7c0-5.9.2-11.8.2-17.6v-.4l.2-.6c.4-.2.8-.4,1.4-.6h33.9c5.3,0,16.6,1.4,21.7,3.4,13,5.9,21.1,16,21.1,30.8s-1.2,12.4-4.5,19.5c-.4.6-.6,1-1,1.8s-.4.8-.6,1.4l-.2.2-.2.2c-.4.4-1.2,1-1.6,1.8s-.6.8-.8,1c-.2.4-.6,1-.8,1.4-1.8,1.4-3.7,3-5.7,4.3-2.6,1.8-9.1,4.9-12.2,5.3l-3.2.6h0Z"/>
    <path class="st0" d="M877.7,146.2c6.3,0,14.2-2,16.6-8.5.4-1.2.8-2,1.2-3,.6-1.2,1.2-2.2,1.6-3.6.6-1,.8-2.4.8-3.4,0,0,0-.2-.2-.2,0-.2-.2-.4-.2-.4-.4-.6-.6-.8-.8-1-1.4.2-2.8,1.6-4.7,3.2-.8,1-1.6,2-2.4,3-.6.8-1.4,1.4-2.2,2-6.3,5.1-14.4,7.1-22.5,7.1h-39.2l-.2-.2-.2-.2c-.2,0-.4-.2-.6-.2l-.2-.2v-.2c0-40.8-.2-81.8-.2-122.3s-.8-8.5-5.1-10.9c-1-.6-4.1-1.8-5.3-1.8s-2.8-.2-5.1-.2c-1,.2-1.8.2-2.4.4-1,.2-1.2.6-1.2.8,0,.4.2.8,1.2,1.4.8.6,1.8,1,3,1.8,2.2,1.6,4.9,3.8,5.9,7.9.2.6.2,1.2.4,2,.2.6.2,1.4.2,2v24.3c0,3.4.2,6.7.2,9.9v52.5c0,4.9-.2,9.9-.2,14.8s-.4,5.1-.4,7.5c0,5.7-2.6,8.9-5.3,11.2-1.4,1-2.6,1.8-3.7,2.4-.6.2-.8.4-1.2,1-.2.2-.2.4-.2.4,0,.4.8,1,1.6,1,7.5,0,14.8-1.2,22.5-1.2,16,0,32,.8,48.3.8h0Z"/>
    <path class="st0" d="M1034,145c-.8-.2-1.6-.4-2.4-.8-2-1-3.4-2-5.3-3.9-2.4-2.2-4.7-5.5-6.3-8.5-2.2-4.1-3.4-8.9-5.5-13-1.2-2.6-2.2-5.5-3-8.3-.4-.2-.6-.6-.8-.8-.2-.4-.4-1-.6-1.4-.4-1.8-.8-3-1.4-4.7-1.6-3.2-2.6-6.5-3.8-9.9-2.6-6.3-5.1-12.8-7.7-19.3-.4-1-1.6-4.3-3-7.5-1.2-3.2-2.2-5.9-2.4-6.3l-.4-1v.2c0-.2-.4-.4-.4-.8-.4-.6-.6-1.6-1-2.8-1-2.2-2-5.3-3.4-8.5-2.4-6.3-5.1-12.8-5.5-14.2-2-4.5-3.4-9.5-5.5-14-.6-1-1-2-1.2-3-.2-1-.6-1.8-.8-2.4l-1.8-3.8c-1.6-3-3.8-5.1-6.9-5.1s-5.3,2-6.9,4.7c-.2.6-.4,1-.6,1.6s-.6,1.2-.8,1.8c-.4,1-1,2.6-1.8,3.8-.4,1.2-1,2.6-1.2,3.4-.8,2.6-1.8,5.7-3,7.9-1,2.4-2.6,5.9-3.2,8.3-.6.6-.8,1.4-1,2.4-.2.8-.6,1.6-1,2.4-.8,1.4-3,7.3-3.7,9.1-.2.4-1,2.4-1.8,4.1-.4,1-.6,1.8-1.2,2.6-.2.2-.4.6-.4,1,0,0-.2,0-.2.2-.4,1.6-2,6.1-2.4,6.9-2,3.6-3.7,7.9-5.3,11.8-1.4,3.9-3.2,7.9-4.9,11.8,0,.2-.8,2-1.4,3.9-.4.8-.6,1.8-1,2.4,0,.4-.4.8-.4,1-.2.6-.6,1.2-.8,1.8,0,.2-.2.4-.4.6,0,.1,0,.3-.2.4-.8,3-2,5.9-3.5,8.7-1.4,4.1-4.3,11.6-7.5,18.5-2.8,6.9-6.7,14-10.8,16.6-1.6,1-3,1.6-4.5,2-1.4.4-2.6.6-4.1.8,0,.2-.2.2-.2.4v.2h.4c.1.1.3.2.4.2h34.7c.1,0,.3,0,.4-.2h.8l.2-.2c.4-.2.8-.2,1-.2-.2,0-.2-.2-.4-.2s-.6-.2-1-.2c-1-.2-2-.4-2.6-.4-5.7-1.2-9.5-7.7-9.5-13.2s.8-4.5,1.4-6.7c.8-2.2,1.8-4.3,2.6-6.1,7.5-18.7,25.4-25.4,42.6-29.4,2.8-.6,5.7-1.6,8.5-2.4,4.5-1,9.7-2.2,14.2-4.1.2-.2.8-.4,1.4-.8.4-.2.6-.2,1-.4.2,0,1-.2,1.4-.2,1.4,0,2.2.6,3.2,1.4.2.2.4.6.6,1,.2.4.2.8.4,1,2.4,4.7,3.8,9.9,5.9,14.8,2,4.1,3.4,8.5,4.9,12.8,1,2,1.6,4.1,2.2,6.1.4.8.8,2,1.4,3,.4,1,1,2.2,1.4,3.4.2.6.4,1.4.6,2.4.2.8.4,1.6.4,2.8,0,3.9-.8,8.7-5.1,11.6-1.4.6-2.4,1.2-3.7,1.8-.8.4-2,1-3,1.4l-.2.2c.2.6.4.8,1,.8,12.6,0,25.6-.2,38.1-.2s.6,0,1.2-.2c.2,0,.4,0,.4-.2v-.2h-.8c-1-.2-2.2-.6-3-.8h0ZM986.6,79.1c-.8.6-1.8,1-2.8,1.6-2.2,1-5.3,1.8-8.3,2.6-6.1,1.8-12.2,3-13.8,3.4-4.3,1.2-8.7,2.2-13,3.6-4.5,1.4-8.5,3-12.4,5.3-2,1-4.1,2.4-5.9,3.9-.2,0-.6.4-1,.6-.2.2-.4.4-.6.4-.4.6-1,.8-1.2.8-.5,0-1.2-.2-1.8-.6l-1.4-.8.8-1.6c1.6-3.2,2.6-6.9,4.1-10.1,3-7.3,6.1-14.4,9.1-21.5,1.2-2.6,2.2-5.9,3.5-8.3,1.2-2.4,2.4-5.1,3.5-7.7.2-.8.6-1.6,1-2.6.6-.6.8-1.2,1-2,.8-2.2,1.6-4.5,2.6-6.5.2-.4.4-.8.6-1.6.4-.6.6-1.2.8-1.6.8-2.4,2.4-6.5,4.3-10.6,1.4-4.1,3-7.9,4.3-9.5.2-.2.4-.4.6-1,.2-.2.4-.6.8-1l1-.8,1.2.6c.4.2.8.6,1,.8s.4.6.4,1c.4.6.8,1.2,1.2,2,.6,1.8,1.8,3.8,2.6,6.3,1.6,4.3,3.4,9.1,3.8,10.6,3,7.7,6.7,15.2,9.1,22.9,0,.1,0,.4.2.8.2.2.4.6.4.8,1,1.8,2,4.5,3,7.3,1.2,2.6,2.2,5.5,2.8,7.3.2.8.2,1.6.2,2.4,0,1.4-1,2.4-1.8,2.8h0Z"/>
    <path class="st0" d="M1103.3,83.3c-.8-.4-1.4-1-1.8-1.4-1.4-1.2-2.8-2.2-4.5-3.2-1.4-.8-3-1.8-4.5-2.8-.4-.2-1.4-.6-2.4-1.2s-2.2-1.2-3.4-1.6c-1.4-.6-2.4-1.2-3.2-1.8-.8-.2-1.2-.4-1.4-.6s-.4-.2-.6-.4c-1-.2-3.2-1.2-5.1-1.8-2.4-.8-4.5-2-5.5-2.4-2.4-1-4.9-2-7.3-2.6-1.8-.6-3.7-1.2-5.1-2.2-1.6-.6-3.2-1.4-4.7-2.2-9.5-4.3-14.4-7.1-19.1-17.7-1-1.4-1.6-3.7-1.6-5.7v-4.9c0-.6,0-1,.2-1.8,0-.2,0-.4.2-.6v-.6c0-.2.2-.4.2-.8.4-2.6,1.8-5.1,3-7.1,1.6-2.4,3-4.3,5.1-6.5,5.3-4.9,15.2-7.7,21.9-7.7s12,.8,16,3.2c.2.4.8.4,1,.6.4,0,.8.2,1.4.4,1,.4,1.8,1,2.4,1.2,3.2,2.4,7.1,6.1,9.3,9.5,1.4,2.2,3.2,5.3,4.5,7.9.4,1.4.8,3.7,1.6,5.9.6.8,1,1.6,1.4,2.6.4.6.6,1,.8,1,.6.4,1.2.4,1.6.4.6,0,1-.2,1.2-1,.4-1,.6-2.2.6-3.4v-.2c-.2-.2-.2-.4-.2-.6v-.6c-.2-.4-.2-.6-.2-.8,0-.4,0-.6-.2-.6-.4-1.6-.8-3.4-1.2-5.1-.4-1.4-1.2-3-1.8-4.7-5.7-11.4-21.1-18.1-33.9-18.1h-6.3c-.8-.2-1.6,0-2.6.2-1.2.2-2.4.6-3.4.6-.4.2-.6.2-1,.2-.2.2-.8.2-1.2.2-.8,0-6.3,1.6-8.1,2.4-6.9,3.2-13,8.1-16.4,15-1,1.4-1.4,3.2-2.2,5.1,0,0,0,.2-.2.4,0,.4-.2,1-.4,1.4,0,.8-.2,1.4-.6,1.8v1c0,.2,0,.6-.2,1,0,.8-.2,1.8-.2,2.6,0,9.7,2.6,14.2,8.5,21.9.4.4,1,.8,1.6,1.2.4.4.6.6,1,1,.2.2.4.4.6.6.8.2,1,.6,1.2.8,6.1,3.9,14.4,8.5,20.7,10.4,1,.6,2,1,2.8,1.4.6.2,1.6.6,2.2.8,6.9,2.4,17.7,6.7,23.9,10.6,4.7,3,10.8,7.9,14,12.6.2.6.4,1,.8,1.6.2.2.6.6.8,1l.4,1.6v-.2c0,.2.2.2.2.4s.2.4.4.6c.6,2.4,1.2,4.7,1.6,7.1.2,1,.4,1.8.4,2.8,0,2-.4,4.3-.4,6.1v.6c0,.2,0,.6-.4,1-.2,2.4-1.2,5.3-2,6.9-3.8,7.3-7.1,10.6-14.2,14.6-.6.2-1.4.6-1.8.8-.6.2-1,.6-1.4.8l-.6.2h-.4l-.2.2c-.4,0-.8.2-1.2.4-1,.2-2,.6-2.4.8-3.7,1.2-7.9,1.4-11.6,1.4s-3-.2-4.7-.2h-1.6c-.4,0-1-.2-1.2-.2s-.4,0-.6-.2h-1c-.8-.2-1.6-.6-2.2-.8-1.6-.2-3.2-.8-3.7-1-16.2-6.5-22.5-14.4-27.4-31.2-.6-2.6-.8-5.7-1.8-8.3,0-.2-.4-.8-.8-1.8-.2-.2-.6-.4-.8-.6-2,0-2.6,1-3,1.8-.6,1-.6,2.8-.6,5.1s.2,2,.2,2.8c0,10.6,6.5,22.7,15.2,28.4,1.6,1.2,3.2,2,4.9,2.6,1.4,1,3.2,1.8,4.9,2.8,1,.4,3,1,5.5,1.6,1.2.2,2.2.4,3,.6.6.4,1,.6,1.4.6,0,0,.2.2.4.2h.4c.4,0,.8.2,1.2.2s.8.2,1,.2h.6l1.6.4c-.2,0-.2-.2-.2-.2h.6c.6.2,1,.2,1.2.2,1.8,0,3.8.2,5.5.2s4.5-.4,6.3-.4c3.8,0,8.7-1.4,12.6-2.8,14.8-5.1,25.8-14.8,27.2-30.6.2-.2.2-.8.4-1.2v-.6c0-10.8-2-20.3-9.5-28.2-.4-.4-.8-1-1.4-1.4h0Z"/>
    <path class="st0" d="M1233.3,67.7c0-.4,0-1-.2-1.2l-.2-.4v-1.6c-.2-.4-.2-.8-.2-1.2v-.4l-.2-.6v-.6c0-.4-.2-.6-.2-.8s0-.4-.2-.8v-.6s0-.2-.2-.4v.6l-1.2-6.7c-1-4.1-2-8.1-3.7-11.8-.4-.8-.8-1.6-1.2-2.4-.4-.8-.8-1.8-1-2.8-.4-.2-.8-.6-1-1-.2-.4-.4-1-.8-1.4-.2-.8-.4-1.2-.6-1.8-.2-.4-.4-.6-.6-1-1.2-1.8-2.2-3.7-3.7-5.3-2-2.8-4.5-5.3-7.1-7.5-1-1-2-2.2-3.4-3.2-6.3-5.7-14.4-8.9-22.9-10.8-1-.2-1.8-.4-2.8-.6-1.2-.2-2-.2-3-.2h-7.7c-.6.2-1,.2-1.4.2-1,0-1.6.2-2.2.2-2.2,0-4.9,1-7.3,1.8-2,.8-4.1,1.4-6.3,2.2-1.8,1-3.7,1.8-5.5,2.8-1,.8-1.8,1.4-3,2.2,0,0-.4.2-1,.8-.6.4-1.2.8-1.8,1.2-1.2,1.2-2.4,2.4-3,3-9.1,8.3-18.1,23.9-19.9,36.1-.2,1.4-.8,3-1.2,5.1-.4,1.8-.6,3.4-.6,4.5,0,2-.6,4.5-.6,6.5s-.4,5.1-.4,7.5.4,2.8.4,4.1v2.4s0,.2.2.4v1c.2.8.2,1.8.2,2,0,.8.2,1.4.2,2v.2c.2.8.4,2,.4,2.4v.4c-.4-.2-.6-.6.2,1.2v.4c0,.4.2,1.2.2,1.8.4,1.4.8,3,1.2,4.9,1,3.4,2.2,7.1,2.8,8.3,4.7,13.8,16,28,29,34.5,2.4,1.4,4.9,2.4,7.3,3.4.8.2,2,.4,3.2.6.6,0,1.2.2,1.8.4.2,0,.8.2,1.2.4.4,0,.6,0,.8.4.6,0,1.4.2,2,.2,1.6.2,3.2.4,3.7.4,6.5,0,12.4-.4,18.7-2.2,17-4.7,32.5-22.5,37.9-39.4.6-2,1.6-5.1,2.6-7.7.8-3,1.4-5.9,1.6-8.9l.2-.2c0-.6,0-1,.2-1.6.2-1,.2-2.4.4-4.1.2-3,.2-5.9.2-7.1v-6.7c0-1.4-.2-2.6-.2-3.6h0ZM1222.4,83.3v.6c-.1.1-.2.3-.2.4,0,1.6-.4,3.2-.4,4.9s0,.2.2.2c0,.6-.2,1-.4,1.6,0,1,0,1.8-.2,2.4-.2.4-.2,1-.2,1.6-.2.4-.2.6-.6,2.2,0,.4-.2,1-.2,1.8s-.2.6-.2,1c-.2,0-.2.2-.2.2,0,.6-.2,1.4-.2,2-.2,1-.8,2-1,2.8-.6,2.2-1.4,4.1-1.6,5.1-4.3,13.2-12.6,25.4-24.9,32.5-1,.6-2.6,1.4-4.3,2.4-2,.6-4.1,1.4-5.5,1.4s-.3,0-.6.2c-.4,0-.6,0-.8.2h-1l-.6.2h-1.2c-.6.2-1,.2-1.6.2-14.6,0-24.8-6.9-33.5-17.9-1.4-2.2-3.4-4.7-4.5-7.3-.8-1.6-1.6-3.2-2.4-4.7-.8-1.6-1.6-3.4-2.2-5.1-.4-1.8-1.4-3.4-2-4.9-.2-1.2-1-4.1-1.6-7.1-.6-2.6-1.2-5.9-1.2-6.9s0-.6-.2-1v-.6c0,.2.2.2.2.2l-.4-.8c-.2-1.6-.4-3.2-.4-4.7v-.8l-.2-.8c0-1.8-.2-3.6-.2-5.3,0-3.2.2-6.3.2-9.3s.4-3.9.4-5.9v-.6c0-.4,0-.8.2-1.2.2-1.2.2-3,.6-4.7,0-1.4.2-2.4.4-3.2,0-.4.2-.8.2-1.2.2,0,.2-.4.2-.6.2-1.8.8-4.3,1.4-6.1.6-2.4,1.4-4.5,2-6.3.4-1.8,1.2-3.4,2-5.3.6-1.4,1.6-3.2,2.2-4.7,5.7-12.4,19.3-25.2,34.1-25.8h.2c.4-.2.8-.2,1.2-.2,1.6,0,3.4.2,4.9.2,11.4,0,21.9,8.5,28.2,16.4,3.2,4.1,5.5,8.7,7.7,13,.4.6.6,1.4,1,2,.4,1,.6,1.8,1,2.4,0,.6.6,2.2,1.2,3.8.2.8.4,1.6.6,2.2s.2.8.2,1c.2.4.2.8.2,1,2.6,6.1,4.1,19.1,4.1,25.1s.2,6.9.2,10.1,0,.8-.2,1h0Z"/>
    <path class="st0" d="M1231.9,58.2v.2l.2.2-.2-.4h0Z"/>
  </g>
  <g>
    <path class="st0" d="M668.4,230.1c0,0-1.2,0-1.5,0-.3,0-1.3.4-1.4.4-.2.1-1.1.4-1.3.4-.3,0-1.4.4-1.7.5-.2.1-1,.4-1,.5,0,0-.6.3-.7.4-.2.1-.9.4-1,.5l-.6.2h-.2c0,.1-.5-.1-.6-.2l-.4-.3c-.4.1-1-.1-1-.5l-.3-.2c-.2,0-1.2-.4-1.4-.4l-1.1-.5c-.2,0-1.2-.4-1.4-.5-.3,0-1.5-.3-1.8-.4-.4,0-1.5-.3-1.7-.3-.2,0-1-.2-1.3-.2-.2,0-.8,0-.9,0,0,0-.5,0-.7,0l-1.4-.2c-.7,0-1.5.1-2.2.2,0,.1-.5,0-.6,0s-.7-.1-.7-.1c-.2,0-.7,0-.8,0,0,0-.8.2-1.1.2-.2.1-1,.2-1.2.1,0,0-.7,0-.9,0,0,.1-2,.5-2.1.5-.2.1-1,.2-1.2.2,0,0-.6.1-.7.2,0,0-2.8.7-2.9.7-.3,0-.4.1-.5.3l-1.5.5c-.2,0-.4.1-.8.2-.3.1-1.2.2-1.2.3,0,0-.3.3-.4.3,0,0-.9.3-1.1.5l-1.8.7c0-.4,0-1.3,0-1.5.2-.5.2-1,.1-1.5,0-.1,0-.7,0-.9-.1-.2,0-1,0-1.2,0,0,0-.9-.2-1.1,0-.3-.2-.9-.2-1v-.2c-.1-.2-.2-.4-.3-.8-.3-.7-.5-2-.6-2.8,0,0-.3-.5-.3-.7,0,0-.3-.7-.4-.8,0-.2-.2-.7-.3-.8,0,0-.3-.6-.3-.8,0,0-.2-.7-.2-.8,0,0-.4-.7-.5-.9-.1-.3-.8-1.4-.9-1.5l-.5-.6c0-.4-.8-1.5-1.1-1.7,0,0-.6-.5-.7-.6-.1-.2-.6-.9-.8-.9-.1-.2-.7-.6-.8-.7,0,0,.3-.6.5-.8l.9-.6c0-.2.3-.4.6-.7.2-.1.9-.9,1.1-1,.2-.2,1.2-1,1.4-1.2.2-.2.3-.4.3-.6l.4-.2c0-.1.7-.4.8-.5,0,0,.5-.3.6-.4,0-.1.7-.4.8-.4.2-.1.9-.5,1-.6,0,0,1-.4,1.1-.5.2-.1.9-.3,1-.4,0-.1.6-.4.8-.5,0,0,.9-.3,1.1-.4h.6c.4-.2,1.5-.6,1.5-1.1,0,0-.8-.3-.9-.3-.7,0-2.1.3-2.8.6-.3,0-1.4.5-1.6.6-.3.1-1.2.5-1.4.6l-.7.2c-.3.2-.9.8-1.1,1.1h-.4c-.4,0-1.4.5-1.7.8,0,.1-.7.5-.9.6,0,0-.9.5-1,.6-.2.2-.8.5-.9.6-.2,0-.5.2-.6.3,0,.1-.6.7-.8.8-.2.2-.9.8-1.1,1l-.6.4c-.2-.3-.8-.4-1.2-.4,0-.5-1.8-1.5-2.1-1.5,0,0-.7-.2-.8-.3s-.7-.3-.8-.3c-.2,0-.8-.3-.8-.3-.2,0-.9-.4-1.1-.5-.2,0-1.1-.5-1.3-.5-.5-.1-1.7-.5-2.2-.5,0,0-.7-.2-.8-.3-.2,0-1.1-.2-1.3-.3-.2,0-1.9-.3-2.1-.4,0,0-.7-.1-.8-.2-.2,0-.6,0-.7,0,0,.1-.6,0-.8,0-.2,0-.9-.1-1.1-.2-.2,0-.8,0-.9,0-.2,0-.6,0-.7,0s-.6,0-.8,0c-.2,0-.8.2-1,.3-.5,0-.9,0-1.3.1,0,0-.5-.1-.6,0,0,0-1,.2-1.3.2-.2,0-1.1.3-1.2.3-.2.1-.7.1-.9.2,0,0-.5,0-.6.1-.2.1-.6.1-.8.2,0,0-.6,0-.7.1-.2,0-.7.2-.9.2-.2.3-2,.8-2.4.8-.2,0-1.3.3-1.7.4-.3.1-1.4.6-1.7.7-.3,0-1.3.6-1.6.8-.2,0-.9.3-1,.5,0,0-.4.3-.5.4,0,.1-.6.2-.8.2-.3,0-.8.3-.9.4,0,0-.7.3-1,.5-.3.1-1.2.6-1.4.8-.3,0-2.1,1.5-2.3,1.7-.5.2-1.2.6-1.7,1-.2.2-.8.7-.8.7,0,.3-.8,1-1.1,1,0,0-.6.2-.8.4,0,.1-1.5,1.7-1.6,1.7,0,.1-.5.5-.6.6,0,.1-.8.6-.8.8-.2.2-.5.9-.6,1,0,.1-.4.4-.5.5,0,0-.7.6-.8.9,0,.2-.1.5-.2.6-.6.4-1,.9-1.1,1.2-.4.4-.6,1-.8,1.3l-1.9,3c-.2.3-.5.8-.5,1.2,0,.1-.1.5-.2.6,0,0-.2.6-.2.7,0,.1-.2.7-.3.8l-.7,2.2s0,1.1,0,1.2c0,.1-.1.6-.1.8,0,0,0,1.1,0,1.4l-.2,1.1c0,0,0,.6,0,.8,0,0,0,.8,0,1l-.2,1.2c0,.2,0,.8,0,.9,0,0,.2.6.2.7.1.2,0,.7,0,.8,0,0,0,.6,0,.7,0,0,.2.5.3.6.1.2.4.9.5,1.1.1.2.4,1.2.4,1.4,0,.3.3,1.3.4,1.5.1.3.6,1.1.7,1.3,0,.2.5.9.5,1,0,0,.8.9.8,1.1,0,0,.3.5.4.6,0,0,.6.6.7.8.2,0,.9.9,1,1.1.2.2,1.1,1.1,1.3,1.2.3.2,1.2.8,1.2.9.2,0,.8.4.9.5.2,0,2,1.1,2.1,1.2.3.2,1.2.7,1.3.7l.7.2c0,0,.6.1.7.1,0,0,.6.2.7.3s.6.2.6.1c0,0,.7,0,.9.1,0,0,.7.1.7.2,0,0,.7.2.8.3,0,0,.7,0,.7,0,0,0,.9.3,1.2.4.3,0,.5,0,.7,0h.6c.2,0,.3.3.2.5-.2.2-.6.8-.7.9,0,0-.5.6-.6.8,0,.3-.7,1-.9,1.2-.2.2-.3.5-.3.7l-1.4.8c0,0-.6.8-.7.9-.2.2-.3.3-.5.4l-.5.6c-.2.2-.8.8-1,.8,0,0-.8.4-.9.5l-1.3,1c-.2,0-.5,0-.7-.2-.3,0-1.3-.3-1.5-.2,0,0-.5-.1-.7-.2,0,0-.5-.1-.7-.2l-.7-.2s-2.4-.4-2.7-.3c-.2,0-.4-.2-.8-.3-.3,0-1.3,0-1.4,0,0,0-.5-.1-.7-.2-.2,0-.8-.1-1-.1h-.6s-.6,0-.6,0c-.2,0-.8,0-.9,0l-1.3-.3c-.3,0-1.3,0-1.5,0,0,.1-.6.2-.8.2,0,0-.6,0-.7,0,0,0-.7,0-.8,0l-1.2.3c-.2,0-.9.2-1,.4-.2.1-.7.3-.9.3,0,0-.6.3-.7.4l-.5.5s-.5.6-.7.8c-.2.2-.6.9-.7,1,0,0,0,.7,0,.9l.2.5c0,.2,0,.4,0,.5.1.2.9.6,1,.8.2,0,.8.5,1,.6,0,0,.6.4.7.4,0,0,.7.2,1,.3.4,0,2.2.2,2.5.4.2,0,.8.1.9.1.2,0,.7,0,.8,0,.4,0,1.2-.1,1.5,0,.2,0,.9.1,1,.1,0,0,.5,0,.5,0s.5,0,.6,0c.2,0,1,0,1.3,0,.3,0,1.1-.2,1.2-.2h.3s.3-.1.3-.1c0,0,.7,0,.9,0,.2,0,.9-.2,1.1-.2,0-.1.8-.3,1-.4s1.2-.4,1.4-.5c.2-.1,1.2-.4,1.4-.4.2-.1,1.2-.5,1.5-.7.2-.1.7-.6.8-.6,0,0,.7-.2.9-.2.2-.1,1-.5,1.1-.6,0-.1.6-.2.7-.2,0,0,.7.3.8.3,0,0,.8.1,1,.1,0,0,.7.1.8.2,0,0,.9.4,1.1.5.3,0,.9.2,1,.3,0,0,1,.1,1.4.2s1.6.1,1.7.1h.6s1.8,0,1.8,0c.1.2.3.2.6.2.3,0,1.3-.1,1.4-.1,0,0,.8,0,1,0,0,0,.7,0,.8,0,0,0,.6,0,.8,0,0,0,.8,0,.9,0,.2,0,.8-.2.9-.2s.6,0,.7,0c.2,0,.5,0,.6-.1,0,0,.6,0,.8,0,0,0,.7,0,.7,0,0,0,.6-.1.8-.2,0,0,.6-.3.7-.3.3,0,1.6-.3,1.8-.4.2,0,.9-.2,1-.3,0-.1.7-.3.8-.4.2,0,.7-.3.8-.3l1.1-.4c0,0,.6-.3.7-.3,0,0,0,0,.2-.1v.5c.2.2.5.8.6.9,0,0,1.1,1.1,1.1,1.2,0,0,.6.7.8.8l.6.5c.3,0,.6.2.9.3.3.2,1.2.3,1.3.3.5.4.8.6,1.4.5.2-.1.7-.1.8-.2,0,0,.7.1.7.1,0,0,.7-.1.9-.2.2-.1.9-.2,1-.3h.8c0,0,.9-.3,1.1-.4,0,0,2.8-1.2,3-1.3.2-.1.9-.3,1-.4.2-.1.6-.3.8-.3,0-.1.4-.4.5-.5,0-.1.6-.4.7-.5s1.7-.6,1.8-.6l.2-.2c.5-.5,1.1-1,1.2-1.3.3-.2.5-.3.7-.4.4-.2,2.3-1.9,2.6-2.3.3-.1.4-.2.5-.2.3-.1,1-.6,1-.9l.4-.3c.2-.1.7-.5.8-.6,0-.1.7-.8.8-1l1.3-1.6c.2,0,1.8-1.7,1.9-2,0-.2,0-.5,0-.7l.8-.5c.2-.2,1-1.1,1.1-1.2,0-.2.7-1.1.9-1.4,0-.2.2-.3.1-.5.3-.6.6-.9,1-1.1.3-.8.5-1.6.5-1.8.2-.3.4-.6.6-.8,0-.2.5-1.3.6-1.5.2-.3.5-1,.5-1.1,0,0,0-.5.1-.6v-.4c0,0,.7-1.4.7-1.4,0-.1.3-.7.3-.8l.2-.6c0-.3.1-.6.1-.8,0-.3.3-1.5.4-1.8,0-.4.3-1.7.4-1.9,0-.4,0-1.5,0-1.6,0-1.2-.5-2-1.8-1.9-.4.1-1.3.6-1.1.9v.5c-.3.6-.2,2.1-.2,2.6,0,0,.1.6.2.8,0,0-.2.7-.3.8,0,.2-.1.6-.2.7,0,0,0,.6,0,.8,0,.1-.2.6-.3.8,0,0-.1.5-.2.6,0,0-.1.5-.1.7,0,.1-.2.6-.2.7,0,.2-.1.7-.2.9,0,.2-.2.9-.2,1.1,0,.1-.2.7-.3.9,0,0-.4.6-.5.7-.2.1-.4.6-.5.7,0,0-.2.7-.4.9,0,.2-.4,1.2-.5,1.4s-.4,1.2-.6,1.4c0,.2-.6,1.1-.8,1.3,0,.2-.2.5-.5.7l-.2.2c0,0-.2.4-.2.5,0,0-.2.6-.3.8s-.5.6-.6.7c0,0-.6.6-.7.8-.2.1-.7.9-.9,1.1l-1.5,1.6c-.3.3-.6.5-.8.8,0,.2-.8,1-1,1.1-.2.2-.8.7-.9.7,0,.1-.7.4-.8.5-.2.1-.7.7-.8.8,0,.1-.6.6-.7.7,0,0-.6.4-.8.4,0,.1-.9.6-1.1.8-.2.2-1.1.7-1.4.8-.2.1-.7.6-.7.7,0,0-.6.4-.8.5-.3,0-1.1.5-1.3.6-.2.1-1.2.4-1.5.5-.3.1-.4.2-.6.2l-.5.2c-.2,0-.8.4-1,.4,0,.1-1,.4-1.2.3-.3,0-1.2.2-1.3.2-.2,0-.6,0-.6,0,0,0-.8-.3-1.1-.4-.2,0-.9-.2-1-.2,0,0-.5,0-.7-.1-.2,0-1.1-.8-1.4-1.1-.3-.3-1.2-1.6-1.3-1.9,0-.2-.3-.9-.4-1h0c.5-.3,1.2-.7,1.4-.9.2,0,1-.4,1.1-.5l1-.4c0,0,.4-.3.4-.4.2-.3,1-1.1,1.5-1.1,0-.1.6-.4.8-.5,0-.1.5-.3.6-.3,0-.1.4-.2.4-.3,0-.1.4-.5.5-.6,0-.1.4-.6.6-.7.3,0,1.2-.5,1.4-.7,0-.2.4-.7.4-.8.2-.2,1.8-1.5,2-1.6.2-.2.8-.7.8-.7,0-.1.5-.5.6-.6s.5-.9.6-1c.2-.2.3-.3.4-.3.2-.4.4-.6.6-.8.3-.1.9-.9,1.1-1.1s.2-.4.4-.5l.3-.8c.4-.7,1.2-1.2,1.7-2l.2-.2c0,0,.3-.4.4-.5,0-.1.5-.9.6-1l.8-1.3c.2-.2.5-.9.6-1l.4-.8c0-.1.5-.9.5-1s1-2.6,1.1-2.8c.3-.4,1-2.1,1-2.6,0-.1.3-.7.3-.8l.3-1.1c0-.3.3-1.3.5-1.6,0-.1.3-.9.3-1.2,0-.3,0-1.3.2-1.5v-.4c.3-.1.7-.2.9-.2.3,0,1.2-.5,1.4-.6s1-.5,1.3-.6c.2-.1,1.2-.5,1.5-.7.2-.2,1.1-.5,1.4-.4.2,0,1-.2,1.1-.2.2-.1.9-.4,1-.5.2-.1,1-.3,1.2-.3.2,0,.9-.2,1.1-.3,0,0,.7-.2.8-.2.2,0,.8,0,1,0,0,0,.6-.1.7-.1,0,0,.5-.1.7-.1,0,0,.9-.2,1.2-.3.2-.1,1.1-.2,1.2-.1.6,0,1.2-.1,1.8-.1l.7-.2c0,0,.5,0,.6,0,0,0,.6,0,.8,0,.2-.1.9,0,1.1,0,.3,0,1.3.2,1.5.1.3,0,1.2-.1,1.3-.1.2,0,.7,0,.8,0l.9.3c.2,0,1.3.4,1.6.3.3,0,.5,0,.7.1h.4c.2.2.7.4.8.4s.5.1.7.2c0,0,.7.4.8.5.2,0,.8.4.9.4s1.2.4,1.6.7c.3.2.7.9.5,1s-.8.6-.8.7c0,.1-.6.6-.8.7,0,.1-.6.4-.7.4,0,0-1.5,1.1-1.5,1.2-.2,0-.5.3-.5.4,0,.1-.4.5-.5.6-.2.1-.7.5-.8.6,0,0-.8.6-.9.7l-.7.6c-.3.3-.5.5-.9.9l-.6.6c-.2.2-.9.9-1,1.1-.2.1-.7.7-.7.9,0,.1-.4.5-.5.6,0,0-.8.6-.9.8s-.2.4-.3.5l-.2.3c0,.1-.5.5-.7.5,0,.1-.7.7-.8.8,0,.2-.5.8-.5.9,0,.2-.4.7-.5.8,0,0-.8.7-.9,1l-.5.7c0,0-.2.2-.4.4-.2.2-.9.9-1.2,1.1-.2.2-.7.8-.7.9s-.3.7-.3.8c0,0-.4.7-.5.8,0,.1-.6.6-.7.7,0,.1-.6.7-.7.9-.2.1-.8.7-.8.9,0,.2-.5,1.1-.7,1.2-.2.4-1.4,2.4-1.7,2.7-.2.1-.8,1-1,1.2s-.7,1.1-.9,1.2l-1.8,2.5c-.2.2-.5.8-.6.9,0,0-.3.6-.3.8,0,.1-.4.5-.5.6,0,0-.2.4-.3.5s-.5.9-.5,1.2c-.2.2-1,1-1.2,1.1-.2.2-.7,1.1-.8,1.2,0,.2-.5,1-.7,1.1-.2.2-.5,1.1-.7,1.3-.2.2-.9,1.1-1.1,1.3,0,.3-.7,1.2-.8,1.4-.2.2-.8,1.1-.9,1.2,0,.2-.5.8-.6.9,0,0-.2.4-.3.6,0,0-.3.5-.5.6,0,.1-.5.6-.6.8,0,0-.5.8-.6,1,0,.1-.6.8-.7,1l-.3.8c0,.1-.5.6-.6.8-.2.2-.6.7-.7.8,0,.1-.3.5-.4.6,0,.2-.6,1.2-.9,1.5l-.5.8c-.2.2-1.8,2.2-1.9,2.4,0,.1-.8.8-.9,1-.2.2-1,1-1.2,1.2l-.9,1.2c-.2.1-.6.6-.7.6,0,0-.4.4-.5.5-.2.2-.6.7-.7.8,0,.2-.5.7-.7.8-.2.2-1,.7-1.3.8-.3.1-1,.7-1.1.8-.2.2-.8.7-1,.7-.2.1-.8.4-.9.5l-.2.3c-.2.3-.8.5-1.2.7l-1.6.9c0,0-.6.3-.7.4s-.9.4-1,.5c-.3,0-1.2.4-1.3.4-.2.1-1.1.5-1.4.6-.3,0-.4.1-.6.2h-.6c-.2.2-.8.3-.9.3s-.8.2-1.1.2-1.1,0-1.3.1h-.3c0,.1-.4.1-.4.1-.2,0-1,0-1.2.1h-1.6c-.3-.2-1.1-.3-1.2-.4,0,0-.5-.1-.5-.1-.3,0-1.4,0-1.5-.1,0,0-.7-.2-.8-.2l-2.1-1.3c-.6-.4-.8-.9-1-1.1-.3-.3-.6-.6-.7-.8-.2-.2-.5-1-.6-1-.1-.2-.4-.5-.4-.6l-.8-1.4c0-.2-.2-.8-.3-1,0-.2-.3-1-.3-1.2,0-.2-.2-1-.2-1.1,0-.2,0-.8,0-1,0,0,0-1,0-1.2,0-.2,0-1,.2-1.1,0-.6.4-1.8.8-2.2,0-.2.4-1,.4-1.2l.6-1.6c0-.3.4-.9.5-.9,0-.1.4-.3.5-.4,0-.1.7-.8.7-1.1.2-.2,1.1-.9,1.3-1.1l.6-.5c.5,0,.9-.5,1-.7.5-.2,1-.7,1.3-.7l.4-.2c0,0,.8-.2.9-.2l1.2-.3c.2,0,1,0,1.2-.1.3,0,1,0,1.1,0,0-.1.9-.2,1.1-.4.2-.2.2-.5.2-.7,0-.3-.2-.4-.4-.6s-1.5-.1-1.8-.1c-.2,0-1.1.2-1.2.3-.7,0-1.2.4-1.8.7-.2.2-1,.6-1.3.6-.2.1-.9.4-1,.5-.2.1-.5.3-.6.3,0,.1-1,.4-1.2.5-.2.1-.2.2-.3.4l-.2.3c0,.1-.4.5-.5.5,0,.1-.5.3-.6.4,0,0-.7.6-.8.7l-.7.9c0,.1-.4.7-.5.8,0,.3-.6,1-.9,1.3,0,.2-.3.7-.3.8,0,.1-.4.6-.5.8,0,0-.2.6-.3.6,0,.1-.2.6-.3.8,0,.2-.2,1.1-.3,1.3,0,.3-.3,1.2-.3,1.5,0,.2,0,1,0,1.2,0,.2,0,.7,0,.8,0,0,0,.5,0,.5,0,0,0,.5,0,.7,0,0,0,.7,0,.8,0,0,.2.6.2.7,0,.2.2.8.3,1,0,.2.5,1,.5,1.2.1.2.4.8.3.9,0,0,.2.4.3.5,0,0,.5.5.6.6,0,0,.4.8.5.9.2.3,1.2,1,1.5,1.1.2.2,1.2.7,1.3.8.3,0,1.3.4,1.4.5.2,0,1.1.5,1.3.6l1.3.5c0,0,1,.2,1.2.2.3,0,.9,0,.9.1,0,0,.5.1.7.2.2,0,.6,0,.7,0,0,0,.5,0,.6,0,0,0,.7,0,.9,0,0-.1.8,0,1.1,0,.2,0,.8.1,1,0,0,0,.5-.1.6,0,0,0,.5,0,.5,0,.2-.1.6-.1.7-.1,0,0,.5,0,.6,0,0,0,.7-.2,1-.3.2,0,1-.3,1.2-.3l1.1-.3c.5,0,1.3-.3,1.8-.5,0-.1.8-.4,1-.5.3-.1,1-.5,1.2-.5.3-.1.9-.3,1.1-.4,0,0,.4-.2.5-.3,0-.1.9-.2,1.2-.4.3-.1,1-.9,1.2-1,.2-.1,1.1-.5,1.4-.7.3-.1,1.4-.7,1.7-.8.2-.1.8-.7,1-.8,0-.1.6-.5.7-.6,0,0,.7-.3.8-.4.2-.1.7-.4.8-.4,0-.1.3-.4.4-.5,0-.1.5-.6.6-.6,0-.1.6-.5.6-.5,0-.1.6-.6.8-.8,0-.1.6-.7.7-.8s.5-.4.7-.5c0,0,.7-.6.7-.9.2-.2.7-.9.8-1,.2-.1.6-.4.7-.5,0,0,.7-.5.8-.7.2-.1.7-1,.8-1.1,0-.2.6-1,.8-1.2,0-.2.5-.8.5-.8,0-.1.3-.5.4-.5,0,0,.4-.5.5-.6,0-.1.6-.7.7-.9,0-.1.5-.8.5-.9,0-.1.9-1,1.1-1.3.2-.3.7-1.4.9-1.6l1.1-1.5.3-.3c.5-.6.8-1.2,1.1-1.9,0-.2.5-1,.7-1.2.2-.1.6-.8.6-.9,0-.1.3-.5.4-.6,0-.1.5-.9.6-1.1.2-.2.8-.8.9-1s.4-.9.5-.9c.3-.1,1-1.4,1-1.7l.5-.6c0-.5.7-1,.8-1.6,0-.2.5-.9.8-1l.4-.7c0-.3,1.3-1.8,1.5-2.1,0-.2.4-.8.5-.9.2-.1.5-.8.6-1,0-.2.7-1,.9-1.2.2-.2.5-1,.5-1.1,0,0,.3-.5.4-.5,0-.1.4-.4.5-.5,0-.1.3-.6.3-.7,0,0,.5-.9.6-1.1.2-.2.6-1,.6-1,0,0,.3-.4.4-.5s.6-.6.7-.7c.2-.1.5-.8.6-1,0-.1.4-.8.6-1l.7-1c.2-.1.7-.7.8-.8,0-.1.3-.4.3-.5,0,0,.1-.5.2-.6l.5-.5c0-.1.7-.9.8-1.1,0-.2.8-1.1,1-1.2.2-.2.8-.9.9-1,0-.1.6-1,.6-1.1,0-.2.6-.8.7-.8,0-.1.4-.4.4-.5,0-.2.4-.6.5-.7s.5-.5.6-.6l.5-.7s.6-.6.7-.8l1.1-1.2c0-.2.8-.8,1-.9,0-.1.6-.5.7-.6,0-.1.6-.8.7-1,.2-.3,1.9-1.8,2.3-1.8.2-.1.8,0,.9.1,0,.2.6.9.7,1,.2.2.8,1,.9,1.3.2.4.7,2.7.7,3.4.1.2.2.7.2.8s0,.5,0,.5c0,0,.1.6.2.8,0,.1-.1.8,0,1,0,0-.1.9-.2,1.1,0,.2-.2,1.4-.3,1.8,0,.3-.2,1.3-.2,1.4,0,0-.2.6-.2.6,0,.1-.2,1-.3,1.2-.2.3-.2.5-.4.5v.5c-.1.2-.7,1.2-.8,1.5l-.6,1c-.2.2-.2.9-.7,1,0,.2-.1.5-.2.7-.6.7-1.3,1.9-1.7,2.8,0,.2-.7,1-.7,1.1l-1.2,1.5h-.3c0,.2-.3.6-.5.7,0,.1-.4.4-.5.4,0,0-.6.6-.8.7-.2.2-.8.9-.9,1,0,.2-.5.6-.6.7-.2,0-.7.6-.8.7,0,.2-.7.6-.8.6-.2,0-.7.3-.9.4,0,0-.9.3-1.1.5-.2,0-1.1,0-1.2,0-.2,0-.8-.3-.9-.4-.2,0-1-.1-1.3-.2-.2,0-1.1,0-1.3,0-.2-.2-2.6-.2-2.8-.2-.3,0-1-.1-1.1-.2,0,0-.8,0-1.1.2-.2,0-1.7.7-1.9,1-.4.3-1.3,1.6-1.3,1.8v.6c0,.2,0,.5.2.7.1.3,1.1.8,1.3.9.4.1.7.2.8.2h.7c.2.2.7.2.8,0,0,0,.5,0,.5,0,.2,0,.9,0,1.2-.1l.8-.2c0-.3.9-.2,1.3-.5l.9-.2c.3,0,1.4-.4,1.6-.5.3-.1,1.2-.6,1.4-.8.8,0,1.3-.1,2,.5.1.2.7,1,.8,1.4.1.2.4,1.4.5,1.6.3.8.4,1.2.4,2v1.3c.1.3,0,1.1,0,1.3l-.3.9c0,.9-.2,1.5-.5,2.2,0,0,.1.4,0,.6,0,.2-.6,1.4-.8,1.7l-.3.9-.7,1.6c-.2.3-1.4,2.3-1.4,2.7,0,.1-.5.6-.7.6,0,.1-.5.7-.6.9,0,.2-.6.9-.7,1l-.8.9c0,.1-.7.8-.7.9-.2.2-.7.7-.8.8,0,0-.6.5-.7.6,0,.1-.4.5-.5.6l-.7.6c-.3.2-1.7,1.3-2,1.6,0,0-.5.3-.7.4,0,0-1.5,1-1.5,1.1-.2,0-.7.3-.9.4,0,.1-.8.5-.9.6,0,0-1,.5-1.3.6-.3,0-1.1.5-1.2.5s-.5.3-.6.3c-.2,0-.8.2-1,.3-.2.1-.6.2-.7.2,0,.1-.6.1-.9.2-.2,0-.8.2-.8.2,0,0-.8,0-1,0l-.8-.2c-.4.1-1.3,0-1.5-.1-.6,0-1.1-.2-1.5-.5l-.6-.8c-.7-.6-1.2-1.7-1.3-2.6-.1-.3-.7-1.5-1-1.6-.3-.2-1.7.1-1.9.3-.2.2-.2,1.6-.2,1.7l.2.7c.1.4.6,1.1,1.3,1.5.3.2.5,1,.9,1.2l.8.4c.3,0,1.4.5,1.7.6.3.2.6.1.8.1h.4c0,.2.7.3.8.3.2-.1.8,0,.9,0,0,0,.6,0,.8,0,0,0,.6,0,.8,0,0,0,.7,0,.9,0,0,0,1-.2,1.2-.3.2,0,1-.2,1.1,0,0,0,.5,0,.6,0,.6,0,1.2-.2,1.7-.4.3-.1.4-.2.7-.2h.4c0-.1.7-.3.9-.3,0-.1.9-.4,1.1-.5.2-.1,1.2-.5,1.5-.8.2-.1.8-.2.8-.2,0,0,.6-.3.8-.4.2,0,.9-.5.9-.6.2-.1.8-.4.9-.4,0-.1.8-.5,1-.7.2-.2,1.1-1,1.3-1.2.3-.1,1.1-.6,1.4-.8.2-.1.9-.6,1-.8s.6-.7.7-.8.5-.7.6-.8c.2-.2.6-.7.8-.8,0-.1.5-.7.6-.9,0-.1.5-.7.7-.8,0-.1.8-.8.8-1,.2-.2.3-.4.5-.5.1-.5.4-.9.6-1.3l.4-.8c0-.2.7-1.4.9-1.7,0-.3.4-1.2.4-1.4,0,0,.2-.9.3-1.1,0-.2.2-.8.3-.8v-.3c.2-.2.3-1.1.5-1.8v-.5c.2-.2.3-.8.3-.9s-.2-.7-.2-1c0-.2-.2-.9-.2-1.1,0-.1-.2-1.1-.3-1.4,0-.4,0-.5-.2-.7,0-.5-.2-.9-.4-1.2-.2-.2-.9-1.3-1-1.5,0-.2-.5-1-.6-1.2-.3-.2-1.1-1.1-1.3-1.2-.2-.2-.3-.7,0-.7.2-.1,1.1-.7,1.4-.8s.5-.2.7-.5c.2,0,.9-.2,1.1-.5l.2-.3c0-.1.6-.4.7-.4.2-.1,1-.6,1.3-.7.3-.2.5-.3.8-.4.3-.2,1-.6,1-.9l.2-.3c0,0,.4-.4.6-.4,0-.1.7-.6.8-.7l.6-.5c.3-.2,1.2-1.5,1.1-1.6,0-.1.3-.5.5-.6,0-.1.7-.7.8-.8,0-.1.4-.7.5-.8,0-.2,1-1.7,1.2-1.9,0-.2.4-.8.4-.9,0-.3.6-1.9.7-2,0-.1.3-.6.3-.7l.2-.4s0-.2.1-.5c0-.2.2-1.4.3-1.7.2-.3.4-1.3.5-1.5,0-.2,0-1.3,0-1.5,0-.3,0-.5.1-.6v-.5c0,0,0-.7,0-.9,0,0,0-.6-.2-.7v-.3s-.2-.4-.2-.4c0-.2,0-.6,0-.7,0,0-.1-.6-.2-.8,0,0-.3-.9-.4-1.1-.1-.2-.2-.9-.3-1v-.7c0,0-.6-.9-.7-1.2,0-.2-.7-1.4-.8-1.6-.2-.2-.9-1.1-1-1.3l-.8-.9c0,0,0-.5.2-.6l.8-.4c0,0,.8-.6,1-.7.3-.1,1.4-.6,1.6-.7s1-.5,1-.6c.2,0,.9-.2,1-.4.2,0,.9-.2,1.1-.2.3-.1.9-.2,1-.3,0,0,.3-.1.4-.2,0,0,0-.4-.2-.4v.2ZM563.4,272c-.3.1-1.2.7-1.5.8-.2.1-.8.3-.8.4,0,.1-.5.4-.6.5s-1,.4-1.1.5c-.3.1-1.3.6-1.5.6-.3.1-.4.2-.6.1l-.5.2c-.4,0-1.9.3-2.1.5-.2,0-1,.3-1.2.3h-.5s-1.2,0-1.2,0c-.4,0-1.7,0-1.9.2-.2,0-1.3-.2-1.6-.2-.3-.2-1.6-.4-1.8-.4-.2,0-.4,0-.5-.1l-1.1-.8c0,0-.5-.6-.6-.8-.2-.2-.5-1.2-.3-1.4,0-.3.3-.6.4-.6.2-.5.7-1,1-1.2h.6c.3,0,.9-.3,1.1-.4,0,0,.7-.2.9-.2s.8-.2.9-.2.5,0,.5,0,.5,0,.6,0c0,0,.5,0,.6,0,0,0,.5,0,.5,0,0-.1.5-.2.6-.2,0,0,.5,0,.6,0,.2,0,1,.1,1.2,0s1.1.2,1.3.3c.2,0,.8.2.9.3,0,0,.8.1,1.1.2.2,0,1.4,0,1.6,0,.3,0,1.7.2,1.9.3h1.1c.2.2.4.3.7.5.2.2,1.3.5,1.5.6,0,0,0,.3-.3.4h0ZM573.7,260.6c0,0-.8-.2-.9-.2h-.5c-.2-.2-1.2-.4-1.6-.5h-.3c0,0-.6-.2-.8-.2-.2,0-.9-.4-1.1-.5-.2,0-1-.5-1.2-.6,0,0-1.1-.3-1.3-.4-.3,0-2.4-1.3-2.7-1.6-.1-.2-1-.8-1.2-.9-.2-.2-1.1-.8-1.2-.9,0,0-1.4-1.5-1.6-1.7l-.2-.4c0,0-.4-.5-.4-.6,0,0-.6-.8-.8-1,0-.2-.6-1.2-.8-1.4l-.2-.6-.2-.6c0-.2-.4-1.1-.5-1.4,0-.3-.4-1.3-.5-1.5,0-.2-.2-.8-.3-1,0,0,0-.6,0-.7,0-.2,0-.6,0-.7,0,0,0-.5,0-.6v-.9c0-.5,0-1.1,0-1.6v-.3c-.1-.2,0-.5,0-.7,0-.4-.2-1.3-.1-1.4,0-.2.4-1.3.5-1.6,0-.2.1-.6.1-.7,0-.5.2-1.6.4-2s.6-1.7.7-2c0-.2.2-.5.4-.9,0,0,0-.3,0-.5.2-.3.5-1.4.7-1.6,0-.2.6-1,.7-1.3.2-.2.7-1.2.9-1.4.3-.2.5-.5.7-.7l1.2-1.7.2-.2c0-.1.5-.9.5-1.1.2-.2.8-.6.8-.7l.7-.7c.2-.1.8-.8.9-1,.2-.2.6-.6.7-.7,0,0,.3-.4.4-.5.2-.1.8-.7,1-.8.2-.2.8-.7.9-.8,0-.1.4-.5.4-.5,0-.1.4-.5.5-.5,0-.1.5-.4.6-.4l.2-.3,1.9-1.3c.2-.1.7-.4.7-.5,0,0,.7-.3.8-.3.2-.1.8-.4.9-.4,0-.1.6-.4.7-.4.2,0,.7-.4.8-.5l.4-.3c.3,0,1-.5,1.1-.5h.3c0-.1.5-.3.6-.3,0-.1.6-.2.7-.2,0,0,.5-.1.6-.2,0,0,.5-.3.8-.4.2,0,1.2-.3,1.3-.3l.8-.2c0-.1.3-.2.4-.3.3-.1,1.3-.6,1.6-.6.2,0,1.2-.3,1.3-.4l1.9-.4c.2,0,1-.3,1.2-.3.2-.1,1-.3,1.2-.3.2,0,.7,0,.8,0,0,0,.4-.1.5,0,.2,0,.7,0,.8,0,.2,0,.7,0,.8,0,.6,0,1.2-.1,1.8-.1.3-.1,1.2-.2,1.3-.2.4.1,1,.3,1.5.2,0-.1.6,0,.8,0,0,0,1.2.3,1.5.3l1.4.2c0,0,.8.2,1,.2s.8.1.9.2c0,0,.7.2.7.2,0,0,.5.1.6.1,0,0,.7.2.8.3.2,0,2.1.9,2.1.9,0,0,.8.3.8.3.2,0,.8.5,1,.5l.4.4c.3,0,.7.2.9.3l.3.2s.5.5.7.7c.1.2,0,.9,0,1,0,.1-.5.7-.5.9,0,.1-.3.6-.5.7,0,.1-.6.5-.8.6,0,.1-.5.5-.5.5,0,.1-.6.7-.8.8l-2.2,2.3c-.2.2-.7.8-.7,1,0,.1-.2.5-.2.6,0,.1-.5.8-.7,1s-.8.8-.8.9c0,0-.5.4-.6.5s-.4.5-.5.6c0,0-.5.5-.6.6-.2.1-.6.6-.7.7,0,0-.2.2-.3.1,0,0-.4-.4-.5-.5,0,0-1-.8-1.2-1.1-.3-.2-1.1-.9-1.2-1l-1-.6c-.3-.2-.5-.4-.8-.6-.2-.2-.9-.8-1-.8-.8,0-1.7.2-1.6,1.2,0,.4.2,1,.5,1l.7.2c.3,0,1.1.4,1.3.5.2,0,.8.5.9.6s.6.2.7.2c0,0,.5.3.6.5,0,.2.9.8,1.2,1.1.3.2.5.4.6.5-.2.2-.3.3-.4.5-.2.1-.6.8-.7.9,0,.2-.6.8-.7,1-.2.1-.8,1-.9,1.2s-.8,1.1-1.1,1.5l-1,1.4c-.7.4-1.3,1.4-1.6,2.1,0,.1-.7,1.1-.9,1.3-.2.3-.9,1.2-1,1.4-.2.6-.5,1.1-1,1.6l-.6.6c-.2.1-.7.9-.9,1.2-.2.2-1.1,1.5-1.1,1.8,0,0-.1.5-.2.6,0,0-.4.6-.5.7l-.4.5c-.2,0-.5.6-.4,1.2-.2.3-1,1-1.3,1.2l-.2.4c0,.1-.7,1-.9,1.2,0,.2-.2.4-.1.5l-.4.5c0,.2-.4.8-.4.9,0,0-.4.6-.6.7-.2.2-.8,1-1,1.2-.2.2-.6,1.2-.8,1.4l-.4,1c-.4.5-1,1.2-1.3,1.7-.2.2-1.1,1.4-1.2,1.6-.2.3-.3.6-.4.7l-.7.9c-.2.2-1,1.3-1.2,1.5,0,.1-.6.5-.7.5,0,0-.5,0-.5,0,0,.1-.6.1-.8.2h0ZM602.7,235.2c0,0,.2.7.2.8.1.2,0,.8,0,1,0,.2-.2.8-.3,1,0,0,0,.6,0,.7,0,0,0,.6-.1.7,0,.2-.1.8,0,1,0,0,0,.7-.1.8,0,.2-.2.6-.3.7,0,0-.2.7-.2,1-.3.7-.5,1.4-.8,2.1,0,0-.3.8-.5,1,0,.2-.5.8-.5.9l-.3.7c0,.1-.5.7-.7.9,0,.2-.8,1.1-1,1.3s-.9,1.2-1,1.4c-.2.2-.8,1.1-1,1.4s-.8.8-.9.9c-.6.3-1.9,1.3-2.3,1.8,0,0-.6.4-.7.5-.2.1-1,.7-1.1.8-.2.1-1.1.7-1.4.9-.3.1-1.2.5-1.4.6-.2.1-1.1.5-1.4.6-.2.1-1.2.5-1.5.6-.3.2-1.5.5-1.9.5,0,0-.7.1-.8.2-.2.1-.7.3-.8.4,0,0-.6,0-.7,0-.2,0-.5-.3-.5-.4,0,0,.1-.5.2-.6,0,0,.5-.6.7-.8l.8-1.1c0-.1,1.3-1.7,1.3-1.7,0-.1.4-.6.4-.7,0-.2.4-.7.5-.7,0-.1.4-.5.5-.6,0-.2.4-.6.5-.7,0,0,.3-.5.3-.6,0-.1.3-.5.4-.5.2-.3,1.1-1.7,1.1-2,0-.1.4-.7.4-.7,0-.1.7-.8.8-1,.2-.3.4-.5.4-.7l.2-.5c0-.2.4-.7.5-.7,0-.1.6-.6.8-.8,0-.1.6-.8.7-1l.2-.6c0-.1.3-.5.4-.5,0-.1.5-.6.6-.8,0-.2.6-.9.7-1,.2-.1.5-.8.6-1,0-.2.5-.9.6-1.1,0-.2.6-.7.7-.8,0,0,.5-.5.6-.7l.7-1.1c.2-.1.6-1,.6-1.1s.7-1.1.9-1.3c.2-.2.8-1.1.9-1.3l.2-.6c0-.4.7-.9.9-1.2l.4-.8c0-.2.7-1,.8-1.1,0-.1.4-.7.4-.8,0,0,.2.2.3.4l.2.8c.1.2.1.4.2.5,0,.3.2.9.2,1,0,0,0,.7,0,.8,0,.2.2,1.2.2,1.4,0,.3,0,1.2,0,1.3h0ZM593,269.3c0,.1-.5.4-.6.4,0,0-.8.3-1,.5l-1.3.5c-.2.1-.8.4-.9.4,0,.1-.6.4-.8.5,0,.1-.8.3-1,.4-.2,0-.8.2-1,.4-.7,0-1.7.3-2.3.5-.2,0-.4,0-.5.1l-.8.2c-.3,0-1.4.3-1.6.4-.3,0-1.2.1-1.4,0-.2,0-.7,0-.8,0,0,0-.7,0-.9,0h-.6s-2.7-.3-2.7-.3c-.3,0-1.4,0-1.5,0-.2,0-.7,0-.9-.1,0,0-.6-.3-.7-.3,0,0-.8-.4-1-.5-.3,0-1.6-.4-1.8-.5-.3,0-.1-.6.3-.8.3-.2,1.8-1.1,2-1.3.2-.2.2-.2.3-.3.4-.3.7-.4.9-.6.2-.1.9-.9,1.1-1.1,0-.1,1-.8,1.3-.9.7-.8,1.4-1.7,2.1-2.4.2-.3.5-.5.7-.4l.4-.6c.2-.1.6-.8.7-.9.3-.4,1-1.1,1.5-1.1.3-.1.8-.2.9-.2,0,0,.6,0,.8,0,.5,0,2-.3,2.4-.6.2-.1.9-.3,1-.4.5,0,1.7-.5,2-.7.2-.1.9-.2,1-.3,0,0,.4-.2.5-.3,0,0,.4-.4.5-.4.3,0,2.4-1.2,2.8-1.4.3-.1,1.2-.8,1.4-.9.4-.2,1.7-1,2.1-1.4.2-.2,1-.9,1.3-1.1.2-.2.7-1.1.8-1.2.2-.2.7-1,.9-1.1,0-.2.5-.7.6-.7,0-.1.6-.5.8-.6.2-.1.5-.7.5-.8,0,0,.1-.5.2-.6,0-.1.8-1.1,1.1-1.4,0-.3.1-.5,0-.5l.3-.8c0-.3.5-1,.5-1.1,0-.1.4-.7.5-.9,0,0,.3-.8.4-1s.3-.8.3-.9c0-.2,0-.7,0-.8,0,0,.1-.6.1-.7,0-.1.3-.7.3-.8,0-.2.1-.9,0-1.1,0-.3,0-1.4.1-1.7,0-.2,0-1.1,0-1.3,0,0,0-.6-.2-.7,0-.2,0-.8,0-1,0-.2.1-.8,0-1,0-.1,0-.5,0-.7,0,0-.3-.6-.3-.8,0,0-.2-.6-.2-.7,0,0-.2-.7-.2-.9,0-.2-.5-1.1-.6-1.4-.1-.3-.2-1.2,0-1.3,0-.2.3-.7.4-.8,0,0,.3-.5.4-.6l.7-.6c0-.1.6-.8.7-1.1l.3-.7c.2-.2.3-.5.5-.7.2-.3,1-1.4,1.1-1.5l.4-.8c.1.2.6-.5.8-.6l.2-.2c0,0,.9-1.2,1-1.4.2-.1.8-.8.9-1,0-.2.6-.8.6-.9l.3-.5c0-.1.7-.8.9-.9.2-.2.9-.9,1.1-1,.2-.1.8-.2,1,0,0,0,.5.6.5.7,0,0,.3.5.4.6,0,0,.7.9.9,1.2.2.2.6,1.1.7,1.2l.4.6c0,.2.2,1,.3,1.2.1.3.5,1,.5,1.1,0,0,0,.6,0,.7,0,0,.3.9.5,1.2.1.3.1.6.2.8v.8c0,.3.2,1.2.2,1.4,0,0,.2.9.3,1.1v.5c.1,0,.2.5.2.5,0,0,0,.7,0,.8,0,0,0,.7,0,.8,0,0,0,.9,0,1.2,0,.2,0,1.2,0,1.4,0,.2,0,1,0,1.1v1c0,.2-.1.7-.2.8,0,0-.2.6-.2.7,0,.1-.1.5-.1.5h0c-.2.2-.4.3-.5.3-.2.1-1,.4-1.1.5-.6.3-1,.7-1.4,1.2,0,.1-.8.4-.9.3,0,0-.7.3-.9.4l-.4.5c0,.2-.2.3-.3.4-.2.1-.9.3-1,.5,0,.1-.4.5-.5.5-.4,0-1.5.9-1.6,1.2,0,.1-.7.4-.9.5l-.6.2c0,.4-.6.6-.5.9l-.5.4c0,.1-.7.6-.8.7-.7.4-1.5,1.1-2,1.8-.3.2-1.9,2-2.1,2.3-.2.1-.6.6-.7.7,0,0-.4.6-.5.7l-.4.6c-.3.1-.8.6-1,1l-.3.2c0,.1-.3.5-.3.6-.2.2-1,1.6-1,1.7s-.4.9-.5,1c0,.2-.6.9-.7,1,0,0-.1.5-.2.6,0,0-.3.6-.3.7,0,.1-.4.6-.4.7,0,.1-.7.9-.7,1.1,0,.3-.3,1.2-.4,1.4,0,.1-.2.7-.2.8,0,0-.2.6-.3.8-.2.3-.3,1.8-.3,2.2,0,0-.1.5-.2.6,0,0,0,1.1,0,1.5,0,.3,0,1.2.2,1.6h-.2c-.2.2-.8.7-.8.8h0ZM617.5,239.2c0,.2-.3.9-.4.9,0,.1-.4.8-.4.9,0,.2-.5,1.4-.6,1.8,0,.3,0,.5,0,.7l-.5.7c0,.2-.6,1.3-.7,1.6,0,.2-.5,1.1-.6,1.3-.2.1-.8,1.1-.9,1.2l-1,1.3c-.5.6-.7,1.1-1,1.7,0,0-.5.9-.6,1-.2.1-.7.8-.7,1l-.5.9c-.2.1-.7.7-.8.8-.2.1-.6.7-.7.9,0,0-.3.5-.4.6-.2.1-.6.8-.7,1-.3.1-1,.8-1.1,1-.2.2-.5.8-.5.9,0,0-.4.4-.7.5-.5,0-1.5,1.4-1.8,1.9,0,.1-.4.5-.5.6,0,.1-.5.3-.6.3,0,.1-.6.4-.7.6-.2.1-.8.7-.8.9,0,.2-.8.7-.9.7-.3.1-.7.3-.7.4,0,.1-.5.6-.7.7,0,.2-.9.8-1.2,1,0-.4.1-1.3.1-1.5,0-.2.2-1.1.3-1.3,0-.2,0-.4,0-.5l.3-.7c-.2,0,.3-.9.3-1.2,0-.2.2-.5.3-.8.2-.3.4-1.3.5-1.5,0-.2.5-.9.5-.9,0-.2.4-1,.4-1.3,0-.3.4-1,.5-1.1,0,0,.4-.8.5-1,.2-.2.9-1.1,1.2-1.3.2-.2.9-1.2,1-1.4l.4-.8c.2-.1.3-.3.4-.6.2-.2,1-1.1,1.2-1.2.2-.2.6-1,.7-1.2s.4-.9.5-.9l.8-.7c.3-.1,1.1-1,1.1-1.3l.2-.3c.2,0,.3-.1.6-.4.3-.2,1-.8,1.1-.8,0-.1.4-.4.5-.4s.5-.4.6-.6c0-.1.5-.5.6-.5,0-.1.7-.5.9-.6s.8-1,1.1-1.1c.2-.2,1-.8,1.2-.9.3-.1,1.2-.4,1.2-.4,0-.1.4-.3.5-.4,0-.1.7-.6.8-.8.2-.1.9-.5,1-.5,0,0,0,0,.2,0,0,0,0,.1,0,.1,0,.1-.4.9-.4,1.1h0ZM643.9,269.2l-1.7.6c-.3.1-1.2.4-1.2.5,0,0-.6,0-.8,0,0,0-.7,0-.8,0,0,.1-.8.2-1,0-.2,0-1.6,0-2.1-.1-.3-.2-.6-1.4-.4-1.6.2-.3,1.2-1.2,1.4-1.3.4,0,1.4-.1,1.4-.1,0,0,.5,0,.6,0,0,0,.5,0,.6,0h.3s.8,0,.8,0c.3,0,1.4.2,1.7.3.2,0,1.3.4,1.6.5.3,0,.6.3.5.4,0,.1-.7.4-1,.5h0Z"/>
    <g>
      <path class="st0" d="M75.4,266.2h-3.9v-25.3h12.4c5.8,0,9.9,2.7,9.9,8.5s-4.5,8.6-9.9,8.6h-8.4v8.2h0ZM83.9,244.2h-8.5v10.4h8.4c3.5,0,5.9-1.3,5.9-5.3s-2.5-5.2-5.9-5.2h0Z"/>
      <path class="st0" d="M100.8,258.5c.1,1.8,1.6,3.2,3.6,3.9,1.6.5,3.6.8,5.4.8s2.7-.1,4-.5c2.3-.5,4.1-1.4,4.3-3.3.7-4.8-6-4.3-9.9-4.6-4.7-.2-10.8-.5-10.8-6.7s6.8-7.5,11.8-7.7c5.4-.1,12.3,1.5,12.3,7.8h-4c0-3.7-5.4-4.4-8.3-4.4-2.3,0-7.9.9-7.8,4.3,0,2.9,3.3,3.1,6.8,3.3,7.3,0,14.7,1,13.9,8.2-.5,3.7-4.4,5.9-8,6.6-1.2.2-2.7.4-4.2.4-2.2,0-4.4-.2-6.3-.9-3.5-1-6.5-3.2-6.7-7.3h3.9,0Z"/>
      <path class="st0" d="M130.8,266.2h-3.9v-25.3h3.9v25.3Z"/>
      <path class="st0" d="M135.3,253.5c0-7.6,5.6-13.1,13.3-13.1s9.7,2,11.6,7.4l-3.2,1.1c-1.7-3.9-5.1-5-8.4-5-5.5,0-9.3,4-9.3,9.7s3.8,9.8,9.3,9.8,6.8-1.3,8.5-5.3l3.3,1c-2.3,5.6-6.9,7.7-11.8,7.7-7.8,0-13.3-5.6-13.3-13.2h0Z"/>
      <path class="st0" d="M163.4,253.5c0-7.6,5.6-13.1,13.3-13.1s13.3,5.5,13.3,13.1-5.6,13.1-13.3,13.1-13.3-5.5-13.3-13.1ZM186.1,253.5c0-5.7-3.8-9.8-9.4-9.8s-9.4,4.1-9.4,9.8,3.8,9.8,9.4,9.8,9.4-4.1,9.4-9.8Z"/>
      <path class="st0" d="M199.3,262.8h15.9v3.4h-19.9v-25.3h4v21.9Z"/>
      <path class="st0" d="M216.5,253.5c0-7.6,5.6-13.1,13.3-13.1s13.3,5.5,13.3,13.1-5.6,13.1-13.3,13.1-13.3-5.5-13.3-13.1ZM239.2,253.5c0-5.7-3.8-9.8-9.4-9.8s-9.4,4.1-9.4,9.8,3.8,9.8,9.4,9.8,9.4-4.1,9.4-9.8Z"/>
      <path class="st0" d="M272.1,252.3v7.6c-2.1,5.1-7,6.8-11.8,6.8-7.8,0-13.4-5.5-13.4-13.1s5.6-13.2,13.4-13.2,9.6,2,11.5,7.4l-3.1,1.1c-1.7-3.7-5.1-5.1-8.4-5.1-5.6,0-9.4,4.1-9.4,9.8s3.8,9.6,9.4,9.6,6.9-.9,8.3-4.1v-3.7h-9.2v-3.2h12.7Z"/>
      <path class="st0" d="M281.9,266.2h-3.9v-25.3h3.9v25.3Z"/>
      <path class="st0" d="M306.7,259.8h-14.3l-3.2,6.4h-4.4l12.9-25.5h3.8l12.8,25.5h-4.4l-3.2-6.4h0ZM299.6,244.2l-2.2,5.2-3.3,7h10.8l-3.2-6.9-2.1-5.3h0Z"/>
      <path class="st0" d="M325.8,253.5c0-7.6,5.6-13.1,13.3-13.1s9.7,2,11.6,7.4l-3.2,1.1c-1.7-3.9-5.1-5-8.4-5-5.5,0-9.3,4-9.3,9.7s3.8,9.8,9.3,9.8,6.8-1.3,8.5-5.3l3.3,1c-2.3,5.6-6.9,7.7-11.8,7.7-7.8,0-13.3-5.6-13.3-13.2h0Z"/>
      <path class="st0" d="M359.2,262.8h15.9v3.4h-19.9v-25.3h4v21.9Z"/>
      <path class="st0" d="M382.3,266.2h-3.9v-25.3h3.9v25.3ZM386.5,233.3h-4.5l-3.4,4.8v.2h3.4l4.5-4.8h0q0-.1,0-.1Z"/>
      <path class="st0" d="M388.2,266.2v-25.3h3.7l13.1,15.6,3.7,5.4-.6-6.6v-14.4h3.9v25.3h-3.7l-13.8-16.4-2.9-4.2.4,5.3v15.3h-3.9Z"/>
      <path class="st0" d="M422.5,266.2h-3.9v-25.3h3.9v25.3Z"/>
      <path class="st0" d="M427,253.5c0-7.6,5.6-13.1,13.3-13.1s9.7,2,11.6,7.4l-3.2,1.1c-1.7-3.9-5.1-5-8.4-5-5.5,0-9.3,4-9.3,9.7s3.8,9.8,9.3,9.8,6.8-1.3,8.5-5.3l3.3,1c-2.3,5.6-6.9,7.7-11.8,7.7-7.8,0-13.3-5.6-13.3-13.2h0Z"/>
      <path class="st0" d="M475.3,259.8h-14.3l-3.2,6.4h-4.4l12.9-25.5h3.8l12.8,25.5h-4.4l-3.2-6.4h0ZM468.2,244.2l-2.2,5.2-3.3,7h10.8l-3.2-6.9-2.1-5.3h0Z"/>
    </g>
    <g>
      <path class="st0" d="M745.5,246.6c0-3-2.8-3.9-5.5-3.9s-5.2,1.6-5.2,4.2.9,2.4,1.8,3.1l11.2,8.6c.8-1,.7-2.4.7-4h3.7c0,2.5-.5,4.5-1.5,6.1l5,3.9v.5h-5l-2.5-2c-2.4,2-5.3,2.5-8.1,2.5-4.9,0-10.5-2.1-11.4-7.2h0c-.6-3.1,1.2-5.9,4-7.1-1.2-1.2-1.8-2.9-1.8-4.4,0-5,4.9-7.3,9-7.3s9.1,2.1,9.1,7h-3.6,0ZM735.7,253.7c-1.8.5-3.4,2.1-3.1,4.1.9,3.2,4.5,4.5,7.4,4.5s3.8-.4,5.3-1.2l-9.6-7.4Z"/>
      <path class="st0" d="M773.5,265.1h-3.9v-25.3h3.9v25.3Z"/>
      <path class="st0" d="M779.5,265.1v-25.3h4.1l10.7,13.8,10.7-13.8h4v25.3h-4v-14.1l.3-5.9-10,13h-2.2l-9.9-12.9.2,6v13.9h-3.9Z"/>
      <path class="st0" d="M834.6,258.7h-14.3l-3.2,6.4h-4.4l12.9-25.5h3.8l12.8,25.5h-4.4l-3.2-6.4h0ZM827.5,243.1l-2.2,5.2-3.3,7h10.8l-3.2-6.9-2.1-5.3h0Z"/>
      <path class="st0" d="M868.1,251.1v7.6c-2.1,5.1-7,6.8-11.8,6.8-7.8,0-13.4-5.5-13.4-13.1s5.6-13.2,13.4-13.2,9.6,2,11.5,7.4l-3.1,1.1c-1.7-3.7-5.1-5.1-8.4-5.1-5.6,0-9.3,4.1-9.3,9.8s3.8,9.6,9.3,9.6,6.9-.9,8.3-4.1v-3.7h-9.2v-3.2h12.7Z"/>
      <path class="st0" d="M878.1,250.8h15.2v3.3h-15.2v7.6h15.9v3.4h-19.9v-25.3h19.9v3.4h-15.9v7.6h0Z"/>
      <path class="st0" d="M899.3,265.1v-25.3h4.1l10.7,13.8,10.7-13.8h4v25.3h-4v-14.1l.3-5.9-10,13h-2.2l-9.9-12.9.2,6v13.9h-3.9Z"/>
      <path class="st0" d="M944,252.4c0-7.6,5.6-13.1,13.3-13.1s9.7,2,11.6,7.4l-3.2,1.1c-1.7-3.9-5.1-5-8.4-5-5.5,0-9.3,4-9.3,9.7s3.8,9.8,9.3,9.8,6.8-1.3,8.5-5.3l3.3,1c-2.3,5.6-6.9,7.7-11.8,7.7-7.8,0-13.3-5.6-13.3-13.2h0Z"/>
      <path class="st0" d="M972.1,252.3c0-7.6,5.6-13.1,13.3-13.1s13.3,5.5,13.3,13.1-5.6,13.1-13.3,13.1-13.3-5.5-13.3-13.1ZM994.8,252.3c0-5.7-3.8-9.8-9.3-9.8s-9.3,4.1-9.3,9.8,3.8,9.8,9.3,9.8,9.3-4.1,9.3-9.8Z"/>
      <path class="st0" d="M1024.2,241.9c1.8,1.4,2.7,3.6,2.7,5.9s-1.1,4.5-2.8,6c-1.4,1.1-3.5,1.5-6,1.7l8.7,9.4v.2h-4.7l-8.9-9.6h-5.1v9.6h-4v-25.3h13c2.2,0,5.1.4,7.2,2.1h0ZM1022.9,247.7c0-3.5-2.6-4.5-5.8-4.5h-9.1v9.1h9.5c3.5,0,5.4-1.3,5.4-4.5h0Z"/>
      <path class="st0" d="M1035.5,265.1h-3.9v-25.3h12.4c5.8,0,9.9,2.7,9.9,8.5s-4.5,8.6-9.9,8.6h-8.4v8.2h0ZM1043.9,243.1h-8.5v10.4h8.4c3.5,0,5.9-1.3,5.9-5.3s-2.5-5.2-5.9-5.2h0Z"/>
      <path class="st0" d="M1057.4,252.3c0-7.6,5.6-13.1,13.3-13.1s13.3,5.5,13.3,13.1-5.6,13.1-13.3,13.1-13.3-5.5-13.3-13.1ZM1080.1,252.3c0-5.7-3.8-9.8-9.3-9.8s-9.3,4.1-9.3,9.8,3.8,9.8,9.3,9.8,9.3-4.1,9.3-9.8Z"/>
      <path class="st0" d="M1109.5,241.9c1.8,1.4,2.7,3.6,2.7,5.9s-1.1,4.5-2.8,6c-1.4,1.1-3.5,1.5-6,1.7l8.7,9.4v.2h-4.7l-8.9-9.6h-5.1v9.6h-4v-25.3h13c2.2,0,5.1.4,7.2,2.1h0ZM1108.2,247.7c0-3.5-2.6-4.5-5.8-4.5h-9.1v9.1h9.5c3.5,0,5.4-1.3,5.4-4.5h0Z"/>
      <path class="st0" d="M1135.6,258.7h-14.3l-3.2,6.4h-4.4l12.9-25.5h3.8l12.8,25.5h-4.4l-3.2-6.4h0ZM1128.5,243.1l-2.2,5.2-3.3,7h10.8l-3.2-6.9-2.1-5.3h0Z"/>
      <path class="st0" d="M1150.2,261.6h15.9v3.4h-19.9v-25.3h4v21.9Z"/>
    </g>
  </g>
</svg>