<?xml version="1.0" encoding="UTF-8"?>
<svg id="Layer_2" data-name="Layer 2" xmlns="http://www.w3.org/2000/svg" viewBox="0 0 1577.53 187.68">
  <g id="Layer_1-2" data-name="Layer 1">
    <g>
      <path d="M149.42,77.57v-.78c-.26-.52-.78-1.04-.78-1.56q0-.26.52-.52c-.52-.26-.52-.52-.52-.78s0-.26-.26-.52v-1.56c0-.26-.26-.26-.26-.26,0-.52-.26-1.04-.26-1.56-.26-1.04-.52-2.34-.52-3.12v-.26c-.26-.52-.26-.78-.52-1.3-3.38-10.41-7.55-20.56-14.06-28.89-9.89-12.75-19.26-19.78-34.36-26.29-1.04-.52-2.6-.78-3.9-1.3-1.56-.78-3.9-1.82-5.47-1.82-.26,0-2.08-.52-3.9-.78-1.04-.26-1.82-.52-2.34-.52-.26,0-.52-.26-.78-.26-.52,0-.78-.26-1.3-.26-.78,0-1.3,0-1.82-.26h-.52l-1.04-.26h-1.04c-.26,0-.78-.52-1.04-.52-.52,0-.78-.26-1.3-.26h-2.08l-7.55-.52h3.38c-1.82-.26-3.38-.52-4.95-.52H20.3c-1.82,0-3.38.26-5.21.26-1.3,0-5.47-.26-9.37,0-1.82.26-3.64.52-4.69.78-.52.26-.78.78-.78.78q0,.52.52.78c1.04.52,2.6,1.04,3.9,1.56,3.64,2.34,6.77,6.25,6.77,15.36v86.68c0,5.73-.26,11.45-.26,17.18,0,14.84,1.04,29.67-.26,44.51-.52,6.51-4.16,8.85-7.03,10.41-.78.26-1.3.52-2.34.78-.52.26-.78.52-1.04.78-.26,0-.52.26-.52.26l.26.52s.26.52,1.04.78c1.3.26,2.6.26,3.38.26,20.04,0,40.09.26,60.13.26h1.04c.52-.26,1.04-.26,1.3-.26h1.04c2.6,0,5.73-.52,8.59-.52.52-.52.78-.52,1.3-.52h.26c.52-.26,1.04-.26,1.3-.26,1.04,0,1.56-.26,2.08-.26,1.04,0,1.82-.26,3.38-.52,1.3-.26,2.34-.78,3.64-1.04,17.96-4.43,32.54-13.8,43.99-28.89.52-.78,1.82-2.6,3.38-4.95,1.3-2.08,2.6-3.9,2.86-4.42,2.34-5.99,4.95-10.93,6.77-16.92.26-.52.26-.78.52-1.3,0-.52.26-1.04.52-1.82,0-1.04.26-2.08.52-3.12,0-1.3.52-2.6.78-3.9.52-2.86,1.3-5.47,1.56-8.07,0-2.86.52-5.73.52-8.59v-5.47c0-1.3.26-3.38.26-4.95,0-2.08-.26-3.38-.52-4.95-.26-1.82-.52-4.69-.52-6.51ZM138.48,102.3s0,1.04-.26,2.86c0,1.04-.26,1.82-.26,2.86,0,.52,0,1.3-.26,2.08v1.56c-.26.52-.26.78-.26,1.04-.52,1.82-.78,4.17-1.04,5.99-.52,3.12-2.86,10.41-3.9,13.28-4.69,12.49-10.15,20.3-19.52,29.67-.52.52-1.82,1.56-2.86,2.6-.52.78-1.04,1.04-1.56,1.56-.52.26-1.04.52-1.56.78-6.51,6.25-25.77,13.8-34.36,14.06-.26,0-.52.26-1.04.26-.26,0-.78.26-1.04.26h-1.04c-3.9,0-8.07.52-11.71.52-8.07,0-16.4-.26-24.47-.26-10.67,0-12.23-7.03-12.23-15.1,0-2.86.26-5.99.26-8.59V12.76c0-4.17,2.86-5.99,5.47-6.51,1.3-.26,2.34-.26,3.9-.26h25.25c3.64,0,7.29.78,10.41.78h.78c.52-.26,1.3,0,1.82.26,1.56,0,3.38.26,4.95.52,1.56.52,3.64,1.3,4.95,1.56,13.54,2.34,29.41,12.75,38.79,22.91,1.56,1.56,2.86,3.64,4.17,5.47,1.3,2.08,2.34,3.64,3.38,5.73,2.86,3.64,4.69,7.81,6.25,11.97.52,1.3,1.04,3.12,1.56,4.69s1.04,3.12,1.56,4.17c0,.26.26.78.78,1.3,0,.78.26,1.3.26,1.82s.26.78.26,1.3c0-.26-.52-.26.52,2.08v.26c.26.26.26.78.26,1.04.26.26.26.78.26,1.56l-.26-.52.26,1.82.52,1.3v2.6c.26,1.3.26,3.12.52,4.69.26,3.9.78,7.81.78,9.63,0,2.86-.26,6.25-.26,9.37Z"/>
      <path d="M269.16,161.65s-.26.26-.52.26c0,.26-.26.26-.26.52-.52.52-1.04,1.3-1.3,1.82-.52.78-1.04,1.82-1.56,2.34-.52.78-1.04,1.3-1.56,1.56-4.43,4.95-13.8,10.67-20.82,10.67h-.26c-.26.26-.52.52-1.04.52s-.78-.26-1.3-.26c-3.12,0-7.03.78-10.67.78h-6.51c-2.34,0-4.43,0-6.51.26h-11.71s.26-.26.52-.52l-2.08.26h-24.73c-3.38,0-7.81-.26-10.67-3.64-2.08-2.08-2.6-6.77-3.12-11.19-.26-4.42-.26-8.85-.26-11.19,0-2.86.26-5.47.26-8.07s-.52-5.47-.52-7.81v-20.82c0-7.81.26-15.62.26-23.17v-7.55h17.18c9.11,0,18.22.26,27.33.26,2.08,0,4.43.26,6.51.26h.78s.26,0,.52.26h.52c6.25,0,12.23,1.82,17.44,4.17.78.52,1.56.78,2.6,1.3.78.26,1.56.26,2.08.26,1.3,0,2.86-1.04,3.64-3.64.78-2.6.78-5.47.78-7.55,0-2.6-.78-4.69-2.34-5.47q-.52,0-.78-.26c-1.82,0-3.38.78-5.73,1.56-1.04.26-2.34.78-3.64,1.3-.52,0-.78.26-1.04.26s-.52.52-.78.52c-.52,0-1.3.26-1.82.26l-1.04.26h-.52l-1.04.26c-.78,0-1.56.26-2.34.26-.78.26-1.3.26-1.82.26-.52.26-1.04.26-1.56.26h-.78c0,.26-.26.26-.26.26h-1.04c-1.56,0-3.12.26-4.95.26-3.38,0-7.29.26-10.93.26h-34.36c-.26,0-.78,0-1.3-.26h-.26l-.78-.26-.26-.78c0-.52-.26-1.56-.26-2.08,0-10.15.26-20.82.26-31.24,0-3.9.26-7.81.26-11.71,0-4.69.52-9.63.52-14.06,0-.52-.26-1.04-.26-1.56l-1.56,3.38,1.82-5.73v-.52c0-4.69,3.38-10.93,9.37-10.93h53.36c2.08,0,4.43.52,6.51.52,9.37,0,17.96,2.86,25.25,8.59.78.52,1.56,1.3,2.08,1.82.52.78,1.04,1.82,1.56,2.34.52.78,1.3,1.3,1.82,1.56.52.52.78.52,1.04.52,1.3,0,3.12-1.56,3.12-3.9,0-1.82-.78-3.9-.78-5.73-.78-1.82-1.04-3.64-1.82-4.95-.52-1.3-1.3-2.34-3.38-3.38h-.26c-.26-.26-.52-.26-.78-.26-.26-.26-.52-.26-.78-.52h-2.08c-.52-.26-1.04-.26-1.56-.26h-104.38s-.78.52-.78,1.56c0,.78.26,1.56.52,2.86.26.52.52,1.04.52,1.56.26.52.26,1.56.26,2.34.52.78.52,2.08.78,3.64.26,1.56.26,3.38.52,5.73v9.89c0,5.47.52,10.67.52,15.88,0,10.67-.26,21.6-.26,32.28,0,1.56-.26,3.12-.26,4.42v56.49c0,8.59.78,20.04,0,28.37,0,.52-.26,1.3-.26,2.08-.26.52-.26,1.04-.26,1.3,0,.52,0,.78-.26,1.3,0,.78,0,1.56-.26,1.82v.52c0,1.56-.52,3.38-1.04,4.69-.26.78-.52,1.3-.52,1.82-.52.78-.52,1.04-.52,1.3,0,.52,0,.78.52.78v.26l.26.26q.26,0,.52.26c.26,0,.26.26.52.26h24.21c4.17,0,8.59.26,12.75.26h69.24c4.42,0,6.25-1.56,7.55-4.16.52-1.3,1.04-2.6,1.82-4.69.26-1.56.78-3.64,1.3-5.21.26-.78.52-3.12.52-3.9,0-1.04-.26-2.6-.78-3.38-.26-1.04-1.04-1.56-1.82-1.56Z"/>
      <path d="M401.59,123.91v-1.04q0-.26-.26-.52v-1.56c0-.26-.26-.26-.26-.26v-1.56c-.26-.52-.52-1.3-.78-2.08s-.52-1.82-1.04-3.12c-.78-2.08-1.3-4.43-1.82-5.73-6.25-11.71-15.36-17.7-27.85-22.13-1.04-.52-2.08-.52-3.12-.78-1.56-.26-2.6-.52-3.9-.78-2.08-.78-5.21-1.82-7.29-1.82h-3.38l2.34-2.34c.26,0,.52-.26,1.04-.52.26,0,.52-.52,1.04-.52,1.04-.52,2.08-.78,3.12-1.3,2.34-.78,4.69-1.56,5.47-2.08,13.54-6.25,21.34-19.78,21.34-34.1,0-11.71-5.99-24.73-16.14-30.72-1.04-.52-1.82-1.3-2.6-1.82-1.04-.26-1.82-.78-2.86-1.04-3.12-1.3-6.77-2.6-10.41-3.38-.78-.26-1.82-.26-2.34-.52-.78,0-1.56-.26-2.08-.52h-1.04c-.52,0-1.04,0-1.3-.26-.52,0-.78,0-1.3-.26h-1.82c-.78,0-1.3,0-1.82-.26h-2.86c-.78-.26-1.82-.26-2.6-.26h-58.83c0,.26-.26.52-.52.52,0,.26-.26.26-.26.26l-.26.26c-.26.26-.52.52-.52,1.56,0,0,.26.52.26,1.56.26.78.52,1.56.78,2.34.52,2.08,1.04,4.16,1.3,5.73.52,5.47,1.82,10.93,1.82,16.4,0,35.92.26,71.84.26,107.77,0,5.47-.52,11.71-.52,17.18,0,1.82-.52,3.38-.52,5.21,0,3.64-.52,9.63-1.56,13.28-.26.52-.78,2.08-1.04,3.38-.26.78-.52,1.3-.52,2.08-.26.52-.26,1.04-.52,1.82,0,.26.26.26.26.52s0,.52.26.78c.26.78.52,1.04.78,1.04,1.3.52,9.11.52,17.18.52h36.7c8.59-.26,16.4-.52,17.7-.78l.26-.52h.52c1.04.52,3.9-.26,7.29-1.04,2.86-.78,5.73-1.56,7.03-1.82,17.44-5.21,28.11-15.36,34.62-32.54,1.82-3.9,3.12-9.89,3.12-14.06,0-3.12-.26-6.51-.26-9.63q0-.26-.26-.52ZM290.96,12.23c0-1.3,0-2.6,1.56-4.95l1.04-.26h37.48c.52,0,.52.26.78.26h5.47c1.56,0,3.38.52,4.95.52l.78.26h1.3c.26,0,.26.26.52.26h.52s.26.26.52.26h1.04l.52.26h.26c.26.26.52.26,1.04.26.78.26,1.56,1.04,2.6,1.3,2.08.52,4.43,1.3,5.21,1.82,12.23,5.99,19.26,17.18,19.26,30.72,0,15.62-6.77,25.77-20.56,32.28-1.3.78-3.12,1.3-4.69,1.56-1.3.52-2.86.78-4.17,1.56-3.64,1.56-14.06,2.6-17.96,2.6h-10.41c-2.34,0-4.69.26-6.77.26h-17.96c-.78,0-1.3-.26-1.82-1.04q0-.26-.26-.52l-.26-1.04V12.23ZM385.97,155.14c-.52.78-.78,1.3-1.3,2.34-.26.52-.52,1.04-.78,1.82l-.26.26-.26.26c-.52.52-1.56,1.3-2.08,2.34-.26.52-.78,1.04-1.04,1.3-.26.52-.78,1.3-1.04,1.82-2.34,1.82-4.69,3.9-7.29,5.47-3.38,2.34-11.71,6.25-15.62,6.77l-4.17.78-.26.26h-.78c-.52,0-2.34,0-4.95.26-2.34.26-4.69.52-5.73.52-4.95.78-9.89-.26-14.84,0-4.69.26-9.37.26-14.06.26h-16.66c-.26,0-.26-.26-.52-.26h-.78l-1.04.26-1.82-1.82v-9.37c0-4.95.26-9.63.26-14.32v-43.21c0-7.55.26-15.1.26-22.65v-.52l.26-.78c.52-.26,1.04-.52,1.82-.78h43.47c6.77,0,21.35,1.82,27.85,4.43,16.66,7.55,27.07,20.56,27.07,39.57,0,10.15-1.56,15.88-5.73,24.99Z"/>
      <path d="M551.06,70.8v.26l.26.26-.26-.52Z"/>
      <path d="M553.14,96.31v-8.59c0-1.82-.26-3.38-.26-4.69,0-.52,0-1.3-.26-1.56l-.26-.52v-2.08c-.26-.52-.26-1.04-.26-1.56v-.52l-.26-.78v-.78c0-.52-.26-.78-.26-1.04s0-.52-.26-1.04v-.78s0-.26-.26-.52v.78l-1.56-8.59c-1.3-5.21-2.6-10.41-4.69-15.1-.52-1.04-1.04-2.08-1.56-3.12-.52-1.04-1.04-2.34-1.3-3.64-.52-.26-1.04-.78-1.3-1.3-.26-.52-.52-1.3-1.04-1.82-.26-1.04-.52-1.56-.78-2.34-.26-.52-.52-.78-.78-1.3-1.56-2.34-2.86-4.69-4.69-6.77-2.6-3.64-5.73-6.77-9.11-9.63-1.3-1.3-2.6-2.86-4.43-4.17-8.07-7.29-18.48-11.45-29.41-13.8-1.3-.26-2.34-.52-3.64-.78-1.56-.26-2.6-.26-3.9-.26h-9.89c-.78.26-1.3.26-1.82.26-1.3,0-2.08.26-2.86.26-2.86,0-6.25,1.3-9.37,2.34-2.6,1.04-5.21,1.82-8.07,2.86-2.34,1.3-4.69,2.34-7.03,3.64-1.3,1.04-2.34,1.82-3.9,2.86,0,0-.52.26-1.3,1.04-.78.52-1.56,1.04-2.34,1.56-1.56,1.56-3.12,3.12-3.9,3.9-11.71,10.67-23.17,30.72-25.51,46.33-.26,1.82-1.04,3.9-1.56,6.51-.52,2.34-.78,4.42-.78,5.73,0,2.6-.78,5.73-.78,8.33,0,3.38-.52,6.51-.52,9.63,0,2.08.52,3.64.52,5.21v3.12s0,.26.26.52v1.3c.26,1.04.26,2.34.26,2.6,0,1.04.26,1.82.26,2.6v.26c.26,1.04.52,2.6.52,3.12v.52c-.52-.26-.78-.78.26,1.56v.52c0,.52.26,1.56.26,2.34.52,1.82,1.04,3.9,1.56,6.25,1.3,4.43,2.86,9.11,3.64,10.67,5.99,17.7,20.56,35.92,37.22,44.25,3.12,1.82,6.25,3.12,9.37,4.43,1.04.26,2.6.52,4.16.78.78,0,1.56.26,2.34.52.26,0,1.04.26,1.56.52.52,0,.78,0,1.04.52.78,0,1.82.26,2.6.26,2.08.26,4.17.52,4.69.52,8.33,0,15.88-.52,23.95-2.86,21.87-5.99,41.65-28.89,48.68-50.5.78-2.6,2.08-6.51,3.38-9.89,1.04-3.9,1.82-7.55,2.08-11.45l.26-.26c0-.78,0-1.3.26-2.08.26-1.3.26-3.12.52-5.21.26-3.9.26-7.55.26-9.11ZM538.82,103.08v.78q-.26.26-.26.52c0,2.08-.52,4.16-.52,6.25q0,.26.26.26c0,.78-.26,1.3-.52,2.08,0,1.3,0,2.34-.26,3.12-.26.52-.26,1.3-.26,2.08-.26.52-.26.78-.78,2.86,0,.52-.26,1.3-.26,2.34,0,.52-.26.78-.26,1.3-.26,0-.26.26-.26.26,0,.78-.26,1.82-.26,2.6-.26,1.3-1.04,2.6-1.3,3.64-.78,2.86-1.82,5.21-2.08,6.51-5.47,16.92-16.14,32.54-32.02,41.65-1.3.78-3.38,1.82-5.47,3.12-2.6.78-5.21,1.82-7.03,1.82q-.26,0-.78.26c-.52,0-.78,0-1.04.26h-1.3l-.78.26h-1.56c-.78.26-1.3.26-2.08.26-18.74,0-31.76-8.85-42.95-22.91-1.82-2.86-4.43-5.99-5.73-9.37-1.04-2.08-2.08-4.16-3.12-5.99-1.04-2.08-2.08-4.43-2.86-6.51-.52-2.34-1.82-4.43-2.6-6.25-.26-1.56-1.3-5.21-2.08-9.11-.78-3.38-1.56-7.55-1.56-8.85,0-.26,0-.78-.26-1.3v-.78c0,.26.26.26.26.26l-.52-1.04c-.26-2.08-.52-4.17-.52-5.99v-1.04l-.26-1.04c0-2.34-.26-4.69-.26-6.77,0-4.17.26-8.07.26-11.97,0-2.6.52-4.95.52-7.55v-.78c0-.52,0-1.04.26-1.56.26-1.56.26-3.9.78-5.99,0-1.82.26-3.12.52-4.17,0-.52.26-1.04.26-1.56.26,0,.26-.52.26-.78.26-2.34,1.04-5.47,1.82-7.81.78-3.12,1.82-5.73,2.6-8.07.52-2.34,1.56-4.43,2.6-6.77.78-1.82,2.08-4.17,2.86-5.99,7.29-15.88,24.73-32.28,43.73-33.06h.26c.52-.26,1.04-.26,1.56-.26,2.08,0,4.43.26,6.25.26,14.58,0,28.11,10.93,36.18,21.08,4.17,5.21,7.03,11.19,9.89,16.66.52.78.78,1.82,1.3,2.6.52,1.3.78,2.34,1.3,3.12,0,.78.78,2.86,1.56,4.95.26,1.04.52,2.08.78,2.86s.26,1.04.26,1.3c.26.52.26,1.04.26,1.3,3.38,7.81,5.21,24.47,5.21,32.28,0,4.43.26,8.85.26,13.02,0,.78,0,1.04-.26,1.3Z"/>
      <path d="M868.46,182.21c-1.04-.26-2.08-.52-3.12-1.04-2.6-1.3-4.43-2.6-6.77-4.95-3.12-2.86-5.99-7.03-8.07-10.93-2.86-5.21-4.42-11.45-7.03-16.66-1.56-3.38-2.86-7.03-3.9-10.67-.52-.26-.78-.78-1.04-1.04-.26-.52-.52-1.3-.78-1.83-.52-2.34-1.05-3.9-1.83-5.98-2.08-4.17-3.38-8.33-4.94-12.76-3.39-8.07-6.51-16.4-9.89-24.73-.52-1.3-2.09-5.46-3.91-9.63-1.56-4.16-2.86-7.55-3.12-8.07l-.52-1.3v.26c0-.26-.52-.52-.52-1.04-.52-.78-.78-2.08-1.3-3.64-1.31-2.87-2.61-6.77-4.43-10.94-3.12-8.07-6.51-16.4-7.03-18.22-2.6-5.72-4.42-12.23-7.03-17.96-.78-1.3-1.3-2.6-1.56-3.9-.26-1.3-.78-2.35-1.04-3.13l-2.34-4.94c-2.08-3.91-4.95-6.51-8.85-6.51-3.65,0-6.77,2.6-8.85,5.99-.26.78-.52,1.3-.78,2.08-.26.78-.78,1.56-1.04,2.34-.53,1.3-1.31,3.39-2.35,4.95-.52,1.56-1.3,3.38-1.56,4.42-1.04,3.39-2.34,7.29-3.9,10.15-1.31,3.13-3.39,7.55-4.17,10.68-.78.78-1.04,1.82-1.3,3.12-.26,1.04-.78,2.08-1.3,3.12-1.04,1.83-3.91,9.38-4.69,11.72-.26.52-1.3,3.12-2.34,5.2-.52,1.31-.78,2.35-1.56,3.39-.26.26-.52.78-.52,1.3,0,0-.26,0-.26.26-.52,2.08-2.61,7.81-3.13,8.85-2.6,4.69-4.68,10.15-6.76,15.1-1.83,4.94-4.17,10.15-6.25,15.1,0,.26-1.04,2.6-1.82,4.94-.52,1.04-.78,2.34-1.31,3.13,0,.52-.52,1.04-.52,1.3-.26.78-.78,1.56-1.04,2.34,0,.26-.26.52-.52.78q0,.26-.26.52c-1.04,3.91-2.6,7.55-4.42,11.19-1.83,5.21-5.47,14.84-9.63,23.69-2.73,6.63-6.02,14.4-11.36,19.41-1.5,1.41-5.74-1.04-7.28-1.8-2.74-1.35-5.12-3.24-7.03-5.63-2.61-2.87-4.43-5.99-6.77-9.11-1.82-2.87-3.91-5.99-5.99-8.86-7.29-10.41-14.06-21.08-21.34-31.49-3.13-3.91-5.47-8.07-8.33-12.24-2.61-4.16-5.47-8.33-8.85-11.97l-1.05-1.3,1.57-.52c1.04-.26,1.56-.26,2.34-.52.78,0,1.3-.26,2.08-.52h.52c.78,0,3.13-.52,3.13-.52l.26-.26h.52c21.08-2.87,38.26-21.87,38.26-43.48s-11.97-34.62-30.45-42.16c-1.05-.53-7.29-2.61-8.33-2.61,0,0-.52,0-1.31-.52h-2.08c-.26-.26-.78-.26-1.3-.52-1.04-.26-1.82-.26-2.6-.26-1.56,0-2.61-.26-3.65-.26-1.3,0-2.86-.26-4.16-.26-2.6,0-5.21-.26-7.55-.26-1.3,0-2.08.26-3.12.26h-59.87c-.52.26-.79.52-.79,1.56,0,.78.27,1.3.79,2.08.26.52.52.79.78,1.31.52.26.78.78,1.3,1.04,1.82,2.34,3.64,4.68,3.64,9.63v146.81c0,4.69-2.34,8.33-4.68,10.93-1.04,1.3-1.83,2.35-2.61,3.65-.78,1.04-1.3,1.56-1.3,1.82,0,.78,0,1.04.52,1.3h.26q.26.26.52.26c0,.26.26.26.52.52h25.51s.26,0,.53-.78c.26-.52.26-1.3.26-1.82v-.26c-.26-.26-.53-.78-1.05-1.04-.78-1.3-2.08-2.35-3.12-3.91-2.34-2.86-4.95-7.03-4.95-11.97v-64.3c0-1.04,0-2.08-.26-3.38l-.26-1.3h35.41c3.9,0,7.8.26,11.45.26h2.34l.26.26c2.87,3.38,5.21,7.03,7.81,10.41,2.34,3.91,4.43,7.55,6.77,11.19,1.82,2.61,4.16,5.73,5.73,8.85,2.6,3.91,5.2,7.03,7.54,10.94,6.25,9.63,12.5,19.26,19.01,29.15,2.6,3.12,5.2,6.51,7.55,9.89,2.04,3.07,6.33,5.7,10.57,7.13,2.24.77,4.46,1.2,6.35,1.2.78,0,2.12.09,3.52,0h34.38q.26,0,.52-.26h1.04l.26-.26c.52-.26,1.04-.26,1.3-.26-.26,0-.26-.26-.52-.26s-.78-.26-1.3-.26c-1.3-.26-2.6-.52-3.38-.52-7.29-1.56-12.24-9.89-12.24-16.92,0-2.6,1.04-5.73,1.82-8.59,1.05-2.86,2.35-5.47,3.39-7.81,9.63-23.95,32.54-32.54,54.66-37.74,3.65-.78,7.29-2.09,10.94-3.13,5.72-1.3,12.49-2.86,18.22-5.2.26-.26,1.04-.52,1.82-1.04.52-.26.78-.26,1.3-.52.26,0,1.3-.26,1.82-.26,1.82,0,2.87.78,4.17,1.82.26.26.52.78.78,1.3.26.52.26,1.04.52,1.3,3.12,5.99,4.94,12.76,7.55,19,2.6,5.21,4.42,10.94,6.25,16.4,1.3,2.6,2.08,5.21,2.86,7.81.52,1.04,1.04,2.6,1.82,3.91.52,1.3,1.3,2.86,1.82,4.42.26.78.52,1.82.78,3.12.26,1.05.52,2.09.52,3.65,0,4.94-1.04,11.19-6.5,14.84-1.83.78-3.13,1.56-4.69,2.34-1.04.52-2.6,1.3-3.9,1.82l-.26.26c.26.78.52,1.04,1.3,1.04,16.14,0,32.8-.26,48.94-.26.26,0,.78,0,1.56-.26.26,0,.52,0,.52-.26v-.26h-1.04c-1.31-.26-2.87-.78-3.91-1.04ZM621.01,89.02c-10.93,0-21.86.26-32.8.26h-16.66V8.33h41.39c3.91,0,7.81,0,11.72.26,1.82,0,3.9.52,5.46.52h1.04c.53,0,.79,0,1.31.26,2.86-.26,8.59,1.56,10.41,2.34,13.53,5.47,19.78,11.97,24.47,26.55.52,1.82,1.82,6.77,1.82,9.11,0,9.89-2.6,22.13-10.67,29.16-1.31.78-2.35,1.56-3.39,2.6-1.04.78-2.6,1.56-3.64,2.08-3.65,2.6-8.85,4.69-13.02,5.47-2.86.52-5.98,1.04-8.59,1.82-3.12.26-5.72.52-8.85.52ZM807.55,97.61c-1.04.78-2.34,1.3-3.64,2.08-2.87,1.3-6.77,2.35-10.68,3.39-7.81,2.34-15.61,3.9-17.7,4.42-5.46,1.56-11.19,2.87-16.66,4.69-5.72,1.82-10.93,3.9-15.88,6.77-2.6,1.3-5.2,3.12-7.54,4.94-.26,0-.78.52-1.31.78-.26.26-.52.52-.78.52-.52.78-1.3,1.04-1.56,1.04q-1.04,0-2.34-.78l-1.82-1.04,1.04-2.08c2.08-4.16,3.38-8.85,5.2-13.02,3.91-9.37,7.81-18.48,11.72-27.59,1.56-3.38,2.86-7.55,4.42-10.67s3.13-6.51,4.43-9.89c.26-1.04.78-2.08,1.3-3.39.78-.78,1.04-1.56,1.3-2.6,1.04-2.86,2.08-5.73,3.39-8.33.26-.52.52-1.04.78-2.08.52-.78.78-1.56,1.04-2.08,1.04-3.13,3.12-8.33,5.46-13.54,1.83-5.21,3.91-10.15,5.47-12.23.26-.26.52-.52.78-1.3.26-.27.52-.79,1.04-1.31l1.3-1.04,1.57.78c.52.26,1.04.78,1.3,1.04.26.26.52.79.52,1.31.52.78,1.04,1.56,1.56,2.6.78,2.34,2.34,4.94,3.38,8.07,2.09,5.46,4.43,11.71,4.95,13.53,3.9,9.9,8.59,19.53,11.71,29.42q0,.26.26,1.04c.26.26.52.78.52,1.04,1.31,2.34,2.61,5.73,3.91,9.37,1.56,3.39,2.86,7.03,3.64,9.37.26,1.04.26,2.09.26,3.13,0,1.82-1.3,3.12-2.34,3.64Z"/>
      <path d="M1034.55,134.06c0-3.12-.26-6.51-.26-9.63q0-.26-.26-.52v-1.04q0-.26-.26-.52v-1.56c0-.26-.26-.26-.26-.26v-1.56c-.26-.52-.52-1.3-.78-2.08-.26-.78-.52-1.82-1.04-3.12-.78-2.08-1.3-4.43-1.82-5.73-6.25-11.71-15.36-17.7-27.85-22.13-1.04-.52-2.08-.52-3.12-.78-1.56-.26-2.6-.52-3.9-.78-2.08-.78-5.21-1.82-7.29-1.82h-3.38l2.34-2.34c.26,0,.52-.26,1.04-.52.26,0,.52-.52,1.04-.52,1.04-.52,2.08-.78,3.12-1.3,2.34-.78,4.69-1.56,5.47-2.08,13.54-6.25,21.34-19.78,21.34-34.1,0-11.71-5.99-24.73-16.14-30.72-1.04-.52-1.82-1.3-2.6-1.82-1.04-.26-1.82-.78-2.86-1.04-3.12-1.3-6.77-2.6-10.41-3.38-.78-.26-1.82-.26-2.34-.52-.78,0-1.56-.26-2.08-.52h-1.04c-.52,0-1.04,0-1.3-.26-.52,0-.78,0-1.3-.26h-1.82c-.78,0-1.3,0-1.82-.26h-2.86c-.78-.26-1.82-.26-2.6-.26h-58.83c0,.26-.26.52-.52.52,0,.26-.26.26-.26.26l-.26.26c-.26.26-.52.52-.52,1.56,0,0,.26.52.26,1.56.26.78.52,1.56.78,2.34.52,2.08,1.04,4.16,1.3,5.73.52,5.47,1.82,10.93,1.82,16.4,0,35.92.26,71.84.26,107.77,0,5.47-.52,11.71-.52,17.18,0,1.82-.52,3.38-.52,5.21,0,3.64-.52,9.63-1.56,13.28-.26.52-.78,2.08-1.04,3.38-.26.78-.52,1.3-.52,2.08-.26.52-.26,1.04-.52,1.82,0,.26.26.26.26.52s0,.52.26.78c.26.78.52,1.04.78,1.04,1.3.52,9.11.52,17.18.52h36.7c8.59-.26,16.4-.52,17.7-.78l.26-.52h.52c1.04.52,3.9-.26,7.29-1.04,2.86-.78,5.73-1.56,7.03-1.82,17.44-5.21,28.11-15.36,34.62-32.54,1.82-3.9,3.12-9.89,3.12-14.06ZM923.4,12.23c0-1.3,0-2.6,1.56-4.95l1.04-.26h37.48c.52,0,.52.26.78.26h5.47c1.56,0,3.38.52,4.95.52l.78.26h1.3c.26,0,.26.26.52.26h.52s.26.26.52.26h1.04l.52.26h.26c.26.26.52.26,1.04.26.78.26,1.56,1.04,2.6,1.3,2.08.52,4.43,1.3,5.21,1.82,12.23,5.99,19.26,17.18,19.26,30.72,0,15.62-6.77,25.77-20.56,32.28-1.3.78-3.12,1.3-4.69,1.56-1.3.52-2.86.78-4.17,1.56-3.64,1.56-14.06,2.6-17.96,2.6h-10.41c-2.34,0-4.69.26-6.77.26h-17.96c-.78,0-1.3-.26-1.82-1.04q0-.26-.26-.52l-.26-1.04V12.23ZM1018.41,155.14c-.52.78-.78,1.3-1.3,2.34-.26.52-.52,1.04-.78,1.82l-.26.26-.26.26c-.52.52-1.56,1.3-2.08,2.34-.26.52-.78,1.04-1.04,1.3-.26.52-.78,1.3-1.04,1.82-2.34,1.82-4.69,3.9-7.29,5.47-3.38,2.34-11.71,6.25-15.62,6.77l-4.17.78-.26.26h-.78c-.52,0-2.34,0-4.95.26-2.34.26-4.69.52-5.73.52-4.95.78-9.89-.26-14.84,0-4.69.26-9.37.26-14.06.26h-16.66c-.26,0-.26-.26-.52-.26h-.78l-1.04.26-1.82-1.82v-9.37c0-4.95.26-9.63.26-14.32v-43.21c0-7.55.26-15.1.26-22.65v-.52l.26-.78c.52-.26,1.04-.52,1.82-.78h43.47c6.77,0,21.34,1.82,27.85,4.43,16.66,7.55,27.07,20.56,27.07,39.57,0,10.15-1.56,15.88-5.73,24.99Z"/>
      <path d="M1142.31,172.84c.52-1.56,1.04-2.6,1.56-3.9.78-1.56,1.56-2.86,2.08-4.69.78-1.3,1.04-3.12,1.04-4.43,0,0,0-.26-.26-.26,0-.26-.26-.52-.26-.52-.52-.78-.78-1.04-1.04-1.3-1.82.26-3.64,2.08-5.99,4.17-1.04,1.3-2.08,2.6-3.12,3.9-.78,1.04-1.82,1.82-2.86,2.6-8.07,6.51-18.48,9.11-28.89,9.11h-50.24l-.26-.26-.26-.26c-.26,0-.52-.26-.78-.26l-.26-.26v-.26c0-52.32-.26-104.9-.26-156.96,0-6.25-1.04-10.93-6.51-14.06-1.3-.78-5.21-2.34-6.77-2.34-.52,0-3.64-.26-6.51-.26-1.3.26-2.34.26-3.12.52-1.3.26-1.56.78-1.56,1.04,0,.52.26,1.04,1.56,1.82,1.04.78,2.34,1.3,3.9,2.34,2.86,2.08,6.25,4.95,7.55,10.15.26.78.26,1.56.52,2.6.26.78.26,1.82.26,2.6v31.24c0,4.43.26,8.59.26,12.75v67.42c0,6.25-.26,12.76-.26,19,0,3.12-.52,6.51-.52,9.63,0,7.29-3.38,11.45-6.77,14.32-1.82,1.3-3.38,2.34-4.69,3.12-.78.26-1.04.52-1.56,1.3-.26.26-.26.52-.26.52,0,.52,1.04,1.3,2.08,1.3,9.63,0,19-1.56,28.89-1.56,20.56,0,41.13,1.04,61.95,1.04,8.07,0,18.22-2.6,21.34-10.93Z"/>
      <path d="M1321.59,182.21c-1.04-.26-2.08-.52-3.12-1.04-2.6-1.3-4.43-2.6-6.77-4.95-3.12-2.86-5.99-7.03-8.07-10.93-2.86-5.21-4.43-11.45-7.03-16.66-1.56-3.38-2.86-7.03-3.9-10.67-.52-.26-.78-.78-1.04-1.04-.26-.52-.52-1.3-.78-1.82-.52-2.34-1.04-3.9-1.82-5.99-2.08-4.17-3.38-8.33-4.95-12.75-3.38-8.07-6.51-16.4-9.89-24.73-.52-1.3-2.08-5.47-3.9-9.63-1.56-4.17-2.86-7.55-3.12-8.07l-.52-1.3v.26c0-.26-.52-.52-.52-1.04-.52-.78-.78-2.08-1.3-3.64-1.3-2.86-2.6-6.77-4.43-10.93-3.12-8.07-6.51-16.4-7.03-18.22-2.6-5.73-4.43-12.23-7.03-17.96-.78-1.3-1.3-2.6-1.56-3.9-.26-1.3-.78-2.34-1.04-3.12l-2.34-4.95c-2.08-3.9-4.95-6.51-8.85-6.51-3.64,0-6.77,2.6-8.85,5.99-.26.78-.52,1.3-.78,2.08-.26.78-.78,1.56-1.04,2.34-.52,1.3-1.3,3.38-2.34,4.95-.52,1.56-1.3,3.38-1.56,4.43-1.04,3.38-2.34,7.29-3.9,10.15-1.3,3.12-3.38,7.55-4.16,10.67-.78.78-1.04,1.82-1.3,3.12-.26,1.04-.78,2.08-1.3,3.12-1.04,1.82-3.9,9.37-4.69,11.71-.26.52-1.3,3.12-2.34,5.21-.52,1.3-.78,2.34-1.56,3.38-.26.26-.52.78-.52,1.3,0,0-.26,0-.26.26-.52,2.08-2.6,7.81-3.12,8.85-2.6,4.69-4.69,10.15-6.77,15.1-1.82,4.95-4.16,10.15-6.25,15.1,0,.26-1.04,2.6-1.82,4.95-.52,1.04-.78,2.34-1.3,3.12,0,.52-.52,1.04-.52,1.3-.26.78-.78,1.56-1.04,2.34,0,.26-.26.52-.52.78q0,.26-.26.52c-1.04,3.9-2.6,7.55-4.43,11.19-1.82,5.21-5.47,14.84-9.63,23.69-3.64,8.85-8.59,17.96-13.8,21.35-2.08,1.3-3.9,2.08-5.73,2.6-1.82.52-3.38.78-5.21,1.04,0,.26-.26.26-.26.52v.26h.52q.26.26.52.26h44.51q.26,0,.52-.26h1.04l.26-.26c.52-.26,1.04-.26,1.3-.26-.26,0-.26-.26-.52-.26s-.78-.26-1.3-.26c-1.3-.26-2.6-.52-3.38-.52-7.29-1.56-12.23-9.89-12.23-16.92,0-2.6,1.04-5.73,1.82-8.59,1.04-2.86,2.34-5.47,3.38-7.81,9.63-23.95,32.54-32.54,54.66-37.74,3.64-.78,7.29-2.08,10.93-3.12,5.73-1.3,12.49-2.86,18.22-5.21.26-.26,1.04-.52,1.82-1.04.52-.26.78-.26,1.3-.52.26,0,1.3-.26,1.82-.26,1.82,0,2.86.78,4.16,1.82.26.26.52.78.78,1.3s.26,1.04.52,1.3c3.12,5.99,4.95,12.75,7.55,19,2.6,5.21,4.43,10.93,6.25,16.4,1.3,2.6,2.08,5.21,2.86,7.81.52,1.04,1.04,2.6,1.82,3.9.52,1.3,1.3,2.86,1.82,4.43.26.78.52,1.82.78,3.12.26,1.04.52,2.08.52,3.64,0,4.95-1.04,11.19-6.51,14.84-1.82.78-3.12,1.56-4.69,2.34-1.04.52-2.6,1.3-3.9,1.82l-.26.26c.26.78.52,1.04,1.3,1.04,16.14,0,32.8-.26,48.94-.26.26,0,.78,0,1.56-.26.26,0,.52,0,.52-.26v-.26h-1.04c-1.3-.26-2.86-.78-3.9-1.04ZM1260.68,97.61c-1.04.78-2.34,1.3-3.64,2.08-2.86,1.3-6.77,2.34-10.67,3.38-7.81,2.34-15.62,3.9-17.7,4.43-5.47,1.56-11.19,2.86-16.66,4.69-5.73,1.82-10.93,3.9-15.88,6.77-2.6,1.3-5.21,3.12-7.55,4.95-.26,0-.78.52-1.3.78-.26.26-.52.52-.78.52-.52.78-1.3,1.04-1.56,1.04q-1.04,0-2.34-.78l-1.82-1.04,1.04-2.08c2.08-4.16,3.38-8.85,5.21-13.02,3.9-9.37,7.81-18.48,11.71-27.59,1.56-3.38,2.86-7.55,4.43-10.67,1.56-3.12,3.12-6.51,4.43-9.89.26-1.04.78-2.08,1.3-3.38.78-.78,1.04-1.56,1.3-2.6,1.04-2.86,2.08-5.73,3.38-8.33.26-.52.52-1.04.78-2.08.52-.78.78-1.56,1.04-2.08,1.04-3.12,3.12-8.33,5.47-13.54,1.82-5.21,3.9-10.15,5.47-12.23.26-.26.52-.52.78-1.3.26-.26.52-.78,1.04-1.3l1.3-1.04,1.56.78c.52.26,1.04.78,1.3,1.04.26.26.52.78.52,1.3.52.78,1.04,1.56,1.56,2.6.78,2.34,2.34,4.95,3.38,8.07,2.08,5.47,4.43,11.71,4.95,13.54,3.9,9.89,8.59,19.52,11.71,29.41q0,.26.26,1.04c.26.26.52.78.52,1.04,1.3,2.34,2.6,5.73,3.9,9.37,1.56,3.38,2.86,7.03,3.64,9.37.26,1.04.26,2.08.26,3.12,0,1.82-1.3,3.12-2.34,3.64Z"/>
      <path d="M1410.48,103.08c-1.04-.52-1.82-1.3-2.34-1.82-1.82-1.56-3.64-2.86-5.73-4.17-1.82-1.04-3.9-2.34-5.73-3.64-.52-.26-1.82-.78-3.12-1.56s-2.86-1.56-4.43-2.08c-1.82-.78-3.12-1.56-4.16-2.34-1.04-.26-1.56-.52-1.82-.78s-.52-.26-.78-.52c-1.3-.26-4.17-1.56-6.51-2.34-3.12-1.04-5.73-2.6-7.03-3.12-3.12-1.3-6.25-2.6-9.37-3.38-2.34-.78-4.69-1.56-6.51-2.86-2.08-.78-4.16-1.82-5.99-2.86-12.23-5.47-18.48-9.11-24.47-22.65-1.3-1.82-2.08-4.69-2.08-7.29v-6.25c0-.78,0-1.3.26-2.34,0-.26,0-.52.26-.78v-.78c0-.26.26-.52.26-1.04.52-3.38,2.34-6.51,3.9-9.11,2.08-3.12,3.9-5.47,6.51-8.33,6.77-6.25,19.52-9.89,28.11-9.89,4.95,0,15.36,1.04,20.56,4.17.26.52,1.04.52,1.3.78.52,0,1.04.26,1.82.52,1.3.52,2.34,1.3,3.12,1.56,4.16,3.12,9.11,7.81,11.97,12.23,1.82,2.86,4.17,6.77,5.73,10.15.52,1.82,1.04,4.69,2.08,7.55.78,1.04,1.3,2.08,1.82,3.38.52.78.78,1.3,1.04,1.3.78.52,1.56.52,2.08.52.78,0,1.3-.26,1.56-1.3.52-1.3.78-2.86.78-4.43v-.26c-.26-.26-.26-.52-.26-.78v-.78c-.26-.52-.26-.78-.26-1.04,0-.52,0-.78-.26-.78-.52-2.08-1.04-4.43-1.56-6.51-.52-1.82-1.56-3.9-2.34-5.99-7.29-14.58-27.07-23.17-43.47-23.17h-8.07c-1.04-.26-2.08,0-3.38.26-1.56.26-3.12.78-4.43.78-.52.26-.78.26-1.3.26-.26.26-1.04.26-1.56.26-1.04,0-8.07,2.08-10.41,3.12-8.85,4.17-16.66,10.41-21.08,19.26-1.3,1.82-1.82,4.17-2.86,6.51,0,0,0,.26-.26.52,0,.52-.26,1.3-.52,1.82,0,1.04-.26,1.82-.78,2.34v1.3c0,.26,0,.78-.26,1.3,0,1.04-.26,2.34-.26,3.38,0,12.49,3.38,18.22,10.93,28.11.52.52,1.3,1.04,2.08,1.56.52.52.78.78,1.3,1.3.26.26.52.52.78.78,1.04.26,1.3.78,1.56,1.04,7.81,4.95,18.48,10.93,26.55,13.28,1.3.78,2.6,1.3,3.64,1.82.78.26,2.08.78,2.86,1.04,8.85,3.12,22.65,8.59,30.72,13.54,5.99,3.9,13.8,10.15,17.96,16.14.26.78.52,1.3,1.04,2.08.26.26.78.78,1.04,1.3l.52,2.08v-.26c0,.26.26.26.26.52s.26.52.52.78c.78,3.12,1.56,5.99,2.08,9.11.26,1.3.52,2.34.52,3.64,0,2.6-.52,5.47-.52,7.81v.78c0,.26,0,.78-.52,1.3-.26,3.12-1.56,6.77-2.6,8.85-4.95,9.37-9.11,13.54-18.22,18.74-.78.26-1.82.78-2.34,1.04-.78.26-1.3.78-1.82,1.04l-.78.26h-.52l-.26.26c-.52,0-1.04.26-1.56.52-1.3.26-2.6.78-3.12,1.04-4.69,1.56-10.15,1.82-14.84,1.82-2.08,0-3.9-.26-5.99-.26h-2.08c-.52,0-1.3-.26-1.56-.26s-.52,0-.78-.26h-1.3c-1.04-.26-2.08-.78-2.86-1.04-2.08-.26-4.16-1.04-4.69-1.3-20.82-8.33-28.89-18.48-35.14-40.09-.78-3.38-1.04-7.29-2.34-10.67,0-.26-.52-1.04-1.04-2.34-.26-.26-.78-.52-1.04-.78-2.6,0-3.38,1.3-3.9,2.34-.78,1.3-.78,3.64-.78,6.51,0,1.3.26,2.6.26,3.64,0,13.54,8.33,29.15,19.52,36.44,2.08,1.56,4.16,2.6,6.25,3.38,1.82,1.3,4.16,2.34,6.25,3.64,1.3.52,3.9,1.3,7.03,2.08,1.56.26,2.86.52,3.9.78.78.52,1.3.78,1.82.78,0,0,.26.26.52.26h.52c.52,0,1.04.26,1.56.26s1.04.26,1.3.26h.78l2.08.52c-.26,0-.26-.26-.26-.26h.78c.78.26,1.3.26,1.56.26,2.34,0,4.95.26,7.03.26,2.6,0,5.73-.52,8.07-.52,4.95,0,11.19-1.82,16.14-3.64,19-6.51,33.06-19,34.88-39.31.26-.26.26-1.04.52-1.56v-.78c0-13.8-2.6-26.03-12.23-36.18-.52-.52-1.04-1.3-1.82-1.82Z"/>
      <path d="M1575.45,70.8v.26l.26.26-.26-.52Z"/>
      <path d="M1577.27,83.04c0-.52,0-1.3-.26-1.56l-.26-.52v-2.08c-.26-.52-.26-1.04-.26-1.56v-.52l-.26-.78v-.78c0-.52-.26-.78-.26-1.04s0-.52-.26-1.04v-.78s0-.26-.26-.52v.78l-1.56-8.59c-1.3-5.21-2.6-10.41-4.69-15.1-.52-1.04-1.04-2.08-1.56-3.12s-1.04-2.34-1.3-3.64c-.52-.26-1.04-.78-1.3-1.3-.26-.52-.52-1.3-1.04-1.82-.26-1.04-.52-1.56-.78-2.34-.26-.52-.52-.78-.78-1.3-1.56-2.34-2.86-4.69-4.69-6.77-2.6-3.64-5.73-6.77-9.11-9.63-1.3-1.3-2.6-2.86-4.43-4.17-8.07-7.29-18.48-11.45-29.41-13.8-1.3-.26-2.34-.52-3.64-.78-1.56-.26-2.6-.26-3.9-.26h-9.89c-.78.26-1.3.26-1.82.26-1.3,0-2.08.26-2.86.26-2.86,0-6.25,1.3-9.37,2.34-2.6,1.04-5.21,1.82-8.07,2.86-2.34,1.3-4.69,2.34-7.03,3.64-1.3,1.04-2.34,1.82-3.9,2.86,0,0-.52.26-1.3,1.04-.78.52-1.56,1.04-2.34,1.56l-3.9,3.9c-11.71,10.67-23.17,30.72-25.51,46.33-.26,1.82-1.04,3.9-1.56,6.51-.52,2.34-.78,4.42-.78,5.73,0,2.6-.78,5.73-.78,8.33,0,3.38-.52,6.51-.52,9.63,0,2.08.52,3.64.52,5.21v3.12s0,.26.26.52v1.3c.26,1.04.26,2.34.26,2.6,0,1.04.26,1.82.26,2.6v.26c.26,1.04.52,2.6.52,3.12v.52c-.52-.26-.78-.78.26,1.56v.52c0,.52.26,1.56.26,2.34.52,1.82,1.04,3.9,1.56,6.25,1.3,4.43,2.86,9.11,3.64,10.67,5.99,17.7,20.56,35.92,37.22,44.25,3.12,1.82,6.25,3.12,9.37,4.43,1.04.26,2.6.52,4.17.78.78,0,1.56.26,2.34.52.26,0,1.04.26,1.56.52.52,0,.78,0,1.04.52.78,0,1.82.26,2.6.26,2.08.26,4.17.52,4.69.52,8.33,0,15.88-.52,23.95-2.86,21.87-5.99,41.65-28.89,48.68-50.5.78-2.6,2.08-6.51,3.38-9.89,1.04-3.9,1.82-7.55,2.08-11.45l.26-.26c0-.78,0-1.3.26-2.08.26-1.3.26-3.12.52-5.21.26-3.9.26-7.55.26-9.11v-8.59c0-1.82-.26-3.38-.26-4.69ZM1563.22,103.08v.78q-.26.26-.26.52c0,2.08-.52,4.16-.52,6.25q0,.26.26.26c0,.78-.26,1.3-.52,2.08,0,1.3,0,2.34-.26,3.12-.26.52-.26,1.3-.26,2.08-.26.52-.26.78-.78,2.86,0,.52-.26,1.3-.26,2.34,0,.52-.26.78-.26,1.3-.26,0-.26.26-.26.26,0,.78-.26,1.82-.26,2.6-.26,1.3-1.04,2.6-1.3,3.64-.78,2.86-1.82,5.21-2.08,6.51-5.47,16.92-16.14,32.54-32.02,41.65-1.3.78-3.38,1.82-5.47,3.12-2.6.78-5.21,1.82-7.03,1.82q-.26,0-.78.26c-.52,0-.78,0-1.04.26h-1.3l-.78.26h-1.56c-.78.26-1.3.26-2.08.26-18.74,0-31.76-8.85-42.95-22.91-1.82-2.86-4.43-5.99-5.73-9.37-1.04-2.08-2.08-4.16-3.12-5.99-1.04-2.08-2.08-4.43-2.86-6.51-.52-2.34-1.82-4.43-2.6-6.25-.26-1.56-1.3-5.21-2.08-9.11-.78-3.38-1.56-7.55-1.56-8.85,0-.26,0-.78-.26-1.3v-.78c0,.26.26.26.26.26l-.52-1.04c-.26-2.08-.52-4.17-.52-5.99v-1.04l-.26-1.04c0-2.34-.26-4.69-.26-6.77,0-4.17.26-8.07.26-11.97,0-2.6.52-4.95.52-7.55v-.78c0-.52,0-1.04.26-1.56.26-1.56.26-3.9.78-5.99,0-1.82.26-3.12.52-4.17,0-.52.26-1.04.26-1.56.26,0,.26-.52.26-.78.26-2.34,1.04-5.47,1.82-7.81.78-3.12,1.82-5.73,2.6-8.07.52-2.34,1.56-4.43,2.6-6.77.78-1.82,2.08-4.17,2.86-5.99,7.29-15.88,24.73-32.28,43.73-33.06h.26c.52-.26,1.04-.26,1.56-.26,2.08,0,4.43.26,6.25.26,14.58,0,28.11,10.93,36.18,21.08,4.16,5.21,7.03,11.19,9.89,16.66.52.78.78,1.82,1.3,2.6.52,1.3.78,2.34,1.3,3.12,0,.78.78,2.86,1.56,4.95.26,1.04.52,2.08.78,2.86.26.78.26,1.04.26,1.3.26.52.26,1.04.26,1.3,3.38,7.81,5.21,24.47,5.21,32.28,0,4.43.26,8.85.26,13.02,0,.78,0,1.04-.26,1.3Z"/>
    </g>
  </g>
</svg>