<?xml version="1.0" encoding="UTF-8"?>
<svg id="Layer_1" data-name="Layer 1" xmlns="http://www.w3.org/2000/svg" viewBox="0 0 803.55 500">
  <defs>
    <style>
      .cls-1 {
        fill: #14110f;
      }
    </style>
  </defs>
  <g>
    <path class="cls-1" d="M32.99,430.04h-4.2v-27.01h13.25c6.16,0,10.52,2.93,10.52,9.05s-4.82,9.17-10.6,9.17h-8.98v8.78ZM42.05,406.57h-9.05v11.14h9.02c3.78-.04,6.32-1.35,6.32-5.63s-2.7-5.51-6.28-5.51Z"/>
    <path class="cls-1" d="M60.08,421.83c.12,1.89,1.73,3.39,3.81,4.16,1.66.54,3.89.89,5.82.89,1.43,0,2.89-.15,4.28-.5,2.47-.58,4.32-1.46,4.59-3.51.77-5.12-6.4-4.58-10.6-4.89-4.97-.23-11.56-.54-11.56-7.13,0-5.89,7.28-8.05,12.6-8.17,5.74-.12,13.1,1.58,13.14,8.28h-4.24c-.08-3.97-5.78-4.74-8.86-4.66-2.47,0-8.44.96-8.32,4.55.08,3.04,3.51,3.31,7.24,3.51,7.82.08,15.72,1.12,14.83,8.78-.5,3.97-4.66,6.28-8.55,7.05-1.31.27-2.85.39-4.47.39-2.31,0-4.7-.27-6.7-.92-3.74-1.12-6.94-3.39-7.17-7.82h4.16Z"/>
    <path class="cls-1" d="M92.02,430.04h-4.2v-26.97h4.2v26.97Z"/>
    <path class="cls-1" d="M96.87,416.48c0-8.13,5.93-13.99,14.22-13.99,5.16,0,10.33,2.16,12.37,7.86l-3.39,1.16c-1.77-4.2-5.47-5.36-8.98-5.36-5.89,0-9.94,4.24-9.94,10.33s4.05,10.48,9.94,10.48c3.51,0,7.24-1.35,9.05-5.66l3.51,1.08c-2.43,5.97-7.32,8.21-12.56,8.21-8.28,0-14.22-5.97-14.22-14.1Z"/>
    <path class="cls-1" d="M126.84,416.44c0-8.13,5.97-13.95,14.22-13.95s14.22,5.82,14.22,13.95-5.93,14.02-14.22,14.02-14.22-5.86-14.22-14.02ZM151.04,416.44c0-6.05-4.08-10.4-9.98-10.4s-9.98,4.35-9.98,10.4,4.08,10.44,9.98,10.44,9.98-4.39,9.98-10.44Z"/>
    <path class="cls-1" d="M165.14,426.38h16.91v3.66h-21.19v-26.97h4.28v23.31Z"/>
    <path class="cls-1" d="M183.48,416.44c0-8.13,5.97-13.95,14.22-13.95s14.22,5.82,14.22,13.95-5.93,14.02-14.22,14.02-14.22-5.86-14.22-14.02ZM207.68,416.44c0-6.05-4.08-10.4-9.98-10.4s-9.98,4.35-9.98,10.4,4.08,10.44,9.98,10.44,9.98-4.39,9.98-10.44Z"/>
    <path class="cls-1" d="M242.73,415.17v8.13c-2.2,5.39-7.44,7.24-12.56,7.24-8.28,0-14.26-5.82-14.26-13.95s5.97-14.1,14.26-14.1c5.12,0,10.21,2.16,12.29,7.86l-3.35,1.19c-1.81-3.97-5.47-5.43-8.94-5.43-5.93,0-9.98,4.39-9.98,10.48s4.05,10.29,9.98,10.29c3.28,0,7.36-1,8.86-4.35l-.04-3.97h-9.82v-3.39h13.56Z"/>
    <path class="cls-1" d="M253.25,430.04h-4.2v-26.97h4.2v26.97Z"/>
    <path class="cls-1" d="M279.68,423.26h-15.26l-3.43,6.78h-4.66l13.72-27.24h4.05l13.68,27.24h-4.66l-3.43-6.78ZM272.09,406.57l-2.31,5.59-3.51,7.44h11.56l-3.47-7.36-2.27-5.66Z"/>
    <path class="cls-1" d="M300.06,416.48c0-8.13,5.93-13.99,14.22-13.99,5.16,0,10.33,2.16,12.37,7.86l-3.39,1.16c-1.77-4.2-5.47-5.36-8.98-5.36-5.89,0-9.94,4.24-9.94,10.33s4.05,10.48,9.94,10.48c3.51,0,7.24-1.35,9.05-5.66l3.51,1.08c-2.43,5.97-7.32,8.21-12.56,8.21-8.28,0-14.22-5.97-14.22-14.1Z"/>
    <path class="cls-1" d="M335.7,426.38h16.91v3.66h-21.19v-26.97h4.28v23.31Z"/>
    <path class="cls-1" d="M360.32,430.04h-4.2v-26.97h4.2v26.97ZM364.83,394.9h-4.85l-3.58,5.12v.19h3.58l4.85-5.16v-.15Z"/>
    <path class="cls-1" d="M366.67,430.04v-26.97h3.97l14.02,16.68,3.97,5.7-.62-7.05v-15.33h4.12v26.97h-3.97l-14.72-17.49-3.08-4.51.42,5.66v16.34h-4.12Z"/>
    <path class="cls-1" d="M403.2,430.04h-4.2v-26.97h4.2v26.97Z"/>
    <path class="cls-1" d="M408.05,416.48c0-8.13,5.93-13.99,14.22-13.99,5.16,0,10.33,2.16,12.37,7.86l-3.39,1.16c-1.77-4.2-5.47-5.36-8.98-5.36-5.89,0-9.94,4.24-9.94,10.33s4.05,10.48,9.94,10.48c3.51,0,7.24-1.35,9.05-5.66l3.51,1.08c-2.43,5.97-7.32,8.21-12.56,8.21-8.28,0-14.22-5.97-14.22-14.1Z"/>
    <path class="cls-1" d="M459.56,423.26h-15.26l-3.43,6.78h-4.66l13.72-27.24h4.05l13.68,27.24h-4.66l-3.43-6.78ZM451.97,406.57l-2.31,5.59-3.51,7.44h11.56l-3.47-7.36-2.27-5.66Z"/>
    <path class="cls-1" d="M45.67,451.22c0-3.2-3.01-4.2-5.82-4.2-2.58,0-5.59,1.7-5.59,4.51,0,1.46.92,2.54,1.96,3.31l11.94,9.21c.89-1.12.77-2.58.77-4.28h3.89c0,2.7-.54,4.78-1.62,6.47l5.32,4.2v.54h-5.32l-2.62-2.08c-2.54,2.08-5.66,2.62-8.67,2.62-5.24,0-11.17-2.2-12.14-7.71v.04c-.62-3.39,1.27-6.36,4.28-7.63-1.23-1.31-1.89-3.04-1.89-4.74,0-5.32,5.2-7.78,9.56-7.78,5.32,0,9.75,2.23,9.75,7.51h-3.81ZM35.19,458.81c-1.97.58-3.58,2.2-3.31,4.39.96,3.47,4.82,4.78,7.9,4.78,2.04,0,4.08-.46,5.7-1.31l-10.29-7.86Z"/>
    <path class="cls-1" d="M75.49,470.98h-4.2v-26.97h4.2v26.97Z"/>
    <path class="cls-1" d="M81.88,470.98v-26.97h4.39l11.37,14.76,11.44-14.76h4.28v26.97h-4.24v-15.07l.31-6.24-10.63,13.83h-2.39l-10.6-13.76.27,6.36v14.87h-4.2Z"/>
    <path class="cls-1" d="M140.68,464.2h-15.26l-3.43,6.78h-4.66l13.72-27.24h4.05l13.68,27.24h-4.66l-3.43-6.78ZM133.09,447.52l-2.31,5.59-3.51,7.44h11.56l-3.47-7.36-2.27-5.66Z"/>
    <path class="cls-1" d="M176.39,456.11v8.13c-2.2,5.39-7.44,7.24-12.56,7.24-8.28,0-14.26-5.82-14.26-13.95s5.97-14.1,14.26-14.1c5.12,0,10.21,2.16,12.29,7.86l-3.35,1.19c-1.81-3.97-5.47-5.43-8.94-5.43-5.93,0-9.98,4.39-9.98,10.48s4.05,10.29,9.98,10.29c3.28,0,7.36-1,8.86-4.35l-.04-3.97h-9.82v-3.39h13.56Z"/>
    <path class="cls-1" d="M187.1,455.76h16.26v3.51h-16.26v8.09h16.95v3.62h-21.23v-26.97h21.23v3.62h-16.95v8.13Z"/>
    <path class="cls-1" d="M209.68,470.98v-26.97h4.39l11.37,14.76,11.44-14.76h4.28v26.97h-4.24v-15.07l.31-6.24-10.63,13.83h-2.39l-10.6-13.76.27,6.36v14.87h-4.2Z"/>
    <path class="cls-1" d="M257.41,457.42c0-8.13,5.93-13.99,14.22-13.99,5.16,0,10.33,2.16,12.37,7.86l-3.39,1.16c-1.77-4.2-5.47-5.36-8.98-5.36-5.89,0-9.94,4.24-9.94,10.33s4.05,10.48,9.94,10.48c3.51,0,7.24-1.35,9.05-5.66l3.51,1.08c-2.43,5.97-7.32,8.21-12.56,8.21-8.28,0-14.22-5.97-14.22-14.1Z"/>
    <path class="cls-1" d="M287.39,457.38c0-8.13,5.97-13.95,14.22-13.95s14.22,5.82,14.22,13.95-5.93,14.02-14.22,14.02-14.22-5.86-14.22-14.02ZM311.58,457.38c0-6.05-4.08-10.4-9.98-10.4s-9.98,4.35-9.98,10.4,4.08,10.44,9.98,10.44,9.98-4.39,9.98-10.44Z"/>
    <path class="cls-1" d="M342.98,446.21c1.89,1.5,2.85,3.89,2.85,6.28s-1.12,4.85-3.04,6.4c-1.54,1.19-3.7,1.66-6.36,1.85l9.25,9.98v.27h-5.01l-9.52-10.21h-5.47v10.21h-4.24v-26.97h13.91c2.39,0,5.47.46,7.63,2.2ZM341.6,452.45c0-3.74-2.77-4.85-6.24-4.85h-9.67v9.67h10.09c3.7,0,5.82-1.39,5.82-4.82Z"/>
    <path class="cls-1" d="M354.96,470.98h-4.2v-27.01h13.25c6.16,0,10.52,2.93,10.52,9.05s-4.82,9.17-10.6,9.17h-8.98v8.78ZM364.02,447.52h-9.05v11.14h9.02c3.78-.04,6.32-1.35,6.32-5.63s-2.7-5.51-6.28-5.51Z"/>
    <path class="cls-1" d="M378.35,457.38c0-8.13,5.97-13.95,14.22-13.95s14.22,5.82,14.22,13.95-5.93,14.02-14.22,14.02-14.22-5.86-14.22-14.02ZM402.55,457.38c0-6.05-4.08-10.4-9.98-10.4s-9.98,4.35-9.98,10.4,4.08,10.44,9.98,10.44,9.98-4.39,9.98-10.44Z"/>
    <path class="cls-1" d="M433.94,446.21c1.89,1.5,2.85,3.89,2.85,6.28s-1.12,4.85-3.04,6.4c-1.54,1.19-3.7,1.66-6.36,1.85l9.25,9.98v.27h-5.01l-9.52-10.21h-5.47v10.21h-4.24v-26.97h13.91c2.39,0,5.47.46,7.63,2.2ZM432.56,452.45c0-3.74-2.77-4.85-6.24-4.85h-9.67v9.67h10.09c3.7,0,5.82-1.39,5.82-4.82Z"/>
    <path class="cls-1" d="M461.84,464.2h-15.26l-3.43,6.78h-4.66l13.72-27.24h4.05l13.68,27.24h-4.66l-3.43-6.78ZM454.25,447.52l-2.31,5.59-3.51,7.44h11.56l-3.47-7.36-2.27-5.66Z"/>
    <path class="cls-1" d="M477.4,467.32h16.91v3.66h-21.19v-26.97h4.28v23.31Z"/>
  </g>
  <g>
    <path class="cls-1" d="M29,184.53c-.67.22-1.12.45-2.02.67-.45.22-.67.45-.9.67-.22,0-.45.22-.45.22l.22.45s.22.45.9.67c1.12.22,2.24.22,2.91.22,17.26,0,34.53.22,51.79.22h.9c.45-.22.9-.22,1.12-.22h.9c2.24,0,4.93-.45,7.4-.45.45-.45.67-.45,1.12-.45h.22c.45-.22.9-.22,1.12-.22.9,0,1.35-.22,1.79-.22.9,0,1.57-.22,2.91-.45,1.12-.22,2.02-.67,3.14-.9,15.47-3.81,28.03-11.88,37.89-24.89.45-.67,1.57-2.24,2.91-4.26,1.12-1.79,2.24-3.36,2.47-3.81,2.02-5.16,4.26-9.42,5.83-14.57.22-.45.22-.67.45-1.12,0-.45.22-.9.45-1.57,0-.9.22-1.79.45-2.69,0-1.12.45-2.24.67-3.36.45-2.47,1.12-4.71,1.35-6.95,0-2.47.45-4.93.45-7.4v-4.71c0-1.12.22-2.91.22-4.26,0-1.79-.22-2.91-.45-4.26-.22-1.57-.45-4.04-.45-5.61v-.67c-.22-.45-.67-.9-.67-1.34q0-.22.45-.45c-.45-.22-.45-.45-.45-.67s0-.22-.22-.45v-1.35c0-.22-.22-.22-.22-.22,0-.45-.22-.9-.22-1.35-.22-.9-.45-2.02-.45-2.69v-.22c-.22-.45-.22-.67-.45-1.12-2.91-8.97-6.5-17.71-12.11-24.89-8.52-10.99-16.59-17.04-29.6-22.64-.9-.45-2.24-.67-3.36-1.12-1.34-.67-3.36-1.57-4.71-1.57-.22,0-1.79-.45-3.36-.67-.9-.22-1.57-.45-2.02-.45-.22,0-.45-.22-.67-.22-.45,0-.67-.22-1.12-.22-.67,0-1.12,0-1.57-.22h-.45l-.9-.22h-.9c-.22,0-.67-.45-.9-.45-.45,0-.67-.22-1.12-.22h-1.79l-6.5-.45h2.91c-1.57-.22-2.91-.45-4.26-.45h-36.55c-1.57,0-2.91.22-4.48.22-1.12,0-4.71-.22-8.07,0-1.57.22-3.14.45-4.04.67-.45.22-.67.67-.67.67q0,.45.45.67c.9.45,2.24.9,3.36,1.35,3.14,2.02,5.83,5.38,5.83,13.23v74.66c0,4.93-.22,9.86-.22,14.8,0,12.78.9,25.56-.22,38.34-.45,5.61-3.59,7.62-6.05,8.97ZM44.02,164.35V39.47c0-3.59,2.47-5.16,4.71-5.61,1.12-.22,2.02-.22,3.36-.22h21.75c3.14,0,6.28.67,8.97.67h.67c.45-.22,1.12,0,1.57.22,1.35,0,2.91.22,4.26.45,1.35.45,3.14,1.12,4.26,1.35,11.66,2.02,25.34,10.99,33.41,19.73,1.34,1.34,2.47,3.14,3.59,4.71,1.12,1.79,2.02,3.14,2.91,4.93,2.47,3.14,4.04,6.73,5.38,10.31.45,1.12.9,2.69,1.35,4.04.45,1.35.9,2.69,1.35,3.59,0,.22.22.67.67,1.12,0,.67.22,1.12.22,1.57s.22.67.22,1.12c0-.22-.45-.22.45,1.79v.22c.22.22.22.67.22.9.22.22.22.67.22,1.35l-.22-.45.22,1.57.45,1.12v2.24c.22,1.12.22,2.69.45,4.04.22,3.36.67,6.73.67,8.3,0,2.47-.22,5.38-.22,8.07,0,0,0,.9-.22,2.47,0,.9-.22,1.57-.22,2.47,0,.45,0,1.12-.22,1.79v1.35c-.22.45-.22.67-.22.9-.45,1.57-.67,3.59-.9,5.16-.45,2.69-2.47,8.97-3.36,11.43-4.04,10.76-8.74,17.49-16.82,25.56-.45.45-1.57,1.35-2.47,2.24-.45.67-.9.9-1.35,1.35-.45.22-.9.45-1.35.67-5.6,5.38-22.2,11.88-29.59,12.11-.22,0-.45.22-.9.22-.22,0-.67.22-.9.22h-.9c-3.36,0-6.95.45-10.09.45-6.95,0-14.13-.22-21.08-.22-9.19,0-10.54-6.05-10.54-13,0-2.47.22-5.16.22-7.4Z"/>
    <path class="cls-1" d="M157.47,186.32v.22l.22.22q.22,0,.45.22c.22,0,.22.22.45.22h20.85c3.59,0,7.4.22,10.99.22h59.64c3.81,0,5.38-1.35,6.5-3.59.45-1.12.9-2.24,1.57-4.04.22-1.35.67-3.14,1.12-4.48.22-.67.45-2.69.45-3.36,0-.9-.22-2.24-.67-2.91-.22-.9-.9-1.35-1.57-1.35,0,0-.22.22-.45.22,0,.22-.22.22-.22.45-.45.45-.9,1.12-1.12,1.57-.45.67-.9,1.57-1.35,2.02-.45.67-.9,1.12-1.34,1.35-3.81,4.26-11.88,9.19-17.94,9.19h-.22c-.22.22-.45.45-.9.45s-.67-.22-1.12-.22c-2.69,0-6.05.67-9.19.67h-5.61c-2.02,0-3.81,0-5.6.22h-10.09s.22-.22.45-.45l-1.79.22h-21.3c-2.91,0-6.73-.22-9.19-3.14-1.79-1.79-2.24-5.83-2.69-9.64-.22-3.81-.22-7.62-.22-9.64,0-2.47.22-4.71.22-6.95s-.45-4.71-.45-6.73v-17.94c0-6.73.22-13.45.22-19.95v-6.5h14.8c7.85,0,15.69.22,23.54.22,1.79,0,3.81.22,5.6.22h.67s.22,0,.45.22h.45c5.38,0,10.54,1.57,15.02,3.59.67.45,1.35.67,2.24,1.12.67.22,1.35.22,1.79.22,1.12,0,2.47-.9,3.14-3.14.67-2.24.67-4.71.67-6.5,0-2.24-.67-4.04-2.02-4.71q-.45,0-.67-.22c-1.57,0-2.91.67-4.93,1.35-.9.22-2.02.67-3.14,1.12-.45,0-.67.22-.9.22s-.45.45-.67.45c-.45,0-1.12.22-1.57.22l-.9.22h-.45l-.9.22c-.67,0-1.34.22-2.02.22-.67.22-1.12.22-1.57.22-.45.22-.9.22-1.35.22h-.67c0,.22-.22.22-.22.22h-.9c-1.34,0-2.69.22-4.26.22-2.91,0-6.28.22-9.42.22h-29.6c-.22,0-.67,0-1.12-.22h-.22l-.67-.22-.22-.67c0-.45-.22-1.35-.22-1.79,0-8.74.22-17.94.22-26.9,0-3.36.22-6.73.22-10.09,0-4.04.45-8.3.45-12.11,0-.45-.22-.9-.22-1.35l-1.34,2.91,1.57-4.93v-.45c0-4.04,2.91-9.42,8.07-9.42h45.96c1.79,0,3.81.45,5.61.45,8.07,0,15.47,2.47,21.75,7.4.67.45,1.35,1.12,1.79,1.57.45.67.9,1.57,1.35,2.02.45.67,1.12,1.12,1.57,1.35.45.45.67.45.9.45,1.12,0,2.69-1.35,2.69-3.36,0-1.57-.67-3.36-.67-4.93-.67-1.57-.9-3.14-1.57-4.26-.45-1.12-1.12-2.02-2.91-2.91h-.22c-.22-.22-.45-.22-.67-.22-.22-.22-.45-.22-.67-.45h-1.79c-.45-.22-.9-.22-1.34-.22h-89.91s-.67.45-.67,1.35c0,.67.22,1.35.45,2.47.22.45.45.9.45,1.34.22.45.22,1.35.22,2.02.45.67.45,1.79.67,3.14.22,1.35.22,2.91.45,4.93v8.52c0,4.71.45,9.19.45,13.68,0,9.19-.22,18.61-.22,27.8,0,1.35-.22,2.69-.22,3.81v48.65c0,7.4.67,17.26,0,24.44,0,.45-.22,1.12-.22,1.79-.22.45-.22.9-.22,1.12,0,.45,0,.67-.22,1.12,0,.67,0,1.35-.22,1.57v.45c0,1.34-.45,2.91-.9,4.04-.22.67-.45,1.12-.45,1.57-.45.67-.45.9-.45,1.12,0,.45,0,.67.45.67Z"/>
    <path class="cls-1" d="M266.83,167.49c0,3.14-.45,8.3-1.34,11.43-.22.45-.67,1.79-.9,2.91-.22.67-.45,1.12-.45,1.79-.22.45-.22.9-.45,1.57,0,.22.22.22.22.45s0,.45.22.67c.22.67.45.9.67.9,1.12.45,7.85.45,14.8.45h31.61c7.4-.22,14.12-.45,15.25-.67l.22-.45h.45c.9.45,3.36-.22,6.28-.9,2.47-.67,4.93-1.35,6.05-1.57,15.02-4.48,24.21-13.23,29.82-28.03,1.57-3.36,2.69-8.52,2.69-12.11,0-2.69-.22-5.61-.22-8.3q0-.22-.22-.45v-.9q0-.22-.22-.45v-1.35c0-.22-.22-.22-.22-.22v-1.35c-.22-.45-.45-1.12-.67-1.79-.22-.67-.45-1.57-.9-2.69-.67-1.79-1.12-3.81-1.57-4.93-5.38-10.09-13.23-15.25-23.99-19.06-.9-.45-1.79-.45-2.69-.67-1.35-.22-2.24-.45-3.36-.67-1.79-.67-4.48-1.57-6.28-1.57h-2.91l2.02-2.02c.22,0,.45-.22.9-.45.22,0,.45-.45.9-.45.9-.45,1.79-.67,2.69-1.12,2.02-.67,4.04-1.35,4.71-1.79,11.66-5.38,18.39-17.04,18.39-29.37,0-10.09-5.16-21.3-13.9-26.46-.9-.45-1.57-1.12-2.24-1.57-.9-.22-1.57-.67-2.47-.9-2.69-1.12-5.83-2.24-8.97-2.91-.67-.22-1.57-.22-2.02-.45-.67,0-1.35-.22-1.79-.45h-.9c-.45,0-.9,0-1.12-.22-.45,0-.67,0-1.12-.22h-1.57c-.67,0-1.12,0-1.57-.22h-2.47c-.67-.22-1.57-.22-2.24-.22h-50.67c0,.22-.22.45-.45.45,0,.22-.22.22-.22.22l-.22.22c-.22.22-.45.45-.45,1.35,0,0,.22.45.22,1.35.22.67.45,1.35.67,2.02.45,1.79.9,3.59,1.12,4.93.45,4.71,1.57,9.42,1.57,14.13,0,30.94.22,61.88.22,92.82,0,4.71-.45,10.09-.45,14.8,0,1.57-.45,2.91-.45,4.48ZM276.24,39.02c0-1.12,0-2.24,1.34-4.26l.9-.22h32.29c.45,0,.45.22.67.22h4.71c1.35,0,2.91.45,4.26.45l.67.22h1.12c.22,0,.22.22.45.22h.45s.22.22.45.22h.9l.45.22h.22c.22.22.45.22.9.22.67.22,1.34.9,2.24,1.12,1.79.45,3.81,1.12,4.48,1.57,10.54,5.16,16.59,14.8,16.59,26.46,0,13.45-5.83,22.2-17.71,27.8-1.12.67-2.69,1.12-4.04,1.34-1.12.45-2.47.67-3.59,1.35-3.14,1.35-12.11,2.24-15.47,2.24h-8.97c-2.02,0-4.04.22-5.83.22h-15.47c-.67,0-1.12-.22-1.57-.9q0-.22-.22-.45l-.22-.9v-57.17ZM276.02,181.16v-7.62c0-4.26.22-8.3.22-12.33v-37.22c0-6.5.22-13,.22-19.51v-.45l.22-.67c.45-.22.9-.45,1.57-.67h37.44c5.83,0,18.38,1.57,23.99,3.81,14.35,6.5,23.32,17.71,23.32,34.08,0,8.74-1.35,13.68-4.93,21.52-.45.67-.67,1.12-1.12,2.02-.22.45-.45.9-.67,1.57l-.22.22-.22.22c-.45.45-1.35,1.12-1.79,2.02-.22.45-.67.9-.9,1.12-.22.45-.67,1.12-.9,1.57-2.02,1.57-4.04,3.36-6.28,4.71-2.91,2.02-10.09,5.38-13.45,5.83l-3.59.67-.22.22h-.67c-.45,0-2.02,0-4.26.22-2.02.22-4.04.45-4.93.45-4.26.67-8.52-.22-12.78,0-4.04.22-8.07.22-12.11.22h-14.35c-.22,0-.22-.22-.45-.22h-.67l-.9.22-1.57-1.57v-.45Z"/>
    <path class="cls-1" d="M373.37,117.71s0,.22.22.45v1.12c.22.9.22,2.02.22,2.24,0,.9.22,1.57.22,2.24v.22c.22.9.45,2.24.45,2.69v.45c-.45-.22-.67-.67.22,1.34v.45c0,.45.22,1.35.22,2.02.45,1.57.9,3.36,1.35,5.38,1.12,3.81,2.47,7.85,3.14,9.19,5.16,15.25,17.71,30.94,32.06,38.11,2.69,1.57,5.38,2.69,8.07,3.81.9.22,2.24.45,3.59.67.67,0,1.35.22,2.02.45.22,0,.9.22,1.35.45.45,0,.67,0,.9.45.67,0,1.57.22,2.24.22,1.79.22,3.59.45,4.04.45,7.17,0,13.68-.45,20.63-2.47,18.83-5.16,35.87-24.89,41.93-43.5.67-2.24,1.79-5.61,2.91-8.52.9-3.36,1.57-6.5,1.79-9.86l.22-.22c0-.67,0-1.12.22-1.79.22-1.12.22-2.69.45-4.48.22-3.36.22-6.5.22-7.85v-7.4c0-1.57-.22-2.91-.22-4.04,0-.45,0-1.12-.22-1.35l-.22-.45v-1.79c-.22-.45-.22-.9-.22-1.34v-.45l-.22-.67v-.67c0-.45-.22-.67-.22-.9s0-.45-.22-.9v-.67s0-.22-.22-.45v.67l-1.35-7.4c-1.12-4.48-2.24-8.97-4.04-13-.45-.9-.9-1.79-1.34-2.69-.45-.9-.9-2.02-1.12-3.14-.45-.22-.9-.67-1.12-1.12-.22-.45-.45-1.12-.9-1.57-.22-.9-.45-1.34-.67-2.02-.22-.45-.45-.67-.67-1.12-1.35-2.02-2.47-4.04-4.04-5.83-2.24-3.14-4.93-5.83-7.85-8.3-1.12-1.12-2.24-2.47-3.81-3.59-6.95-6.28-15.92-9.86-25.33-11.88-1.12-.22-2.02-.45-3.14-.67-1.34-.22-2.24-.22-3.36-.22h-8.52c-.67.22-1.12.22-1.57.22-1.12,0-1.79.22-2.47.22-2.47,0-5.38,1.12-8.07,2.02-2.24.9-4.48,1.57-6.95,2.47-2.02,1.12-4.04,2.02-6.05,3.14-1.12.9-2.02,1.57-3.36,2.47,0,0-.45.22-1.12.9-.67.45-1.35.9-2.02,1.35-1.35,1.35-2.69,2.69-3.36,3.36-10.09,9.19-19.95,26.46-21.97,39.91-.22,1.57-.9,3.36-1.35,5.61-.45,2.02-.67,3.81-.67,4.93,0,2.24-.67,4.93-.67,7.17,0,2.91-.45,5.61-.45,8.3,0,1.79.45,3.14.45,4.48v2.69ZM385.48,103.14c0-2.24.45-4.26.45-6.5v-.67c0-.45,0-.9.22-1.35.22-1.34.22-3.36.67-5.16,0-1.57.22-2.69.45-3.59,0-.45.22-.9.22-1.34.22,0,.22-.45.22-.67.22-2.02.9-4.71,1.57-6.73.67-2.69,1.57-4.93,2.24-6.95.45-2.02,1.34-3.81,2.24-5.83.67-1.57,1.79-3.59,2.47-5.16,6.28-13.68,21.3-27.8,37.67-28.47h.22c.45-.22.9-.22,1.35-.22,1.79,0,3.81.22,5.38.22,12.56,0,24.21,9.42,31.16,18.16,3.59,4.48,6.05,9.64,8.52,14.35.45.67.67,1.57,1.12,2.24.45,1.12.67,2.02,1.12,2.69,0,.67.67,2.47,1.35,4.26.22.9.45,1.79.67,2.47.22.67.22.9.22,1.12.22.45.22.9.22,1.12,2.91,6.73,4.48,21.08,4.48,27.8,0,3.81.22,7.62.22,11.21,0,.67,0,.9-.22,1.12v.67q-.22.22-.22.45c0,1.79-.45,3.59-.45,5.38q0,.22.22.22c0,.67-.22,1.12-.45,1.79,0,1.12,0,2.02-.22,2.69-.22.45-.22,1.12-.22,1.79-.22.45-.22.67-.67,2.47,0,.45-.22,1.12-.22,2.02,0,.45-.22.67-.22,1.12-.22,0-.22.22-.22.22,0,.67-.22,1.57-.22,2.24-.22,1.12-.9,2.24-1.12,3.14-.67,2.47-1.57,4.48-1.79,5.61-4.71,14.57-13.9,28.03-27.58,35.87-1.12.67-2.91,1.57-4.71,2.69-2.24.67-4.48,1.57-6.05,1.57q-.22,0-.67.22c-.45,0-.67,0-.9.22h-1.12l-.67.22h-1.34c-.67.22-1.12.22-1.79.22-16.14,0-27.35-7.62-36.99-19.73-1.57-2.47-3.81-5.16-4.93-8.07-.9-1.79-1.79-3.59-2.69-5.16-.9-1.79-1.79-3.81-2.47-5.61-.45-2.02-1.57-3.81-2.24-5.38-.22-1.34-1.12-4.48-1.79-7.85-.67-2.91-1.35-6.5-1.35-7.62,0-.22,0-.67-.22-1.12v-.67c0,.22.22.22.22.22l-.45-.9c-.22-1.79-.45-3.59-.45-5.16v-.9l-.22-.9c0-2.02-.22-4.04-.22-5.83,0-3.59.22-6.95.22-10.31Z"/>
    <path class="cls-1" d="M500.27,89.46v.22l.22.22-.22-.45Z"/>
    <path class="cls-1" d="M777.02,186.32c-1.13-.22-2.47-.67-3.37-.9s-1.79-.45-2.69-.9c-2.24-1.12-3.82-2.24-5.83-4.26-2.69-2.46-5.16-6.06-6.95-9.41-2.46-4.49-3.81-9.86-6.05-14.35-1.34-2.91-2.46-6.06-3.36-9.19-.45-.22-.67-.67-.9-.9-.22-.45-.45-1.12-.67-1.58-.45-2.02-.9-3.36-1.58-5.15-1.79-3.59-2.91-7.17-4.25-10.99-2.92-6.95-5.61-14.13-8.52-21.3-.45-1.12-1.8-4.7-3.37-8.29-1.34-3.58-2.46-6.5-2.69-6.95l-.45-1.12v.22c0-.22-.45-.45-.45-.9-.45-.67-.67-1.79-1.12-3.14-1.13-2.47-2.25-5.83-3.82-9.42-2.69-6.95-5.61-14.13-6.06-15.69-2.24-4.93-3.81-10.53-6.06-15.47-.67-1.12-1.12-2.24-1.34-3.36-.22-1.12-.67-2.02-.9-2.7l-2.02-4.25c-1.79-3.37-4.26-5.61-7.62-5.61-3.14,0-5.83,2.24-7.62,5.16-.22.67-.45,1.12-.67,1.79s-.67,1.34-.9,2.02c-.46,1.12-1.13,2.92-2.02,4.26-.45,1.34-1.12,2.91-1.34,3.81-.9,2.92-2.02,6.28-3.36,8.74-1.13,2.7-2.92,6.5-3.59,9.2-.67.67-.9,1.57-1.12,2.69-.22.9-.67,1.79-1.12,2.69-.9,1.58-3.37,8.08-4.04,10.09-.22.45-1.12,2.69-2.02,4.48-.45,1.13-.67,2.02-1.34,2.92-.22.22-.45.67-.45,1.12,0,0-.22,0-.22.22-.45,1.79-2.25,6.73-2.7,7.62-2.24,4.04-4.03,8.74-5.82,13.01-1.58,4.25-3.59,8.74-5.38,13.01,0,.22-.9,2.24-1.57,4.26-.45.9-.67,2.02-1.13,2.7,0,.45-.45.9-.45,1.12-.22.67-.67,1.34-.9,2.02,0,.22-.22.45-.45.67q0,.22-.22.45c-.9,3.37-2.24,6.5-3.81,9.64-1.58,4.49-4.71,12.78-8.29,20.4-2.35,5.71-5.19,12.41-9.78,16.72-1.29,1.21-4.94-.9-6.27-1.55-2.36-1.16-4.41-2.79-6.06-4.85-2.25-2.47-3.82-5.16-5.83-7.85-1.57-2.47-3.37-5.16-5.16-7.63-6.28-8.97-12.11-18.16-18.38-27.12-2.7-3.37-4.71-6.95-7.17-10.54-2.25-3.58-4.71-7.17-7.62-10.31l-.9-1.12,1.35-.45c.9-.22,1.34-.22,2.02-.45.67,0,1.12-.22,1.79-.45h.45c.67,0,2.7-.45,2.7-.45l.22-.22h.45c18.16-2.47,32.95-18.84,32.95-37.45s-10.31-29.82-26.23-36.31c-.9-.46-6.28-2.25-7.17-2.25,0,0-.45,0-1.13-.45h-1.79c-.22-.22-.67-.22-1.12-.45-.9-.22-1.57-.22-2.24-.22-1.34,0-2.25-.22-3.14-.22-1.12,0-2.46-.22-3.58-.22-2.24,0-4.49-.22-6.5-.22-1.12,0-1.79.22-2.69.22h-51.57c-.45.22-.68.45-.68,1.34,0,.67.23,1.12.68,1.79.22.45.45.68.67,1.13.45.22.67.67,1.12.9,1.57,2.02,3.14,4.03,3.14,8.29v126.45c0,4.04-2.02,7.17-4.03,9.41-.9,1.12-1.58,2.02-2.25,3.14-.67.9-1.12,1.34-1.12,1.57,0,.67,0,.9.45,1.12h.22q.22.22.45.22c0,.22.22.22.45.45h21.97s.22,0,.46-.67c.22-.45.22-1.12.22-1.57v-.22c-.22-.22-.46-.67-.9-.9-.67-1.12-1.79-2.02-2.69-3.37-2.02-2.46-4.26-6.06-4.26-10.31v-55.38c0-.9,0-1.79-.22-2.91l-.22-1.12h30.5c3.36,0,6.72.22,9.86.22h2.02l.22.22c2.47,2.91,4.49,6.06,6.73,8.97,2.02,3.37,3.82,6.5,5.83,9.64,1.57,2.25,3.58,4.94,4.94,7.62,2.24,3.37,4.48,6.05,6.49,9.42,5.38,8.29,10.77,16.59,16.37,25.11,2.24,2.69,4.48,5.61,6.5,8.52,1.76,2.64,5.45,4.91,9.1,6.14,1.93.66,3.84,1.03,5.47,1.03.67,0,1.83.08,3.03,0h29.61q.22,0,.45-.22h.9l.22-.22c.45-.22.9-.22,1.12-.22-.22,0-.22-.22-.45-.22s-.67-.22-1.12-.22c-1.12-.22-2.24-.45-2.91-.45-6.28-1.34-10.54-8.52-10.54-14.57,0-2.24.9-4.94,1.57-7.4.9-2.46,2.02-4.71,2.92-6.73,8.29-20.63,28.03-28.03,47.08-32.51,3.14-.67,6.28-1.8,9.42-2.7,4.93-1.12,10.76-2.46,15.69-4.48.22-.22.9-.45,1.57-.9.45-.22.67-.22,1.12-.45.22,0,1.12-.22,1.57-.22,1.57,0,2.47.67,3.59,1.57.22.22.45.67.67,1.12s.22.9.45,1.12c2.69,5.16,4.25,10.99,6.5,16.37,2.24,4.49,3.81,9.42,5.38,14.13,1.12,2.24,1.79,4.49,2.46,6.73.45.9.9,2.24,1.57,3.37.45,1.12,1.12,2.46,1.57,3.81.22.67.45,1.57.67,2.69.22.9.45,1.8.45,3.14,0,4.25-.9,9.64-5.6,12.78-1.58.67-2.7,1.34-4.04,2.02-.9.45-2.24,1.12-3.36,1.57l-.22.22c.22.67.45.9,1.12.9,13.9,0,28.25-.22,42.15-.22.22,0,.67,0,1.34-.22.22,0,.45,0,.45-.22v-.22h-.9ZM560.52,105.16c-9.41,0-18.83.22-28.25.22h-14.35V35.66h35.65c3.37,0,6.73,0,10.09.22,1.57,0,3.36.45,4.7.45h.9c.46,0,.68,0,1.13.22,2.46-.22,7.4,1.34,8.97,2.02,11.65,4.71,17.04,10.31,21.08,22.87.45,1.57,1.57,5.83,1.57,7.85,0,8.52-2.24,19.06-9.19,25.12-1.13.67-2.02,1.34-2.92,2.24-.9.67-2.24,1.34-3.13,1.79-3.14,2.24-7.62,4.04-11.21,4.71-2.46.45-5.15.9-7.4,1.57-2.69.22-4.93.45-7.62.45ZM721.19,112.56c-.9.67-2.02,1.12-3.14,1.79-2.47,1.12-5.83,2.02-9.2,2.92-6.73,2.02-13.45,3.36-15.25,3.81-4.7,1.34-9.64,2.47-14.35,4.04-4.93,1.57-9.41,3.36-13.68,5.83-2.24,1.12-4.48,2.69-6.49,4.25-.22,0-.67.45-1.13.67-.22.22-.45.45-.67.45-.45.67-1.12.9-1.34.9q-.9,0-2.02-.67l-1.57-.9.9-1.79c1.79-3.58,2.91-7.62,4.48-11.21,3.37-8.07,6.73-15.92,10.09-23.76,1.34-2.91,2.46-6.5,3.81-9.19,1.34-2.69,2.7-5.61,3.82-8.52.22-.9.67-1.79,1.12-2.92.67-.67.9-1.34,1.12-2.24.9-2.46,1.79-4.94,2.92-7.17.22-.45.45-.9.67-1.79.45-.67.67-1.34.9-1.79.9-2.7,2.69-7.17,4.7-11.66,1.58-4.49,3.37-8.74,4.71-10.53.22-.22.45-.45.67-1.12.22-.23.45-.68.9-1.13l1.12-.9,1.35.67c.45.22.9.67,1.12.9.22.22.45.68.45,1.13.45.67.9,1.34,1.34,2.24.67,2.02,2.02,4.25,2.91,6.95,1.8,4.7,3.82,10.09,4.26,11.65,3.36,8.53,7.4,16.82,10.09,25.34q0,.22.22.9c.22.22.45.67.45.9,1.13,2.02,2.25,4.94,3.37,8.07,1.34,2.92,2.46,6.06,3.14,8.07.22.9.22,1.8.22,2.7,0,1.57-1.12,2.69-2.02,3.14Z"/>
    <path class="cls-1" d="M133.93,317.67c0-2.69-.22-5.61-.22-8.3q0-.22-.22-.45v-.9q0-.22-.22-.45v-1.35c0-.22-.22-.22-.22-.22v-1.35c-.22-.45-.45-1.12-.67-1.79-.22-.67-.45-1.57-.9-2.69-.67-1.79-1.12-3.81-1.57-4.93-5.38-10.09-13.23-15.25-23.99-19.06-.9-.45-1.79-.45-2.69-.67-1.35-.22-2.24-.45-3.36-.67-1.79-.67-4.48-1.57-6.28-1.57h-2.91l2.02-2.02c.22,0,.45-.22.9-.45.22,0,.45-.45.9-.45.9-.45,1.79-.67,2.69-1.12,2.02-.67,4.04-1.34,4.71-1.79,11.66-5.38,18.39-17.04,18.39-29.37,0-10.09-5.16-21.3-13.9-26.46-.9-.45-1.57-1.12-2.24-1.57-.9-.22-1.57-.67-2.47-.9-2.69-1.12-5.83-2.24-8.97-2.91-.67-.22-1.57-.22-2.02-.45-.67,0-1.35-.22-1.79-.45h-.9c-.45,0-.9,0-1.12-.22-.45,0-.67,0-1.12-.22h-1.57c-.67,0-1.12,0-1.57-.22h-2.47c-.67-.22-1.57-.22-2.24-.22H27.2c0,.22-.22.45-.45.45,0,.22-.22.22-.22.22l-.22.22c-.22.22-.45.45-.45,1.35,0,0,.22.45.22,1.35.22.67.45,1.35.67,2.02.45,1.79.9,3.59,1.12,4.93.45,4.71,1.57,9.42,1.57,14.13,0,30.94.22,61.88.22,92.82,0,4.71-.45,10.09-.45,14.8,0,1.57-.45,2.91-.45,4.48,0,3.14-.45,8.3-1.34,11.43-.22.45-.67,1.79-.9,2.91-.22.67-.45,1.12-.45,1.79-.22.45-.22.9-.45,1.57,0,.22.22.22.22.45s0,.45.22.67c.22.67.45.9.67.9,1.12.45,7.85.45,14.8.45h31.61c7.4-.22,14.12-.45,15.25-.67l.22-.45h.45c.9.45,3.36-.22,6.28-.9,2.47-.67,4.93-1.35,6.05-1.57,15.02-4.48,24.21-13.23,29.82-28.03,1.57-3.36,2.69-8.52,2.69-12.11ZM38.19,212.74c0-1.12,0-2.24,1.34-4.26l.9-.22h32.29c.45,0,.45.22.67.22h4.71c1.35,0,2.91.45,4.26.45l.67.22h1.12c.22,0,.22.22.45.22h.45s.22.22.45.22h.9l.45.22h.22c.22.22.45.22.9.22.67.22,1.34.9,2.24,1.12,1.79.45,3.81,1.12,4.48,1.57,10.54,5.16,16.59,14.8,16.59,26.46,0,13.45-5.83,22.2-17.71,27.8-1.12.67-2.69,1.12-4.04,1.35-1.12.45-2.47.67-3.59,1.35-3.14,1.34-12.11,2.24-15.47,2.24h-8.97c-2.02,0-4.04.22-5.83.22h-15.47c-.67,0-1.12-.22-1.57-.9q0-.22-.22-.45l-.22-.9v-57.17ZM120.02,335.83c-.45.67-.67,1.12-1.12,2.02-.22.45-.45.9-.67,1.57l-.22.22-.22.22c-.45.45-1.35,1.12-1.79,2.02-.22.45-.67.9-.9,1.12-.22.45-.67,1.12-.9,1.57-2.02,1.57-4.04,3.36-6.28,4.71-2.91,2.02-10.09,5.38-13.45,5.83l-3.59.67-.22.22h-.67c-.45,0-2.02,0-4.26.22-2.02.22-4.04.45-4.93.45-4.26.67-8.52-.22-12.78,0-4.04.22-8.07.22-12.11.22h-14.35c-.22,0-.22-.22-.45-.22h-.67l-.9.22-1.57-1.57v-8.07c0-4.26.22-8.3.22-12.33v-37.22c0-6.5.22-13,.22-19.51v-.45l.22-.67c.45-.22.9-.45,1.57-.67h37.44c5.83,0,18.39,1.57,23.99,3.81,14.35,6.5,23.32,17.71,23.32,34.08,0,8.74-1.35,13.68-4.93,21.52Z"/>
    <path class="cls-1" d="M226.74,351.08c.45-1.35.9-2.24,1.35-3.36.67-1.35,1.35-2.47,1.79-4.04.67-1.12.9-2.69.9-3.81,0,0,0-.22-.22-.22,0-.22-.22-.45-.22-.45-.45-.67-.67-.9-.9-1.12-1.57.22-3.14,1.79-5.16,3.59-.9,1.12-1.79,2.24-2.69,3.36-.67.9-1.57,1.57-2.47,2.24-6.95,5.61-15.92,7.85-24.89,7.85h-43.27l-.22-.22-.22-.22c-.22,0-.45-.22-.67-.22l-.22-.22v-.22c0-45.07-.22-90.35-.22-135.2,0-5.38-.9-9.42-5.6-12.11-1.12-.67-4.48-2.02-5.83-2.02-.45,0-3.14-.22-5.61-.22-1.12.22-2.02.22-2.69.45-1.12.22-1.34.67-1.34.9,0,.45.22.9,1.34,1.57.9.67,2.02,1.12,3.36,2.02,2.47,1.79,5.38,4.26,6.5,8.74.22.67.22,1.35.45,2.24.22.67.22,1.57.22,2.24v26.9c0,3.81.22,7.4.22,10.99v58.07c0,5.38-.22,10.99-.22,16.37,0,2.69-.45,5.61-.45,8.3,0,6.28-2.91,9.86-5.83,12.33-1.57,1.12-2.91,2.02-4.04,2.69-.67.22-.9.45-1.34,1.12-.22.22-.22.45-.22.45,0,.45.9,1.12,1.79,1.12,8.3,0,16.37-1.35,24.89-1.35,17.71,0,35.42.9,53.36.9,6.95,0,15.69-2.24,18.38-9.42Z"/>
    <path class="cls-1" d="M381.16,359.15c-.9-.22-1.79-.45-2.69-.9-2.24-1.12-3.81-2.24-5.83-4.26-2.69-2.47-5.16-6.05-6.95-9.42-2.47-4.48-3.81-9.87-6.05-14.35-1.35-2.91-2.47-6.05-3.36-9.19-.45-.22-.67-.67-.9-.9-.22-.45-.45-1.12-.67-1.57-.45-2.02-.9-3.36-1.57-5.16-1.79-3.59-2.91-7.17-4.26-10.99-2.91-6.95-5.6-14.13-8.52-21.3-.45-1.12-1.79-4.71-3.36-8.3-1.35-3.59-2.47-6.5-2.69-6.95l-.45-1.12v.22c0-.22-.45-.45-.45-.9-.45-.67-.67-1.79-1.12-3.14-1.12-2.47-2.24-5.83-3.81-9.42-2.69-6.95-5.61-14.13-6.05-15.69-2.24-4.93-3.81-10.54-6.05-15.47-.67-1.12-1.12-2.24-1.34-3.36-.22-1.12-.67-2.02-.9-2.69l-2.02-4.26c-1.79-3.36-4.26-5.61-7.62-5.61-3.14,0-5.83,2.24-7.62,5.16-.22.67-.45,1.12-.67,1.79-.22.67-.67,1.34-.9,2.02-.45,1.12-1.12,2.91-2.02,4.26-.45,1.35-1.12,2.91-1.35,3.81-.9,2.91-2.02,6.28-3.36,8.74-1.12,2.69-2.91,6.5-3.59,9.19-.67.67-.9,1.57-1.12,2.69-.22.9-.67,1.79-1.12,2.69-.9,1.57-3.36,8.07-4.04,10.09-.22.45-1.12,2.69-2.02,4.48-.45,1.12-.67,2.02-1.35,2.91-.22.22-.45.67-.45,1.12,0,0-.22,0-.22.22-.45,1.79-2.24,6.73-2.69,7.62-2.24,4.04-4.04,8.74-5.83,13-1.57,4.26-3.59,8.74-5.38,13,0,.22-.9,2.24-1.57,4.26-.45.9-.67,2.02-1.12,2.69,0,.45-.45.9-.45,1.12-.22.67-.67,1.35-.9,2.02,0,.22-.22.45-.45.67q0,.22-.22.45c-.9,3.36-2.24,6.5-3.81,9.64-1.57,4.48-4.71,12.78-8.3,20.4-3.14,7.62-7.4,15.47-11.88,18.39-1.79,1.12-3.36,1.79-4.93,2.24-1.57.45-2.91.67-4.48.9,0,.22-.22.22-.22.45v.22h.45q.22.22.45.22h38.34q.22,0,.45-.22h.9l.22-.22c.45-.22.9-.22,1.12-.22-.22,0-.22-.22-.45-.22s-.67-.22-1.12-.22c-1.12-.22-2.24-.45-2.91-.45-6.28-1.35-10.54-8.52-10.54-14.57,0-2.24.9-4.93,1.57-7.4.9-2.47,2.02-4.71,2.91-6.73,8.3-20.63,28.03-28.03,47.08-32.51,3.14-.67,6.28-1.79,9.42-2.69,4.93-1.12,10.76-2.47,15.69-4.48.22-.22.9-.45,1.57-.9.45-.22.67-.22,1.12-.45.22,0,1.12-.22,1.57-.22,1.57,0,2.47.67,3.59,1.57.22.22.45.67.67,1.12.22.45.22.9.45,1.12,2.69,5.16,4.26,10.99,6.5,16.37,2.24,4.48,3.81,9.42,5.38,14.12,1.12,2.24,1.79,4.48,2.47,6.73.45.9.9,2.24,1.57,3.36.45,1.12,1.12,2.47,1.57,3.81.22.67.45,1.57.67,2.69.22.9.45,1.79.45,3.14,0,4.26-.9,9.64-5.61,12.78-1.57.67-2.69,1.35-4.04,2.02-.9.45-2.24,1.12-3.36,1.57l-.22.22c.22.67.45.9,1.12.9,13.9,0,28.25-.22,42.15-.22.22,0,.67,0,1.34-.22.22,0,.45,0,.45-.22v-.22h-.9c-1.12-.22-2.47-.67-3.36-.9ZM328.7,286.28c-.9.67-2.02,1.12-3.14,1.79-2.47,1.12-5.83,2.02-9.19,2.91-6.73,2.02-13.45,3.36-15.25,3.81-4.71,1.35-9.64,2.47-14.35,4.04-4.93,1.57-9.42,3.36-13.68,5.83-2.24,1.12-4.48,2.69-6.5,4.26-.22,0-.67.45-1.12.67-.22.22-.45.45-.67.45-.45.67-1.12.9-1.35.9q-.9,0-2.02-.67l-1.57-.9.9-1.79c1.79-3.59,2.91-7.62,4.48-11.21,3.36-8.07,6.73-15.92,10.09-23.77,1.35-2.91,2.47-6.5,3.81-9.19,1.35-2.69,2.69-5.61,3.81-8.52.22-.9.67-1.79,1.12-2.91.67-.67.9-1.35,1.12-2.24.9-2.47,1.79-4.93,2.91-7.17.22-.45.45-.9.67-1.79.45-.67.67-1.34.9-1.79.9-2.69,2.69-7.17,4.71-11.66,1.57-4.48,3.36-8.74,4.71-10.54.22-.22.45-.45.67-1.12.22-.22.45-.67.9-1.12l1.12-.9,1.34.67c.45.22.9.67,1.12.9.22.22.45.67.45,1.12.45.67.9,1.35,1.35,2.24.67,2.02,2.02,4.26,2.91,6.95,1.79,4.71,3.81,10.09,4.26,11.66,3.36,8.52,7.4,16.82,10.09,25.34q0,.22.22.9c.22.22.45.67.45.9,1.12,2.02,2.24,4.93,3.36,8.07,1.35,2.91,2.47,6.05,3.14,8.07.22.9.22,1.79.22,2.69,0,1.57-1.12,2.69-2.02,3.14Z"/>
    <path class="cls-1" d="M457.72,290.99c-.9-.45-1.57-1.12-2.02-1.57-1.57-1.35-3.14-2.47-4.93-3.59-1.57-.9-3.36-2.02-4.93-3.14-.45-.22-1.57-.67-2.69-1.35-1.12-.67-2.47-1.35-3.81-1.79-1.57-.67-2.69-1.35-3.59-2.02-.9-.22-1.35-.45-1.57-.67s-.45-.22-.67-.45c-1.12-.22-3.59-1.35-5.61-2.02-2.69-.9-4.93-2.24-6.05-2.69-2.69-1.12-5.38-2.24-8.07-2.91-2.02-.67-4.04-1.35-5.6-2.47-1.79-.67-3.59-1.57-5.16-2.47-10.54-4.71-15.92-7.85-21.07-19.51-1.12-1.57-1.79-4.04-1.79-6.28v-5.38c0-.67,0-1.12.22-2.02,0-.22,0-.45.22-.67v-.67c0-.22.22-.45.22-.9.45-2.91,2.02-5.61,3.36-7.85,1.79-2.69,3.36-4.71,5.61-7.17,5.83-5.38,16.82-8.52,24.21-8.52,4.26,0,13.23.9,17.71,3.59.22.45.9.45,1.12.67.45,0,.9.22,1.57.45,1.12.45,2.02,1.12,2.69,1.34,3.59,2.69,7.85,6.73,10.31,10.54,1.57,2.47,3.59,5.83,4.93,8.74.45,1.57.9,4.04,1.79,6.5.67.9,1.12,1.79,1.57,2.91.45.67.67,1.12.9,1.12.67.45,1.35.45,1.79.45.67,0,1.12-.22,1.35-1.12.45-1.12.67-2.47.67-3.81v-.22c-.22-.22-.22-.45-.22-.67v-.67c-.22-.45-.22-.67-.22-.9,0-.45,0-.67-.22-.67-.45-1.79-.9-3.81-1.35-5.61-.45-1.57-1.34-3.36-2.02-5.16-6.28-12.56-23.32-19.95-37.44-19.95h-6.95c-.9-.22-1.79,0-2.91.22-1.34.22-2.69.67-3.81.67-.45.22-.67.22-1.12.22-.22.22-.9.22-1.35.22-.9,0-6.95,1.79-8.97,2.69-7.62,3.59-14.35,8.97-18.16,16.59-1.12,1.57-1.57,3.59-2.47,5.61,0,0,0,.22-.22.45,0,.45-.22,1.12-.45,1.57,0,.9-.22,1.57-.67,2.02v1.12c0,.22,0,.67-.22,1.12,0,.9-.22,2.02-.22,2.91,0,10.76,2.91,15.69,9.42,24.21.45.45,1.12.9,1.79,1.35.45.45.67.67,1.12,1.12.22.22.45.45.67.67.9.22,1.12.67,1.35.9,6.73,4.26,15.92,9.42,22.87,11.43,1.12.67,2.24,1.12,3.14,1.57.67.22,1.79.67,2.47.9,7.62,2.69,19.51,7.4,26.46,11.66,5.16,3.36,11.88,8.74,15.47,13.9.22.67.45,1.12.9,1.79.22.22.67.67.9,1.12l.45,1.79v-.22c0,.22.22.22.22.45s.22.45.45.67c.67,2.69,1.35,5.16,1.79,7.85.22,1.12.45,2.02.45,3.14,0,2.24-.45,4.71-.45,6.73v.67c0,.22,0,.67-.45,1.12-.22,2.69-1.35,5.83-2.24,7.62-4.26,8.07-7.85,11.66-15.69,16.14-.67.22-1.57.67-2.02.9-.67.22-1.12.67-1.57.9l-.67.22h-.45l-.22.22c-.45,0-.9.22-1.35.45-1.12.22-2.24.67-2.69.9-4.04,1.35-8.74,1.57-12.78,1.57-1.79,0-3.36-.22-5.16-.22h-1.79c-.45,0-1.12-.22-1.34-.22s-.45,0-.67-.22h-1.12c-.9-.22-1.79-.67-2.47-.9-1.79-.22-3.59-.9-4.04-1.12-17.94-7.17-24.89-15.92-30.27-34.53-.67-2.91-.9-6.28-2.02-9.19,0-.22-.45-.9-.9-2.02-.22-.22-.67-.45-.9-.67-2.24,0-2.91,1.12-3.36,2.02-.67,1.12-.67,3.14-.67,5.61,0,1.12.22,2.24.22,3.14,0,11.66,7.17,25.11,16.82,31.39,1.79,1.35,3.59,2.24,5.38,2.91,1.57,1.12,3.59,2.02,5.38,3.14,1.12.45,3.36,1.12,6.05,1.79,1.35.22,2.47.45,3.36.67.67.45,1.12.67,1.57.67,0,0,.22.22.45.22h.45c.45,0,.9.22,1.34.22s.9.22,1.12.22h.67l1.79.45c-.22,0-.22-.22-.22-.22h.67c.67.22,1.12.22,1.35.22,2.02,0,4.26.22,6.05.22,2.24,0,4.93-.45,6.95-.45,4.26,0,9.64-1.57,13.9-3.14,16.37-5.61,28.47-16.37,30.04-33.86.22-.22.22-.9.45-1.35v-.67c0-11.88-2.24-22.42-10.54-31.16-.45-.45-.9-1.12-1.57-1.57Z"/>
    <path class="cls-1" d="M599.81,263.19v.22l.22.22-.22-.45Z"/>
    <path class="cls-1" d="M694.7,349.59c-.15-.12-1.8-.13-2.33.06-.41.03-2.01.58-2.15.59-.26.16-1.61.54-2.02.58-.41.03-2.15.59-2.55.76-.26.16-1.46.67-1.58.82-.14.01-.92.49-1.05.64-.26.16-1.32.66-1.59.68l-.93.35-.27.02c-.13.15-.71-.22-.85-.34l-.59-.5c-.67.19-1.53-.15-1.58-.83l-.43-.24c-.27.02-1.83-.54-2.12-.65l-1.71-.69c-.29-.11-1.84-.67-2.13-.79-.41.03-2.24-.5-2.66-.61-.56-.09-2.24-.5-2.51-.48-.29-.11-1.54-.29-1.95-.25-.28-.11-1.24-.03-1.38-.02,0,0-.83-.07-1.1-.05l-2.08-.24c-1.09.09-2.32.19-3.42.28-.13.15-.82.07-.97-.06s-.98-.19-1.12-.18c-.27.02-1.09.09-1.23.1-.14.01-1.22.24-1.63.27-.26.16-1.49.26-1.78.15-.14.01-1.1-.05-1.38-.02-.12.15-2.96.79-3.23.82-.26.16-1.49.26-1.76.28-.14.01-.95.22-1.07.36-.14.01-4.32,1.04-4.45,1.05-.41.03-.67.19-.79.48l-2.28.74c-.27.02-.67.19-1.22.24-.4.17-1.77.28-1.89.43.01.14-.51.45-.65.47-.14.01-1.33.52-1.73.69l-2.7,1.06c0-.54.11-1.97.09-2.22.35-.72.29-1.54.22-2.36.13-.15.05-1.1.02-1.38-.16-.26-.12-1.5-.15-1.78-.01-.14-.11-1.37-.27-1.63-.03-.41-.25-1.36-.26-1.49l-.02-.27c-.16-.26-.33-.66-.37-1.21-.5-1.06-.79-2.96-.89-4.19-.01-.14-.48-.79-.5-1.06-.15-.13-.5-1.06-.65-1.19-.02-.27-.36-1.07-.51-1.2-.01-.14-.49-.92-.51-1.2-.15-.13-.36-1.07-.37-1.21-.01-.14-.64-1.05-.8-1.31-.17-.4-1.14-2.11-1.43-2.36l-.76-.9c-.05-.55-1.28-2.23-1.73-2.61-.14.01-.89-.75-1.03-.88-.16-.26-.93-1.3-1.22-1.41-.16-.26-1.04-.88-1.18-1-.15-.12.48-.86.73-1.16l1.3-.93c.11-.29.5-.59.88-1.04.26-.16,1.4-1.35,1.66-1.51.25-.3,1.8-1.52,2.19-1.83.25-.3.5-.59.48-.86l.66-.33c.12-.15,1.05-.64,1.17-.78.14-.01.79-.48.91-.63.12-.15,1.05-.64,1.18-.65.26-.16,1.31-.8,1.57-.95.14-.01,1.46-.67,1.73-.69.26-.16,1.33-.52,1.47-.53.13-.15.91-.63,1.17-.78.14-.01,1.33-.52,1.61-.55l.94-.21c.55-.04,2.28-.74,2.22-1.42-.15-.13-1.14-.46-1.41-.43-1.09.09-3.13.4-4.19.89-.41.03-2.14.73-2.4.89-.4.17-1.87.7-2.13.86l-1.07.36c-.52.32-1.41,1.22-1.65,1.65l-.55.05c-.55.05-2.14.73-2.52,1.17-.12.15-1.04.77-1.3.93-.14.01-1.31.8-1.57.95-.25.3-1.17.78-1.3.93-.27.02-.8.34-.92.49-.13.15-.88,1.04-1.14,1.19-.25.3-1.41,1.22-1.66,1.51l-.91.63c-.31-.39-1.29-.58-1.83-.54-.07-.82-2.66-2.26-3.21-2.21-.14.01-.99-.33-1.14-.46-.15-.12-1-.47-1.14-.46-.28-.11-1.14-.46-1.28-.45-.28-.11-1.42-.57-1.71-.68-.28-.11-1.71-.68-1.99-.8-.29-.09-.78-.23-1.31-.37.51-1.5,1.08-3.1,1.65-4.58.9-3.36,1.57-6.5,1.79-9.87l.22-.22c0-.67,0-1.12.22-1.79.22-1.12.22-2.69.45-4.48.22-3.36.22-6.5.22-7.85v-7.4c0-1.57-.22-2.91-.22-4.04,0-.45,0-1.12-.22-1.35l-.22-.45v-1.79c-.22-.45-.22-.9-.22-1.35v-.45l-.22-.67v-.67c0-.45-.22-.67-.22-.9s0-.45-.22-.9v-.67s0-.22-.22-.45v.67l-1.35-7.4c-1.12-4.48-2.24-8.97-4.04-13-.45-.9-.9-1.79-1.34-2.69-.45-.9-.9-2.02-1.12-3.14-.45-.22-.9-.67-1.12-1.12-.22-.45-.45-1.12-.9-1.57-.22-.9-.45-1.35-.67-2.02-.22-.45-.45-.67-.67-1.12-1.35-2.02-2.47-4.04-4.04-5.83-2.24-3.14-4.93-5.83-7.85-8.3-1.12-1.12-2.24-2.47-3.81-3.59-6.95-6.28-15.92-9.86-25.33-11.88-1.12-.22-2.02-.45-3.14-.67-1.35-.22-2.24-.22-3.36-.22h-8.52c-.67.22-1.12.22-1.57.22-1.12,0-1.79.22-2.47.22-2.47,0-5.38,1.12-8.07,2.02-2.24.9-4.48,1.57-6.95,2.47-2.02,1.12-4.04,2.02-6.05,3.14-1.12.9-2.02,1.57-3.36,2.47,0,0-.45.22-1.12.9-.67.45-1.35.9-2.02,1.35-1.35,1.35-2.69,2.69-3.36,3.36-10.09,9.19-19.95,26.46-21.97,39.91-.22,1.57-.9,3.36-1.35,5.61-.45,2.02-.67,3.81-.67,4.93,0,2.24-.67,4.93-.67,7.17,0,2.91-.45,5.61-.45,8.3,0,1.79.45,3.14.45,4.48v2.69s0,.22.22.45v1.12c.22.9.22,2.02.22,2.24,0,.9.22,1.57.22,2.24v.22c.22.9.45,2.24.45,2.69v.45c-.45-.22-.67-.67.22,1.35v.45c0,.45.22,1.35.22,2.02.45,1.57.9,3.36,1.34,5.38,1.12,3.81,2.47,7.85,3.14,9.19,5.16,15.25,17.71,30.94,32.06,38.11,2.54,1.48,5.07,2.56,7.61,3.62-.01.14-.03.27-.05.35l-.27,1.67c.01.14-.06.97-.04,1.24.15.13.1,1.23.12,1.5l-.26,1.81c.02.27-.04,1.24-.02,1.38.15.12.35.93.36,1.07.16.26.09,1.09.1,1.23.01.14-.06.97-.05,1.1.01.14.34.8.49.92.16.26.66,1.32.69,1.73.16.26.57,1.88.59,2.15.03.41.44,2.03.6,2.29.17.4.97,1.71,1.13,1.97.16.26.79,1.31.81,1.45.15.12,1.22,1.41,1.24,1.69.01.14.48.79.63.91.01.14.9.89,1.06,1.15.28.11,1.35,1.4,1.51,1.66.31.39,1.65,1.65,1.94,1.9.43.24,1.75,1.23,1.9,1.36.28.11,1.15.59,1.43.71.27-.02,3.03,1.68,3.17,1.8.44.38,1.88,1.08,2.01,1.07l1.13.32c.14-.01.98.2,1.12.18.15.12.85.34,1,.47.15.12.85.34.98.19.14-.01,1.1.05,1.39.16.14-.01,1.12.18,1.13.32.15.13.99.33,1.27.45.14-.01,1.1.05,1.1.05.14-.01,1.41.43,1.83.54.41-.03.68-.06,1.09-.09l.96-.08c.27-.02.46.51.34.8-.25.3-.87,1.17-.99,1.32-.14.01-.75.89-.87,1.17-.1.42-1.12,1.47-1.37,1.76-.25.29-.49.73-.47,1l-2.1,1.27c-.14.01-.87,1.17-1.13,1.33-.25.29-.51.45-.78.61l-.75.89c-.25.3-1.28,1.21-1.55,1.23-.14.01-1.19.65-1.31.8l-1.94,1.54c-.27.02-.69-.08-1.13-.32-.42-.1-1.96-.39-2.23-.37-.15-.12-.84-.2-.99-.33-.14.01-.84-.21-1.13-.32l-1.13-.32s-3.62-.53-4.03-.49c-.28-.11-.58-.36-1.14-.46-.42-.1-1.92.02-2.06.03-.14.01-.84-.2-.99-.33-.27.02-1.25-.17-1.52-.15l-.96.08-.97-.06c-.27.02-1.24-.04-1.38-.02l-1.96-.39c-.42-.1-1.94-.12-2.21-.09-.13.15-.93.35-1.21.37-.14.01-.96.08-1.09.09-.14.01-1.09.09-1.23.1l-1.89.43c-.27.02-1.34.39-1.47.53-.26.16-1.06.5-1.33.52-.14.01-.92.49-1.05.64l-.76.75s-.75.89-1,1.18c-.25.29-.85,1.31-.98,1.46.01.14.09,1.09.11,1.37l.34.8c-.11.29-.09.56.06.68.16.26,1.32.99,1.48,1.25.28.11,1.16.73,1.45.84.15.12.88.62,1.01.6.01.14,1.13.32,1.55.42.55-.05,3.32.28,3.77.65.28.11,1.25.17,1.39.16.28.11,1.1.05,1.24.04.55-.05,1.78-.15,2.35.08.27-.02,1.39.16,1.52.15.14-.01.68-.06.82-.07.14-.01.82-.07.96-.08.27-.02,1.5-.12,1.92-.02.41-.03,1.63-.27,1.76-.28l.41-.03.54-.18c.14-.01,1.09-.09,1.37-.11.27-.02,1.36-.25,1.63-.27.12-.15,1.2-.51,1.47-.53.27-.02,1.74-.56,2.14-.73.26-.16,1.88-.57,2.15-.59.26-.16,1.86-.84,2.26-1.01.26-.16,1.03-.91,1.16-.92.14-.01,1.07-.36,1.34-.39.26-.16,1.45-.81,1.71-.97.12-.15.93-.35,1.07-.36.15.12,1,.47,1.27.45.15.12,1.25.17,1.53.15.14-.01,1.12.18,1.26.31.15.13,1.42.57,1.71.69.42.1,1.4.3,1.55.42.14-.01,1.52.15,2.08.24.56.09,2.49.21,2.63.2l.96-.08,2.77.19c.16.26.44.38.85.34.42.1,1.91-.16,2.19-.18.14-.01,1.23-.1,1.51.01.14-.01,1.09-.09,1.23-.1.14-.01.96-.08,1.23-.1.15.12,1.24.03,1.37-.11.27-.02,1.21-.37,1.34-.39.14-.01.96-.08,1.09-.09.27-.02.82-.07.94-.22.14-.01.96-.08,1.23-.1.14-.01,1.09-.09,1.09-.09.14-.01.94-.21,1.21-.37.14-.01.92-.49,1.06-.5.41-.03,2.44-.48,2.7-.64.27-.02,1.34-.38,1.48-.4.12-.15,1.06-.5,1.18-.65.27-.02,1.06-.5,1.2-.51l1.61-.55c.14-.01.92-.49,1.06-.5.03-.04.14-.12.29-.2l.2.71c.16.26.51,1.2.66,1.32.15.12,1.65,1.65,1.66,1.79.15.13.91,1.03,1.21,1.28l.89.75c.42.1.85.34,1.41.43.43.24,1.82.4,1.96.39.74.63,1.17.87,2.13.79.26-.16,1.08-.23,1.22-.24.15.12.98.19,1.12.18.14-.01,1.08-.23,1.36-.25.26-.16,1.34-.38,1.48-.4l1.23-.1c.14-.01,1.34-.39,1.61-.55.14-.01,4.25-1.86,4.51-2.02s1.33-.52,1.47-.53c.26-.16.92-.49,1.2-.51.12-.15.64-.6.76-.75.13-.15.91-.63,1.04-.77.13-.15,2.54-.9,2.81-.92l.25-.3c.77-.75,1.66-1.51,1.9-1.94.39-.31.79-.48,1.05-.64.66-.33,3.48-2.9,3.98-3.49.4-.17.66-.33.8-.34.4-.17,1.44-.94,1.54-1.36l.65-.47c.26-.16,1.04-.77,1.16-.92.12-.15,1-1.18,1.25-1.48l2.01-2.37c.27-.02,2.82-2.57,2.92-2.99.11-.29.08-.69.05-1.1l1.17-.78c.39-.31,1.52-1.64,1.64-1.79.11-.28,1.09-1.74,1.33-2.17.11-.29.24-.43.22-.71.48-.86.86-1.31,1.52-1.64.46-1.14.77-2.4.74-2.68.38-.44.62-.88.87-1.17.11-.28.8-1.99.91-2.28.24-.43.7-1.57.82-1.72-.01-.14.07-.83.2-.98l.09-.56.92-2.14c.12-.15.47-1,.45-1.28l.34-.85c.1-.42.2-.84.17-1.25.1-.42.5-2.24.61-2.66.09-.56.48-2.52.58-2.94-.05-.55.09-2.21.07-2.48-.15-1.78-.79-2.96-2.71-2.8-.67.19-1.99.85-1.67,1.38l-.08.69c-.34.85-.29,3.19-.22,4.01.15.13.21.95.24,1.22.01.14-.32,1.13-.45,1.28.02.27-.19.98-.32,1.13.01.14-.06.97-.04,1.24-.12.15-.33.99-.46,1.14.01.14-.21.84-.33.99.01.14-.2.84-.18,1.12-.13.15-.33.99-.32,1.13.02.27-.18,1.12-.3,1.4.02.27-.3,1.4-.27,1.67-.13.15-.32,1.13-.43,1.41.01.14-.62.87-.74,1.02-.26.16-.62.88-.74,1.02.01.14-.32,1.13-.57,1.42-.11.28-.67,1.84-.79,2.13-.11.28-.67,1.84-.92,2.14-.11.29-.96,1.73-1.21,2.03-.11.28-.35.72-.74,1.02l-.39.31c.01.14-.37.58-.35.72.01.14-.33.99-.46,1.14-.12.15-.75.89-.88,1.04-.14.01-.89.9-1,1.18-.26.16-1.13,1.33-1.38,1.63l-2.28,2.39c-.51.45-.9.76-1.14,1.19-.11.28-1.25,1.48-1.52,1.64-.25.3-1.29,1.07-1.42,1.08-.12.15-1.05.64-1.17.78-.26.16-1.01,1.05-1.28,1.21-.12.15-.89.9-1.01,1.05-.14.01-.91.62-1.18.65-.12.15-1.3.93-1.69,1.24-.25.3-1.7,1.1-2.1,1.27-.26.16-1.03.91-1.01,1.05-.14.01-.91.63-1.17.78-.41.03-1.73.69-1.99.85-.26.16-1.88.57-2.28.74-.4.17-.66.33-.93.35l-.8.34c-.27.02-1.18.65-1.46.67-.13.15-1.47.53-1.89.43-.41.03-1.9.29-2.04.3-.27.02-.96.08-.96.08-.14.01-1.28-.45-1.7-.55-.28-.11-1.4-.3-1.54-.29-.14.01-.83-.07-1.12-.18-.27.02-1.62-1.24-2.06-1.62-.46-.51-1.85-2.46-2.02-2.86-.16-.26-.52-1.33-.67-1.46,0-.01,0-.04-.01-.06.76-.37,1.91-1.02,2.19-1.36.27-.02,1.46-.67,1.72-.83l1.46-.67c.14-.01.65-.47.64-.6.38-.44,1.52-1.64,2.2-1.69.13-.15.91-.63,1.17-.78.12-.15.79-.48.92-.49.13-.15.66-.33.65-.47.12-.15.63-.74.75-.89.12-.15.61-.88.88-1.04.41-.03,1.87-.7,2.12-1,.11-.28.61-1.01.59-1.15.25-.3,2.7-2.28,3.1-2.46.25-.3,1.15-1.06,1.29-1.07.12-.15.76-.75.89-.9.13-.15.71-1.43.97-1.59.25-.3.51-.45.65-.47.23-.57.61-.88.87-1.17.4-.17,1.4-1.35,1.65-1.65.25-.3.36-.58.63-.74l.46-1.14c.6-1.01,1.78-1.8,2.51-2.96l.25-.3c.14-.01.5-.59.63-.74.12-.15.72-1.3.97-1.59l1.21-2.02c.25-.3.72-1.3.84-1.45l.59-1.15c.12-.15.72-1.3.83-1.58.11-.28,1.6-3.98,1.71-4.27.5-.59,1.53-3.15,1.46-3.97.13-.15.47-1,.45-1.27l.41-1.68c-.03-.41.39-1.96.77-2.4.12-.15.43-1.41.54-1.83-.03-.41.12-1.93.23-2.22,0-.08-.01-.3-.01-.56.53-.18,1.12-.36,1.35-.37.41-.03,1.87-.7,2.13-.86.26-.16,1.59-.68,1.99-.85.26-.16,1.86-.84,2.26-1.01.25-.3,1.73-.69,2.15-.59.27-.02,1.49-.26,1.63-.27.26-.16,1.32-.66,1.59-.68.26-.16,1.48-.4,1.75-.42.27-.02,1.35-.25,1.62-.41.14-.01,1.07-.36,1.21-.38.28.11,1.24.04,1.51.01.14-.01.94-.22,1.08-.23.14-.01.81-.2,1.08-.23.14-.01,1.34-.39,1.75-.42.26-.16,1.63-.27,1.78-.15.96-.08,1.78-.15,2.73-.22l1.07-.36c.14-.01.82-.07.96-.08.15.12.97.06,1.24.03.26-.16,1.37-.11,1.65,0,.42.1,1.95.25,2.22.23.41-.03,1.78-.15,2.05-.17.27-.02,1.1.05,1.24.04l1.41.43c.27-.02,1.97.53,2.38.49.42.1.69.08.98.19l.57.23c.28.11,1.13.32,1.26.31.14-.01.84.21.99.33.14-.01,1.01.6,1.16.73.28.11,1.15.59,1.42.57.27-.02,1.84.67,2.42,1.04.43.24,1.07,1.29.81,1.45-.26.16-1.16.92-1.29,1.07-.12.15-.89.9-1.15,1.06-.12.15-.91.63-1.05.64s-2.2,1.69-2.32,1.84c-.27.02-.79.48-.77.61-.12.15-.63.74-.75.89-.26.16-1.04.77-1.16.92-.14.01-1.16.92-1.42,1.08l-1.03.91c-.51.45-.76.75-1.4,1.35l-.89.9c-.25.3-1.4,1.35-1.52,1.64-.26.16-1.01,1.05-1.13,1.33-.13.15-.63.74-.75.89-.14.01-1.16.92-1.41,1.22-.25.3-.36.58-.49.73l-.24.43c-.12.15-.76.75-1.04.77-.12.15-1.01,1.05-1.14,1.19-.11.29-.73,1.16-.72,1.3-.11.28-.6,1.01-.73,1.16-.14.01-1.15,1.06-1.39,1.49l-.74,1.02c-.14.01-.39.31-.64.6-.25.29-1.4,1.35-1.79,1.66-.25.3-1,1.18-1.13,1.33-.13.15-.47,1-.46,1.14.01.14-.6,1.01-.73,1.16-.12.15-.89.9-1.01,1.05-.12.15-.88,1.03-.99,1.32-.26.16-1.15,1.06-1.27,1.34-.11.28-.82,1.72-1.08,1.88-.23.57-2.18,3.62-2.55,4.06-.26.16-1.25,1.48-1.5,1.77-.25.3-1.11,1.6-1.36,1.9l-2.71,3.8c-.25.3-.73,1.16-.86,1.31.01.14-.48.87-.46,1.14-.12.15-.63.74-.75.89,0,0-.36.58-.49.73-.13.15-.71,1.43-.81,1.85-.25.3-1.53,1.5-1.79,1.66-.25.3-1.11,1.6-1.22,1.89-.11.29-.83,1.58-1.1,1.74-.25.3-.82,1.72-1.07,2.02-.25.29-1.38,1.63-1.63,1.92-.1.42-1.08,1.88-1.2,2.16-.25.29-1.24,1.61-1.36,1.9-.11.28-.73,1.16-.86,1.31-.14.01-.37.58-.48.87.01.14-.49.73-.75.89-.13.15-.75.89-.87,1.17.01.14-.73,1.16-.84,1.45-.12.15-.87,1.17-.98,1.46l-.46,1.14c-.12.15-.75.89-.87,1.17-.25.3-.88,1.04-1,1.18-.12.15-.49.73-.62.88.02.27-.95,1.87-1.32,2.31l-.73,1.16c-.25.29-2.75,3.39-2.86,3.67-.12.15-1.14,1.19-1.39,1.49-.39.31-1.53,1.5-1.78,1.8l-1.37,1.76c-.26.16-.89.9-1.03.91.01.14-.64.6-.76.75-.25.3-.88,1.04-1,1.18.02.27-.74,1.02-1,1.18-.25.3-1.56,1.09-1.96,1.26-.4.17-1.56,1.09-1.69,1.24-.25.3-1.29,1.07-1.56,1.09-.26.16-1.19.65-1.31.79l-.38.44c-.38.44-1.17.78-1.83,1.11l-2.37,1.3c-.14.01-.92.49-1.05.64-.13.15-1.32.66-1.58.82-.41.03-1.74.56-2.02.58-.26.16-1.72.83-2.13.86-.41.03-.67.19-.93.35l-.95.22c-.27.02-1.22.24-1.36.25-.14.01-1.22.24-1.63.27-.41.03-1.64.14-1.91.16l-.54.18-.55.04c-.27.02-1.5.12-1.78.15l-2.49-.21c-.42-.1-1.67-.28-1.82-.4-.14.01-.71-.22-.84-.21-.41.03-2.07-.1-2.36-.22-.14.01-1.13-.32-1.26-.31l-3.19-1.94c-.88-.62-1.22-1.41-1.51-1.66-.45-.51-.9-.89-1.06-1.15-.3-.25-.81-1.45-.95-1.57-.16-.26-.61-.77-.63-.91l-1.14-2.11c-.02-.27-.37-1.21-.4-1.48-.16-.26-.4-1.48-.42-1.75-.16-.26-.26-1.49-.27-1.63-.02-.27-.1-1.23-.12-1.5-.01-.14-.12-1.5-.15-1.78.11-.28.15-1.52.27-1.67-.08-.96.61-2.66,1.23-3.4.11-.28.56-1.56.67-1.84l.9-2.41c.1-.42.58-1.29.71-1.43.12-.15.65-.47.77-.61.12-.15,1-1.18,1.11-1.6.25-.3,1.68-1.38,1.93-1.67l.9-.76c.68-.06,1.31-.8,1.56-1.09.8-.34,1.56-1.09,1.97-1.13l.66-.33c.14-.01,1.21-.38,1.34-.39l1.75-.42c.27-.02,1.5-.12,1.78-.15.42.1,1.51.01,1.65,0,.13-.15,1.36-.25,1.61-.55.25-.29.35-.72.32-1.13-.03-.41-.33-.66-.62-.91-.3-.25-2.36-.22-2.77-.18-.27.02-1.63.27-1.75.42-1.09.09-1.88.57-2.8,1.06-.25.29-1.57.95-1.98.99-.26.16-1.32.66-1.45.81-.26.16-.79.48-.92.49-.12.15-1.46.67-1.86.84-.26.16-.39.31-.5.59l-.38.44c-.13.15-.63.74-.76.75-.13.15-.79.48-.91.63-.14.01-1.03.91-1.29,1.07l-.99,1.32c-.12.15-.6,1.01-.73,1.16-.1.42-.97,1.59-1.35,2.04.02.27-.47,1-.46,1.14-.13.15-.62.88-.73,1.16.01.14-.34.85-.48.86-.13.15-.33.99-.45,1.28.02.27-.28,1.67-.39,1.96-.1.42-.4,1.82-.5,2.24.02.27-.01,1.51.01,1.79.02.27.09,1.09.1,1.23.01.14.06.68.07.82,0,0,.07.82.09,1.09.01.14.09,1.09.1,1.23.15.13.35.93.36,1.07.02.27.24,1.22.4,1.48.02.27.68,1.59.84,1.86.16.26.65,1.18.52,1.33,0,0,.33.66.48.79.15.12.75.76.9.89.15.13.65,1.19.8,1.31.31.39,1.77,1.5,2.21,1.74.3.25,1.74,1.1,2.03,1.21.42.1,1.97.53,2.13.79.28.11,1.72.82,2,.94l1.99.8c.15.13,1.54.29,1.81.26.41-.03,1.38.03,1.39.16.14-.01.84.2.99.33.27-.02.96-.08,1.09-.09.14-.01.82-.07.96-.08.15.13,1.1.05,1.38.02.13-.15,1.23-.1,1.65,0,.28.11,1.25.17,1.51.01.14-.01.81-.2.96-.08.14-.01.68-.06.82-.07.26-.16.95-.21,1.08-.23.15.12.82-.07.96-.08.14-.01,1.07-.36,1.48-.4.27-.02,1.48-.4,1.75-.42l1.62-.41c.82-.07,2.03-.44,2.69-.77.12-.15,1.18-.65,1.45-.81.4-.17,1.59-.68,1.86-.84.4-.17,1.33-.52,1.61-.55.14-.01.66-.33.79-.48.12-.15,1.36-.25,1.74-.56.4-.17,1.54-1.36,1.8-1.52.26-.16,1.72-.83,2.12-1,.4-.17,2.12-1,2.52-1.17.26-.16,1.29-1.07,1.55-1.23.13-.15.9-.76,1.03-.91.14-.01,1.06-.5,1.19-.65.26-.16,1.05-.64,1.18-.65.12-.15.5-.59.63-.74.13-.15.75-.89.89-.9.12-.15.9-.76.9-.76.12-.15.89-.9,1.14-1.19.12-.15.88-1.03,1-1.18.12-.15.77-.61,1.04-.77.14-.01,1.03-.91,1.13-1.33.25-.3,1.13-1.33,1.25-1.48.26-.16.91-.63,1.04-.77.14-.01,1.04-.77,1.15-1.06.26-.16,1.12-1.47,1.23-1.75.11-.28.97-1.59,1.22-1.89.11-.28.73-1.16.73-1.16.13-.15.49-.73.63-.74-.01-.14.63-.74.75-.89.13-.15.88-1.03.99-1.32.13-.15.73-1.16.72-1.3.12-.15,1.39-1.49,1.63-1.92.24-.43,1.06-2.15,1.31-2.45l1.61-2.19.51-.46c.75-.89,1.22-1.89,1.69-2.89.11-.28.83-1.58,1.08-1.88.26-.16.87-1.17.85-1.31.13-.15.49-.73.62-.88.12-.15.71-1.43.96-1.73.25-.3,1.28-1.21,1.39-1.49.11-.28.58-1.29.71-1.43.4-.17,1.47-2.18,1.57-2.61l.75-.89c.08-.69.98-1.46,1.17-2.43.11-.29.72-1.3,1.25-1.48l.6-1.01c.1-.42,1.97-2.78,2.35-3.22-.02-.27.59-1.15.72-1.3.26-.16.73-1.16.84-1.45.11-.28,1.12-1.47,1.37-1.76.25-.29.69-1.57.82-1.72-.01-.14.49-.73.63-.74.12-.15.64-.6.76-.75.13-.15.48-.87.47-1s.72-1.3.96-1.73c.25-.3.84-1.45.97-1.59.14-.01.5-.59.63-.74.13-.15.89-.9,1.01-1.05.26-.16.73-1.16.84-1.44.13-.15.59-1.15.84-1.45l1.12-1.47c.26-.16,1.01-1.05,1.28-1.21.12-.15.5-.59.49-.73-.01-.14.22-.71.34-.85l.76-.75c.12-.15.99-1.32,1.24-1.62.11-.28,1.24-1.62,1.5-1.77.25-.3,1.27-1.34,1.39-1.49.13-.15.84-1.45.96-1.73.11-.28.87-1.17,1-1.18.13-.15.64-.6.63-.74.11-.28.62-.87.74-1.02.12-.15.76-.75.89-.9l.74-1.02s.89-.9,1-1.18l1.64-1.79c.11-.28,1.28-1.21,1.54-1.36.13-.15.9-.76,1.03-.91.13-.15.87-1.17,1.12-1.47.38-.44,2.94-2.72,3.49-2.76.26-.16,1.23-.1,1.39.16.02.27.93,1.3,1.09,1.56.29.25,1.23,1.55,1.4,1.95.32.52,1.02,4.04,1.11,5.13.16.26.36,1.07.38,1.21.01.14.07.82.07.82.01.14.21.95.24,1.22-.12.15-.17,1.25-.15,1.53.01.14-.16,1.39-.27,1.67-.11.28-.38,2.1-.47,2.65.03.41-.25,1.95-.38,2.09.01.14-.34.85-.33.99-.13.15-.29,1.54-.4,1.82-.24.43-.35.72-.63.74l-.21.84c.02.27-.81,1.86-1.05,2.29l-.97,1.59c-.25.3-.3,1.4-1.12,1.47.02.27-.22.71-.32,1.13-.88,1.03-1.96,2.91-2.54,4.2-.11.28-.98,1.45-1.11,1.6l-1.88,2.22-.4.17c.01.14-.49.73-.75.89-.12.15-.64.6-.77.61,0,0-.89.9-1.29,1.07-.25.29-1.26,1.34-1.39,1.49.02.27-.75.89-.88,1.04-.27.02-1.03.91-1.29,1.07-.11.28-1.03.91-1.16.92-.27.02-1.06.5-1.32.66-.14.01-1.33.52-1.73.69-.27.02-1.65,0-1.8-.13-.28-.11-1.27-.45-1.42-.57-.27.02-1.52-.15-1.95-.25-.27.02-1.66-.14-1.94-.12-.3-.25-3.88-.37-4.29-.33-.42-.1-1.53-.15-1.67-.28-.14.01-1.23.1-1.63.27-.27.02-2.53,1.03-2.91,1.48-.65.47-2,2.5-1.97,2.78l-.06.97c.02.27.06.68.36,1.07.17.4,1.61,1.24,2.04,1.35.57.23.99.33,1.26.31l.98.19c.28.11,1.1.05,1.23-.1.14-.01.68-.06.82-.07.28.11,1.37-.11,1.78-.15l1.21-.37c.1-.42,1.36-.25,2.01-.71l1.36-.25c.41-.03,2.15-.59,2.41-.75.4-.17,1.85-.98,2.11-1.14,1.23-.1,2.05-.17,3.08.71.16.26,1.09,1.56,1.27,2.1.16.26.59,2.15.75,2.41.51,1.2.57,1.88.67,3.11l.16,1.91c.03.41-.14,1.66-.11,1.94l-.43,1.41c.11,1.37-.23,2.22-.82,3.37.15.13.18.54.08.96-.11.28-.92,2.14-1.16,2.57l-.43,1.41-1.04,2.42c-.38.44-2.19,3.48-2.13,4.17-.13.15-.75.89-1.03.91-.13.15-.74,1.02-.85,1.31-.11.29-.86,1.31-.98,1.46l-1.27,1.34c-.12.15-1,1.18-1.13,1.33-.25.3-1.01,1.05-1.14,1.19-.14.01-.9.76-1.03.91-.13.15-.63.74-.75.89l-1.03.91c-.52.32-2.59,2-2.96,2.44-.14.01-.79.48-1.05.64-.14.01-2.21,1.56-2.34,1.7-.27.02-1.06.5-1.32.66-.13.15-1.17.78-1.3.93-.14.01-1.58.82-1.98.99-.41.03-1.73.69-1.87.7-.14.01-.79.48-.92.49-.27.02-1.21.38-1.48.4-.26.16-.93.35-1.07.36-.12.15-.94.22-1.35.25-.27.02-1.22.24-1.21.37-.14.01-1.24-.03-1.51-.01l-1.26-.31c-.67.19-1.94-.12-2.22-.23-.97-.06-1.67-.27-2.26-.78l-.92-1.16c-1.04-.88-1.86-2.6-1.98-3.96-.17-.4-1.01-2.26-1.44-2.5-.43-.24-2.6.21-2.85.51-.25.3-.36,2.37-.33,2.64l.23,1.08c.18.54.96,1.71,1.98,2.31.44.38.68,1.59,1.39,1.81l1.15.59c.42.1,2.13.79,2.55.89.43.24.98.19,1.25.17l.57.23c.15.13,1.12.18,1.25.17.26-.16,1.23-.1,1.38.02.14-.01.97.06,1.24.04.14-.01.96-.08,1.23-.1.15.13,1.1.05,1.38.02.14-.01,1.49-.26,1.89-.43.27-.02,1.49-.26,1.64-.13.14-.01.82-.07.96-.08.96-.08,1.76-.28,2.56-.62.4-.17.66-.33,1.07-.36l.67-.19c.14-.01,1.08-.23,1.36-.25.13-.15,1.32-.66,1.72-.83.26-.16,1.86-.84,2.24-1.15.26-.16,1.21-.37,1.21-.37.14-.01.92-.49,1.19-.65.27-.02,1.31-.79,1.43-.94.26-.16,1.19-.65,1.32-.66.12-.15,1.17-.78,1.56-1.09.25-.3,1.66-1.51,1.91-1.81.4-.17,1.71-.97,2.11-1.14.26-.16,1.3-.93,1.55-1.23.13-.15.88-1.04,1-1.18.13-.15.74-1.02.87-1.17.25-.3.88-1.04,1.14-1.19.13-.15.74-1.02.85-1.31.13-.15.74-1.02,1-1.18.13-.15,1.14-1.19,1.26-1.48.25-.29.5-.59.76-.75.21-.84.57-1.42.94-2l.59-1.15c.11-.28,1.06-2.15,1.3-2.58.1-.42.67-1.84.65-2.12-.01-.14.3-1.4.41-1.68-.02-.27.31-1.26.45-1.27l.1-.42c.25-.29.41-1.68.61-2.66l.21-.84c.11-.28.31-1.26.3-1.4-.01-.14-.23-1.08-.26-1.49-.02-.27-.25-1.36-.27-1.63.13-.15-.27-1.63-.45-2.16-.05-.55-.07-.82-.36-1.07.07-.83-.25-1.36-.57-1.88-.31-.39-1.4-1.95-1.56-2.21-.16-.26-.82-1.58-.98-1.85-.44-.38-1.65-1.65-1.95-1.9-.29-.25-.5-1.06-.09-1.09.26-.16,1.7-1.1,2.1-1.27.4-.17.8-.34,1.04-.77.29.11,1.36-.25,1.73-.69l.38-.44c.13-.15.91-.63,1.05-.64.26-.16,1.57-.96,1.97-1.13.39-.31.79-.48,1.18-.65.39-.31,1.44-.94,1.54-1.36l.38-.44c.14-.01.64-.6.91-.63.12-.15,1.03-.91,1.29-1.07l.9-.76c.39-.31,1.74-2.21,1.72-2.48.13-.15.49-.73.75-.89.12-.15,1.01-1.05,1.28-1.21.13-.15.61-1.01.73-1.16-.02-.27,1.57-2.6,1.83-2.9.11-.28.59-1.15.58-1.29-.03-.41.87-2.82,1.12-3.12.13-.15.48-.86.47-1l.23-.57s.11-.29.22-.71c.11-.28.38-2.09.48-2.52.24-.43.66-1.98.78-2.26-.02-.27-.02-1.92.09-2.21-.03-.41.07-.83.19-.98l.08-.69c-.01-.14-.09-1.09.02-1.38-.01-.14-.08-.96-.23-1.08l-.03-.41-.19-.67c-.02-.27-.08-.96.05-1.1-.01-.14-.22-.94-.38-1.21-.01-.14-.52-1.33-.54-1.61-.16-.26-.39-1.34-.53-1.47l-.09-1.09c-.01-.14-.8-1.31-.98-1.85-.16-.26-1-2.12-1.3-2.37-.31-.39-1.38-1.68-1.53-1.94l-1.22-1.41c-.15-.12.07-.83.33-.99l1.19-.65c.14-.01,1.3-.93,1.56-1.09.4-.17,2.13-.86,2.39-1.02.26-.16,1.45-.81,1.57-.95.27-.02,1.34-.39,1.47-.53.27-.02,1.36-.25,1.63-.27.4-.17,1.34-.39,1.48-.4,0,0,.54-.18.66-.33.14-.01-.04-.55-.33-.66ZM535.09,413.2c-.4.17-1.83,1.11-2.24,1.15-.26.16-1.2.51-1.18.65-.13.15-.77.61-.9.76-.12.15-1.46.67-1.72.83-.4.17-1.99.85-2.27.87-.4.17-.66.33-.94.22l-.8.34c-.55.05-2.85.51-3.25.68-.27.02-1.48.4-1.75.42l-.82.07h-1.79c-.55.05-2.61.09-2.87.24-.27.02-1.95-.25-2.37-.36-.43-.24-2.39-.63-2.8-.59-.27.02-.56-.09-.84-.21l-1.62-1.24c-.01-.14-.76-.9-.92-1.16-.3-.25-.7-1.87-.45-2.16.1-.42.48-.86.62-.88.35-.72.98-1.46,1.5-1.77l.96-.08c.41-.03,1.34-.39,1.61-.55.14-.01,1.07-.36,1.34-.38s1.22-.24,1.36-.25c.14-.01.68-.06.82-.07.14-.01.82-.07.96-.08.14-.01.83.07.97.06.14-.01.68-.06.82-.07.13-.15.8-.34.93-.35.14-.01.82-.07.96-.08.28.11,1.53.15,1.8.13s1.67.27,1.96.39c.27-.02,1.26.31,1.41.43.15.12,1.25.17,1.67.27.27-.02,2.07.1,2.48.07.42.1,2.5.34,2.93.45l1.66.14c.3.25.58.36,1.01.6.3.25,1.99.8,2.28.91.15.12-.1.42-.5.59ZM595.78,317.9c.21-.71.47-1.54.76-2.42.29.08.89.32,1.12.41.28.11,3.14,1.39,3.14,1.39.14-.01,1.14.46,1.28.45.28.11,1.3.72,1.58.83l.6.64c.41-.03,1.13.32,1.41.43l.44.38s.75.76,1.05,1.01c.16.26.11,1.37-.15,1.53-.12.15-.74,1.02-.72,1.3-.12.15-.48.87-.74,1.02-.12.15-.9.76-1.16.92-.13.15-.76.75-.76.75-.13.15-.88,1.03-1.14,1.19l-3.29,3.43c-.25.3-1,1.18-1.12,1.47-.13.15-.35.72-.34.85-.12.15-.73,1.16-.98,1.46-.25.3-1.14,1.19-1.27,1.34-.14.01-.77.61-.9.76-.13.15-.63.74-.75.89.01.14-.76.75-.89.9-.26.16-.89.9-1.01,1.05.01.14-.39.31-.4.17-.14.01-.6-.64-.75-.76-.15-.12-1.48-1.25-1.79-1.64-.44-.38-1.63-1.38-1.77-1.5l-.51-.3c3.97-5.74,7.1-11.91,9.07-17.95ZM594.87,357.25c.01.14.23,1.08.24,1.22.16.26.1,1.23-.01,1.51.02.27-.31,1.26-.42,1.55.01.14.08.96.09,1.09s-.06.97-.18,1.12c-.11.28-.17,1.25-.01,1.51.01.14-.05,1.1-.17,1.25-.11.28-.34.85-.47,1,.01.14-.32,1.13-.29,1.54-.47,1-.79,2.13-1.26,3.13.01.14-.45,1.27-.7,1.57-.11.28-.73,1.16-.72,1.3l-.47,1c-.12.15-.74,1.02-.99,1.32-.11.28-1.24,1.62-1.49,1.91-.25.3-1.37,1.76-1.48,2.05-.25.29-1.23,1.75-1.48,2.05-.25.3-1.28,1.21-1.4,1.35-.92.49-2.86,2.02-3.49,2.76,0,0-.91.62-1.04.77-.26.16-1.56,1.09-1.69,1.24-.26.16-1.7,1.1-2.09,1.41-.4.17-1.86.84-2.13.86-.26.16-1.73.69-2.13.86-.26.16-1.86.84-2.27.87-.52.32-2.28.74-2.82.78-.14.01-1.08.23-1.21.38-.26.16-1.06.5-1.18.65-.14.01-.97-.06-1.1-.05-.28-.11-.73-.49-.74-.63-.01-.14.22-.71.34-.85,0,0,.75-.89,1-1.18l1.23-1.75c.12-.15,1.98-2.64,1.98-2.64.12-.15.62-.87.6-1.01.11-.28.61-1.01.74-1.02.13-.15.63-.74.75-.89.11-.28.62-.87.74-1.02-.01-.14.49-.73.48-.86.13-.15.49-.73.63-.74.38-.44,1.71-2.62,1.68-3.03.12-.15.6-1.01.6-1.01.13-.15,1-1.18,1.25-1.48.38-.44.63-.74.6-1.01l.35-.72c.11-.28.61-1.01.74-1.02.13-.15.89-.9,1.14-1.19.12-.15.87-1.17.98-1.46l.33-.99c.13-.15.49-.73.63-.74.12-.15.75-.89.87-1.17.11-.28.86-1.31.98-1.46.26-.16.73-1.16.84-1.45.11-.28.71-1.43.96-1.73.11-.28.88-1.04,1-1.18,0,0,.76-.75.88-1.04l1.1-1.74c.26-.16.84-1.44.96-1.73.11-.28,1.09-1.74,1.35-2.04.25-.3,1.23-1.75,1.35-2.04l.34-.85c.09-.56.99-1.32,1.36-1.9l.59-1.15c.11-.28.98-1.46,1.24-1.61.13-.15.61-1.01.59-1.15-.01-.14.3.25.47.65l.37,1.21c.16.26.18.54.34.8.03.41.39,1.34.26,1.49.01.14-.05,1.1.1,1.23.02.27.28,1.76.32,2.17-.1.42.01,1.79.02,1.92ZM521.99,347.56c-.38.44-.73,1.16-.81,1.85-.12.15-.21.84-.33.99.01.14-.33.99-.32,1.13-.12.15-.32,1.13-.45,1.27l-1.1,3.39s-.04.5-.08.97c-6.55-3.43-12.15-8.6-17.3-15.06-1.57-2.47-3.81-5.16-4.93-8.07-.9-1.79-1.79-3.59-2.69-5.16-.9-1.79-1.79-3.81-2.47-5.61-.45-2.02-1.57-3.81-2.24-5.38-.22-1.35-1.12-4.48-1.79-7.85-.67-2.91-1.35-6.5-1.35-7.62,0-.22,0-.67-.22-1.12v-.67c0,.22.22.22.22.22l-.45-.9c-.22-1.79-.45-3.59-.45-5.16v-.9l-.22-.9c0-2.02-.22-4.04-.22-5.83,0-3.59.22-6.95.22-10.31,0-2.24.45-4.26.45-6.5v-.67c0-.45,0-.9.22-1.35.22-1.35.22-3.36.67-5.16,0-1.57.22-2.69.45-3.59,0-.45.22-.9.22-1.35.22,0,.22-.45.22-.67.22-2.02.9-4.71,1.57-6.73.67-2.69,1.57-4.93,2.24-6.95.45-2.02,1.35-3.81,2.24-5.83.67-1.57,1.79-3.59,2.47-5.16,6.28-13.68,21.3-27.8,37.67-28.47h.22c.45-.22.9-.22,1.35-.22,1.79,0,3.81.22,5.38.22,12.56,0,24.21,9.42,31.16,18.16,3.59,4.48,6.05,9.64,8.52,14.35.45.67.67,1.57,1.12,2.24.45,1.12.67,2.02,1.12,2.69,0,.67.67,2.47,1.34,4.26.22.9.45,1.79.67,2.47.22.67.22.9.22,1.12.22.45.22.9.22,1.12,2.91,6.73,4.48,21.08,4.48,27.8,0,3.81.22,7.62.22,11.21,0,.67,0,.9-.22,1.12v.67q-.22.22-.22.45c0,1.79-.45,3.59-.45,5.38q0,.22.22.22c0,.67-.22,1.12-.45,1.79,0,1.12,0,2.02-.22,2.69-.22.45-.22,1.12-.22,1.79-.22.45-.22.67-.67,2.47,0,.45-.22,1.12-.22,2.02,0,.45-.22.67-.22,1.12-.22,0-.22.22-.22.22,0,.65-.21,1.52-.22,2.18-.08,0-.14.01-.17.01-.13.15-.96.08-1.24-.04-.27.02-1.39-.16-1.67-.27-.27.02-1.23.1-1.37.11-.27.02-.96.08-1.1-.05-.15-.13-.97-.06-1.23.1-.27.02-1.21.37-1.48.4-.68.06-1.37.11-2.05.17-.15-.12-.84-.21-.97-.06-.14.01-1.49.26-2.04.3-.27.02-1.62.41-1.75.42-.26.16-1.08.23-1.36.25-.15-.13-.82.07-.94.21-.26.16-.95.21-1.22.24-.14.01-.96.08-1.08.23-.27.02-1.07.36-1.34.39-.38.44-3.06,1.22-3.61,1.26-.27.02-2.03.44-2.56.62-.4.17-2.13.86-2.53,1.03-.41.03-1.98.99-2.38,1.16-.27.02-1.33.52-1.59.68-.14.01-.65.47-.78.61-.13.15-.93.35-1.21.37-.41.03-1.2.51-1.32.66.01.14-1.06.5-1.45.81-.4.17-1.85.98-2.11,1.14-.41.03-3.25,2.33-3.5,2.63-.8.34-1.85.98-2.63,1.45-.39.31-1.15,1.06-1.29,1.07.03.41-1.25,1.48-1.66,1.51-.15-.12-.93.35-1.19.65-.12.15-2.27,2.52-2.4,2.54-.13.15-.76.75-.89.9-.12.15-1.16.92-1.28,1.21-.25.29-.72,1.3-.84,1.44-.13.15-.64.6-.76.75.01.14-1.03.91-1.27,1.34-.11.28-.22.71-.33.99-.91.63-1.54,1.37-1.64,1.79-.64.6-.97,1.59-1.21,2.03l-2.93,4.51ZM524.07,354.41c.23-.57.89-2.55.99-2.97.11-.28.35-.72.58-1.29-.15-.12-.03-.41.07-.83.24-.43.79-2.13,1.04-2.42.12-.28.97-1.59,1.07-2.01.25-.3,1.08-1.88,1.33-2.17.39-.31.76-.75,1.01-1.05l1.85-2.63.39-.31c.13-.15.72-1.3.82-1.72.25-.29,1.16-.92,1.15-1.06l1.01-1.05c.26-.16,1.28-1.21,1.39-1.49.25-.29.89-.9,1.01-1.05,0,0,.5-.59.63-.74.26-.16,1.15-1.06,1.55-1.23.25-.29,1.29-1.07,1.41-1.22.12-.15.63-.74.63-.74.13-.15.63-.74.76-.75.13-.15.78-.61.91-.63l.38-.44,2.86-2.02c.26-.16,1.05-.64,1.04-.77.14-.01,1.06-.5,1.2-.51.26-.16,1.18-.65,1.32-.66.12-.15.91-.63,1.05-.64.27-.02,1.05-.64,1.17-.78l.65-.47c.42.1,1.45-.81,1.72-.83l.4-.17c.14-.01.8-.34.93-.35.13-.15.93-.35,1.07-.36.14-.01.81-.2.93-.35,0,0,.79-.48,1.18-.65.27-.02,1.75-.42,2.03-.44l1.22-.24c.13-.15.39-.31.65-.47.4-.17,1.99-.85,2.4-.88.27-.02,1.75-.42,2.01-.58l2.84-.65c.27-.02,1.48-.4,1.75-.42.26-.16,1.48-.4,1.75-.42.28.11,1.09-.09,1.23-.1.14-.01.67-.19.82-.07.27-.02,1.09-.09,1.23-.1.27-.02,1.09-.09,1.24.04.96-.08,1.78-.15,2.73-.22.4-.17,1.77-.28,2.04-.31.57.23,1.55.42,2.23.37.02-.02.06-.04.11-.05-.25.61-.52,1.19-.64,1.69-.67,2.47-1.57,4.48-1.79,5.61-4.71,14.57-13.9,28.03-27.58,35.87-1.12.67-2.91,1.57-4.71,2.69-2.24.67-4.48,1.57-6.05,1.57q-.22,0-.67.22c-.45,0-.67,0-.9.22h-1.12l-.67.22h-1.35c-.67.22-1.12.22-1.79.22-5.72,0-10.82-.98-15.45-2.75.07-.21.13-.39.16-.49-.02-.27.19-.98.18-1.12-.06-.68.34-2.5.57-3.07ZM550.86,395.81c-.15-.13-1.26-.31-1.4-.3l-.71-.22c-.28-.11-1.82-.4-2.38-.49l-.42-.1c-.14.01-.98-.19-1.25-.17-.28-.11-1.42-.57-1.71-.68-.28-.11-1.58-.83-1.87-.95-.15-.12-1.68-.41-1.97-.53-.42-.1-3.61-2.04-4.05-2.42-.16-.26-1.48-1.25-1.9-1.36-.3-.25-1.61-1.24-1.76-1.37,0,0-2.12-2.3-2.41-2.55l-.33-.66c-.01-.14-.61-.77-.63-.91-.15-.12-.92-1.16-1.23-1.55-.16-.26-.98-1.84-1.14-2.11l-.35-.93-.35-.93c-.02-.27-.56-1.74-.73-2.14-.03-.41-.58-2.02-.74-2.28-.02-.27-.37-1.21-.4-1.48-.01-.14-.08-.96-.09-1.09-.02-.27-.08-.96-.09-1.09-.01-.14-.07-.82-.08-.96l.16-1.39c-.07-.82-.13-1.64-.2-2.46l-.17-.4c-.02-.27.08-.69.05-1.1-.02-.3-.11-.87-.17-1.36.04,0,.08.01.13.02.67,0,1.35.22,2.02.45.22,0,.9.22,1.35.45.45,0,.67,0,.9.45.67,0,1.57.22,2.24.22,1.79.22,3.59.45,4.04.45,7.17,0,13.68-.45,20.63-2.47,11.93-3.27,23.13-12.38,31.28-23.34.33.21.68.47.77.54.15.12.85.34.99.33.14-.01.73.49.89.75.02.27,1.34,1.27,1.79,1.64.43.24.74.63.89.75-.25.3-.51.46-.63.74-.26.16-.87,1.17-.99,1.32.02.27-.87,1.17-.98,1.46-.26.16-1.25,1.48-1.37,1.76-.11.28-1.23,1.75-1.61,2.2l-1.48,2.05c-1.05.64-2.03,2.09-2.49,3.23-.13.15-1.11,1.6-1.35,2.04-.38.44-1.36,1.9-1.47,2.18-.34.85-.82,1.72-1.45,2.46l-.89.9c-.26.16-1.13,1.33-1.37,1.76-.25.29-1.73,2.34-1.7,2.75.01.14-.22.71-.34.85,0,0-.62.88-.74,1.02l-.63.74c-.28-.11-.75.89-.67,1.84-.38.44-1.53,1.5-1.91,1.81l-.37.58c-.12.15-1.12,1.47-1.36,1.9-.11.28-.23.57-.21.84l-.63.74c-.11.29-.59,1.15-.58,1.29-.14.01-.62.88-.88,1.03-.25.3-1.25,1.48-1.5,1.77-.25.3-.95,1.87-1.2,2.16l-.56,1.56c-.63.74-1.5,1.77-1.98,2.64-.25.3-1.62,2.06-1.86,2.49-.24.43-.48.86-.6,1.01l-.99,1.32c-.25.3-1.49,1.91-1.74,2.21-.13.15-.9.76-1.04.77-.15-.13-.68.06-.82.07-.13.15-.95.22-1.22.24ZM617.93,361.68c-.12.15-.58,1.29-.55,1.7-.11.28-.43,1.41-.57,1.42-.12.15-.59,1.15-.57,1.42-.11.28-.79,2.13-.88,2.69-.1.42-.07.83-.05,1.1l-.74,1.02c-.11.29-.94,2-1.04,2.42-.11.28-.69,1.71-.94,2-.26.16-1.24,1.62-1.36,1.9l-1.49,1.91c-.75.89-1.11,1.6-1.57,2.61.01.14-.72,1.3-.97,1.59-.26.16-1,1.18-1.12,1.47l-.72,1.3c-.26.16-1.01,1.05-1.14,1.19-.26.16-.88,1.03-.99,1.32.01.14-.49.73-.62.87-.26.16-.87,1.17-1.12,1.47-.4.17-1.55,1.23-1.66,1.51-.25.3-.73,1.16-.72,1.3s-.64.6-1.04.77c-.82.07-2.3,2.11-2.66,2.83-.13.15-.63.74-.75.89-.13.15-.79.48-.92.49-.12.15-.91.63-1.03.91-.26.16-1.15,1.06-1.27,1.34-.11.28-1.15,1.06-1.42,1.08-.4.17-1.06.5-1.05.64-.13.15-.75.89-1.01,1.05-.11.27-1.37,1.24-1.85,1.49.1-.59.2-1.95.17-2.31-.02-.27.28-1.67.39-1.96-.02-.27.09-.56-.07-.82l.47-1c-.28-.11.43-1.41.4-1.82.11-.28.35-.72.46-1.14.24-.43.66-1.98.78-2.26.11-.28.72-1.3.71-1.43.11-.29.56-1.56.66-1.98.1-.42.56-1.56.69-1.71-.01-.14.59-1.15.7-1.57.25-.3,1.38-1.63,1.77-1.93.25-.29,1.37-1.76,1.48-2.05l.59-1.15c.26-.16.51-.46.62-.88.25-.29,1.52-1.64,1.78-1.8.25-.29.97-1.59,1.08-1.88.11-.28.57-1.42.71-1.43l1.15-1.06c.4-.17,1.66-1.51,1.63-1.92l.24-.43c.27-.02.54-.18.91-.63.39-.31,1.55-1.23,1.69-1.24.13-.15.64-.6.77-.61.14-.01.77-.61.89-.9.12-.15.76-.75.9-.76.13-.15,1.04-.77,1.3-.93s1.25-1.48,1.65-1.65c.25-.3,1.55-1.23,1.81-1.39.4-.17,1.74-.56,1.88-.57.13-.15.65-.47.78-.61.12-.15,1.03-.91,1.28-1.21.26-.16,1.31-.8,1.45-.81.04,0,.13-.04.24-.1-.05.11-.1.19-.13.23ZM619.66,352.6c.02.27-.15,1.52-.14,1.66l.12,1.5c.02.27-.32,1.13-.44,1.28.01.14-.33.99-.32,1.13-.13.15-.21.84-.21.84,0,.02,0,.05,0,.09-.29.16-.57.31-.74.38-.26.16-1.46.67-1.72.83-.92.49-1.56,1.09-2.19,1.83-.12.15-1.18.65-1.33.52-.14.01-1.06.5-1.32.66l-.63.74c-.11.28-.24.43-.5.59-.26.16-1.33.52-1.45.81-.12.15-.63.74-.76.75-.55.05-2.36,1.43-2.46,1.85-.13.15-1.05.64-1.31.8l-.93.35c-.09.56-.89.9-.71,1.43l-.77.61c-.13.15-1.03.91-1.15,1.06-1.05.64-2.2,1.69-3.08,2.73-.52.32-2.92,2.99-3.15,3.56-.26.16-.89.9-1.01,1.05,0,0-.62.87-.74,1.02l-.62.88c-.4.17-1.3.93-1.53,1.5l-.52.32c-.12.15-.49.73-.48.86-.25.3-1.58,2.47-1.57,2.61.01.14-.58,1.29-.83,1.58-.11.28-.86,1.31-.98,1.46.01.14-.22.71-.34.85.01.14-.48.86-.47,1-.12.15-.62.88-.6,1.01-.13.15-.99,1.32-1.1,1.74-.1.42-.54,1.83-.65,2.12-.12.15-.32,1.13-.31,1.26.01.14-.33.99-.45,1.28-.38.44-.47,2.65-.41,3.34.01.14-.22.71-.34.85.01.14-.14,1.66-.09,2.21-.08.47.11,1.82.27,2.37l-.25.11c-.26.16-1.16.92-1.29,1.07-.13.15-.78.61-.91.63-.14.01-1.2.51-1.59.68l-2,.72c-.26.16-1.19.65-1.32.66-.13.15-.91.63-1.17.78-.12.15-1.2.51-1.46.67-.27.02-1.21.37-1.47.53-1.09.09-2.57.49-3.51.84-.27.02-.55.05-.81.2l-1.22.24c-.41.03-2.16.45-2.43.61-.41.03-1.78.15-2.06.03-.27.02-1.1-.05-1.24-.03-.14.01-1.09.09-1.37.11l-.96.08-4.17-.48c-.42-.1-2.07-.1-2.21-.09-.27.02-1.1-.05-1.39-.16-.14.01-.86-.48-1-.47-.15-.13-1.15-.59-1.57-.7-.42-.1-2.39-.63-2.81-.73-.41.03-.21-.94.45-1.27.52-.32,2.75-1.74,3-2.03.25-.3.39-.31.51-.46.65-.47,1.05-.64,1.43-.94.26-.16,1.4-1.35,1.65-1.65.12-.15,1.55-1.23,1.95-1.4,1-1.18,2.13-2.51,3.14-3.7.38-.44.76-.75,1.05-.64l.62-.87c.26-.16.87-1.17.99-1.32.5-.59,1.52-1.64,2.34-1.7.4-.17,1.22-.24,1.36-.25,0,0,.96-.08,1.23-.1.82-.07,2.98-.52,3.64-.85.26-.16,1.33-.52,1.47-.53.68-.06,2.55-.76,3.07-1.08.26-.16,1.34-.38,1.48-.4.14-.01.66-.33.79-.48-.01-.14.64-.6.78-.61.41-.03,3.7-1.82,4.23-2.14.4-.17,1.82-1.25,2.09-1.41.66-.33,2.62-1.59,3.12-2.18.25-.3,1.54-1.36,1.92-1.67.25-.29,1.11-1.6,1.22-1.89.25-.3,1.12-1.47,1.38-1.63.11-.28.74-1.02.88-1.03.13-.15.9-.76,1.16-.92s.74-1.02.73-1.16c0,0,.21-.84.33-.99.13-.15,1.24-1.61,1.62-2.06.1-.42.22-.71.07-.83l.46-1.14c.1-.42.7-1.57.82-1.72.12-.15.6-1.01.72-1.3-.01-.14.45-1.27.56-1.56.11-.28.45-1.27.43-1.41.11-.29.05-1.1.04-1.24-.01-.14.19-.98.18-1.12.12-.15.47-1,.46-1.14.11-.28.16-1.39.14-1.66-.03-.41.11-2.07.2-2.63-.02-.27,0-1.65-.02-1.93-.01-.14-.08-.96-.23-1.08-.02-.27.04-1.24.15-1.52-.02-.27.17-1.25.15-1.52.13-.15-.07-.82-.09-1.09-.15-.13-.49-.92-.51-1.2-.15-.13-.35-.93-.36-1.07-.15-.13-.36-1.07-.39-1.34-.02-.27-.69-1.73-.86-2.13-.17-.4-.28-1.76-.16-1.91.11-.28.47-1,.59-1.15-.01-.14.49-.73.62-.88l1.03-.91c.13-.15.87-1.17,1.11-1.6l.47-1c.25-.3.49-.73.74-1.02.38-.44,1.48-2.05,1.73-2.34l.59-1.15c.16.26.9-.76,1.16-.92l.25-.3c-.01-.14,1.36-1.9,1.48-2.05.26-.16,1.14-1.19,1.39-1.49.11-.28.87-1.17.86-1.31l.49-.73c.12-.15,1-1.18,1.4-1.35.25-.3,1.4-1.35,1.66-1.51s1.22-.24,1.51.01c.15.13.76.9.77,1.04.15.13.48.79.63.91.15.12,1.08,1.42,1.39,1.81.31.39.97,1.71,1.11,1.83l.63.91c.02.27.26,1.49.43,1.89.17.4.68,1.59.69,1.73.01.14-.06.97.09,1.09.01.14.52,1.33.7,1.87.17.4.21.95.37,1.21l.1,1.23c.03.41.15,1.78.17,2.05.01.14.25,1.36.41,1.62l.2.81.06.68c.01.14.09,1.09-.03,1.24.01.14-.05,1.1-.04,1.24s.11,1.37.15,1.78c.02.27.01,1.79-.1,2.07ZM658.93,408.1c-.13.15-1.05.64-1.45.81l-2.54.9c-.54.18-1.88.57-1.87.7-.14.01-.96.08-1.23.1-.14.01-1.09.09-1.23.1-.12.15-1.22.24-1.5.12-.27.02-2.47.06-3.18-.15-.43-.24-.86-2.13-.61-2.43.24-.43,1.78-1.8,2.18-1.97.55-.05,2.19-.18,2.19-.18.14-.01.83.07.97.06s.82-.07.96-.08l.41-.03,1.25.17c.41-.03,2.09.38,2.51.48.29.11,1.98.66,2.4.77.42.1.86.48.74.63Z"/>
  </g>
</svg>